<svg width="34" height="37" viewBox="0 0 34 37" fill="none" xmlns="http://www.w3.org/2000/svg">
<path fill-rule="evenodd" clip-rule="evenodd" d="M28.9833 37H0.616667C0.276115 37 0 36.7239 0 36.3833V0.616667C0 0.276115 0.276115 0 0.616667 0H22.8167C22.8229 0 22.8289 0.0014588 22.8347 0.00286084C22.842 0.00464366 22.8489 0.00633469 22.8555 0.00481771C22.9079 0.00873208 22.9594 0.0192708 23.0091 0.0358317C23.0302 0.0418539 23.0506 0.0490804 23.0708 0.0572103C23.1373 0.0876221 23.1982 0.129175 23.2503 0.180664L29.4169 6.34733C29.4684 6.39972 29.5103 6.46085 29.5401 6.528C29.5461 6.54131 29.5503 6.5542 29.5546 6.56745L29.5606 6.58551C29.5783 6.6373 29.5892 6.69119 29.5925 6.7457C29.5928 6.75189 29.5945 6.75781 29.5962 6.76371C29.5981 6.77015 29.6 6.77658 29.6 6.78333V8.01667H28.3667V7.4H22.8167C22.4761 7.4 22.2 7.12389 22.2 6.78333V1.23333H1.23333V35.7667H28.3667V20.35H29.6V36.3833C29.6 36.7239 29.3239 37 28.9833 37ZM27.4947 6.16667L23.4333 2.10534V6.16667H27.4947ZM12.3334 22.8167H4.31671V24.05H12.3334V22.8167ZM4.31671 30.2166H9.86671V31.4499H4.31671V30.2166ZM10.4834 26.5166H4.31671V27.7499H10.4834V26.5166ZM4.31671 15.4167H11.7167V16.6501H4.31671V15.4167ZM19.7333 15.4167H12.95V16.6501H19.7333V15.4167ZM4.31671 19.1167H16.0334V20.35H4.31671V19.1167ZM16.65 11.7166H4.31671V12.9499H16.65V11.7166ZM17.8834 11.7166H23.4334V12.9499H17.8834V11.7166ZM9.25005 8.0166H4.31671V9.24993H9.25005V8.0166ZM10.4833 8.0166H12.95V9.24993H10.4833V8.0166ZM27.7814 10.1973C28.386 9.58846 29.2095 9.24731 30.0674 9.25002C31.3748 9.25032 32.5536 10.0377 33.054 11.2455C33.5545 12.4535 33.2781 13.8437 32.354 14.7687L24.306 22.8167H25.2834V24.05H23.072L20.6054 26.5167H25.2834V27.75H19.372L17.086 30.036C17.0068 30.1152 16.9078 30.1712 16.7994 30.1983L11.8661 31.4316C11.6559 31.484 11.4337 31.4223 11.2804 31.269C11.1274 31.1158 11.066 30.8936 11.1184 30.6834L12.3517 25.7501C12.3791 25.642 12.4351 25.5429 12.514 25.464L27.7814 10.1973ZM13.2843 27.1062L12.564 29.9854L15.4426 29.2646L13.2843 27.1062ZM13.822 25.9L16.65 28.728L29.9614 15.4167L27.1334 12.5893L13.822 25.9ZM30.8334 14.5447L31.4814 13.8973C32.2477 13.1138 32.2407 11.86 31.4663 11.0853C30.6916 10.3102 29.4377 10.3027 28.654 11.0687L28.006 11.7167L30.8334 14.5447Z" fill="#E0286A"/>
</svg>
