<svg width="37" height="37" viewBox="0 0 37 37" fill="none" xmlns="http://www.w3.org/2000/svg">
<path fill-rule="evenodd" clip-rule="evenodd" d="M29.929 13.2582C31.3029 12.073 31.6891 10.0381 30.7493 8.41022C29.8094 6.78238 27.854 6.09938 26.1407 6.69667L23.075 1.38673C22.7049 0.745715 22.1074 0.287176 21.3924 0.0955945C20.6773 -0.0959151 19.9307 0.00229679 19.2897 0.372452C18.086 1.06738 17.6011 2.53514 18.0982 3.79072L13.932 7.63507C13.6387 7.90571 13.6203 8.36295 13.891 8.65629C14.1616 8.94969 14.6188 8.96798 14.9121 8.69734L18.8164 5.09472L27.6541 20.4022L11.0717 25.5674L6.052 16.8728L10.1328 13.1074C10.4261 12.8368 10.4445 12.3795 10.1739 12.0862C9.90322 11.7928 9.44598 11.7745 9.15272 12.0451L5.08382 15.7997C4.87483 15.6707 4.64588 15.5714 4.40205 15.506C3.74528 15.3299 3.05932 15.4203 2.47055 15.7604C1.25508 16.4621 0.837082 18.0219 1.53887 19.2374L1.87058 19.812C0.00983324 21.1791 -0.566358 23.7637 0.614425 25.8088C1.22798 26.8714 2.21862 27.6316 3.40396 27.9492C3.79977 28.0553 4.20136 28.1077 4.60043 28.1077C5.23002 28.1077 5.85297 27.9766 6.43624 27.7197L6.76774 28.2938C7.10768 28.8826 7.65656 29.3038 8.31333 29.4797C8.53266 29.5385 8.7551 29.5676 8.97624 29.5676C9.41729 29.5676 9.85263 29.4519 10.2448 29.2255C10.5859 29.0286 10.864 28.7641 11.0724 28.4587L15.5814 36.2687C15.8454 36.7257 16.3257 36.9816 16.819 36.9816C17.0608 36.9816 17.3057 36.9201 17.5298 36.7907L20.8573 34.8696C21.2586 34.6378 21.5231 34.2238 21.5647 33.7622C21.6063 33.3007 21.4199 32.846 21.0663 32.5463L18.6486 30.4973L15.8222 25.6017L28.4252 21.676C28.9607 22.3515 29.7706 22.7242 30.5998 22.7242C31.0696 22.7242 31.5455 22.6048 31.9807 22.3535C33.3039 21.5895 33.7589 19.8914 32.9949 18.5682L29.929 13.2582ZM3.77795 26.553C2.96551 26.3354 2.28656 25.8144 1.86603 25.086C1.08438 23.7321 1.42585 22.0328 2.59926 21.0741L5.70728 26.4573C5.0938 26.6908 4.42438 26.7262 3.77795 26.553ZM10.0345 27.3058C9.95843 27.5896 9.77639 27.8268 9.52193 27.9737C9.26748 28.1207 8.97089 28.1597 8.68724 28.0837C8.40344 28.0076 8.16626 27.8257 8.01927 27.5711L2.79048 18.5146C2.64356 18.2602 2.60453 17.9637 2.68056 17.6799C2.75659 17.3961 2.93863 17.1589 3.19308 17.012C3.36262 16.9141 3.55074 16.8641 3.74131 16.8641C3.83684 16.8641 3.93303 16.8767 4.02778 16.902C4.31157 16.9781 4.54875 17.16 4.69575 17.4146L9.92453 26.4711C10.0715 26.7256 10.1106 27.022 10.0345 27.3058ZM17.4595 31.3286C17.5011 31.4006 17.5547 31.4649 17.6181 31.5186L20.111 33.6314L16.8234 35.5295L11.8126 26.8505L14.4074 26.0422L17.4595 31.3286ZM29.4976 9.13289C30.0366 10.0666 29.8783 11.2146 29.1854 11.9702L26.8844 7.9847C27.885 7.76241 28.9586 8.19919 29.4976 9.13289ZM31.8755 20.2968C31.7839 20.6388 31.5645 20.9247 31.2578 21.1018C30.9512 21.2789 30.5938 21.326 30.2519 21.2342C29.9099 21.1426 29.624 20.9232 29.4469 20.6165L19.5271 3.43501C19.1617 2.80195 19.3793 1.98959 20.0124 1.62406C20.2167 1.50612 20.4434 1.44585 20.6731 1.44585C20.7883 1.44585 20.9042 1.46102 21.0184 1.49159C21.3604 1.5833 21.6462 1.80263 21.8233 2.10934L31.7431 19.2908C31.9201 19.5975 31.9671 19.9547 31.8755 20.2968ZM32.6388 8.0685C32.7614 8.0685 32.8857 8.03721 32.9995 7.97152L35.4403 6.5623C35.786 6.3627 35.9044 5.92078 35.7048 5.57512C35.5053 5.22946 35.0632 5.11094 34.7177 5.31062L32.2768 6.71984C31.9312 6.91945 31.8127 7.36136 32.0123 7.70702C32.1461 7.93886 32.389 8.0685 32.6388 8.0685ZM29.1045 4.83822C29.0426 4.83822 28.9796 4.83012 28.917 4.81336C28.5314 4.71002 28.3026 4.31377 28.406 3.9283L29.1533 1.13934C29.2567 0.753793 29.6529 0.524993 30.0384 0.628336C30.424 0.731679 30.6528 1.12792 30.5495 1.5134L29.8021 4.30235C29.7156 4.62525 29.4236 4.83822 29.1045 4.83822ZM36.4641 12.0443L33.8009 11.3307C33.4156 11.2274 33.0191 11.4562 32.9159 11.8417C32.8125 12.2272 33.0413 12.6235 33.4269 12.7268L36.09 13.4404C36.1527 13.4571 36.2156 13.4652 36.2776 13.4652C36.5966 13.4652 36.8886 13.2523 36.9752 12.9294C37.0785 12.5439 36.8497 12.1476 36.4641 12.0443ZM12.5433 10.8823C12.4089 11.0167 12.2225 11.094 12.0324 11.094C11.8424 11.094 11.6559 11.0167 11.5215 10.8823C11.3871 10.7478 11.3098 10.5614 11.3098 10.3713C11.3098 10.1806 11.3871 9.99483 11.5215 9.86042C11.6559 9.72536 11.8424 9.64868 12.0324 9.64868C12.2225 9.64868 12.4089 9.72536 12.5433 9.86042C12.6777 9.99483 12.7551 10.1813 12.7551 10.3713C12.7551 10.5614 12.6777 10.7478 12.5433 10.8823Z" fill="#E0286A"/>
</svg>
