<svg width="37" height="36" viewBox="0 0 37 36" fill="none" xmlns="http://www.w3.org/2000/svg">
<path fill-rule="evenodd" clip-rule="evenodd" d="M35.7307 15.3461L35.7307 15.346L35.7308 15.3458C36.0737 13.7752 36.4284 12.151 35.8184 10.6799C35.1824 9.14628 33.7542 8.24051 32.3729 7.36463L32.3711 7.36345C31.5901 6.86811 30.8525 6.40028 30.3005 5.84827C29.7482 5.29589 29.2799 4.55761 28.7843 3.77587L28.7841 3.77563C27.9082 2.39455 27.0025 0.966424 25.4691 0.330483C23.9978 -0.279408 22.3738 0.0751781 20.8031 0.418163C19.9091 0.613421 18.9846 0.815289 18.1499 0.815289C17.3152 0.815289 16.3908 0.613421 15.4968 0.418163C13.9262 0.0751781 12.302 -0.279479 10.8308 0.330483C9.29736 0.966301 8.39178 2.39425 7.51593 3.77529L7.51556 3.77587C7.01993 4.55754 6.55165 5.29589 5.99934 5.84827C5.44697 6.40057 4.70854 6.86885 3.92695 7.36449C2.54566 8.24044 1.11739 9.14628 0.481417 10.6799C-0.128545 12.1509 0.226041 13.775 0.569027 15.3457L0.569074 15.3459C0.764318 16.2398 0.966223 17.1643 0.966223 17.9989C0.966223 18.8335 0.764318 19.758 0.569075 20.6519L0.569072 20.652L0.569027 20.6522C0.226041 22.2228 -0.128616 23.847 0.481417 25.318C1.11745 26.8517 2.54567 27.7575 3.92687 28.6334L3.92695 28.6335L4.20616 28.811C4.54422 29.0265 4.9931 28.9274 5.20875 28.5893C5.42454 28.2513 5.32533 27.8024 4.98726 27.5867L4.70468 27.4071C3.45923 26.6174 2.2829 25.8713 1.82277 24.7619C1.38746 23.7118 1.67903 22.3765 1.98772 20.9628L1.98787 20.9621L1.98794 20.9618C2.19956 19.9925 2.41839 18.9903 2.41839 17.9989C2.41839 17.0075 2.19958 16.0051 1.98787 15.0357L1.98782 15.0355C1.67909 13.6216 1.38749 12.2861 1.82277 11.236C2.2829 10.1265 3.45923 9.38049 4.70461 8.59074C5.51861 8.07465 6.36012 7.54083 7.02612 6.87497C7.69198 6.20911 8.22579 5.36747 8.74196 4.55346C9.53164 3.30808 10.2777 2.13189 11.3871 1.67184C12.4372 1.23632 13.7729 1.52798 15.187 1.83679L15.1872 1.83682L15.1872 1.83682C16.1564 2.04845 17.1587 2.26731 18.15 2.26731C19.1413 2.26731 20.1436 2.0485 21.113 1.83679L21.1132 1.83674C22.5272 1.52795 23.8629 1.23627 24.9129 1.67184C26.0223 2.13186 26.7681 3.30789 27.5578 4.55316L27.558 4.55346C28.0742 5.36747 28.608 6.20911 29.2739 6.87497C29.9396 7.54068 30.7811 8.0744 31.5948 8.59046L31.5954 8.59081C32.8408 9.38056 34.0171 10.1266 34.4772 11.236C34.9125 12.286 34.621 13.6211 34.3125 15.0347L34.3122 15.0358L34.3121 15.0361C34.1005 16.0054 33.8817 17.0076 33.8817 17.999C33.8817 18.9905 34.1005 19.9928 34.3122 20.9622L34.3123 20.9624C34.621 22.3763 34.9126 23.7118 34.4772 24.7619C34.0171 25.8714 32.8408 26.6174 31.5954 27.4072C30.7814 27.9233 29.9399 28.4571 29.2739 29.1229C28.608 29.7888 28.0742 30.6304 27.558 31.4445C26.7684 32.6898 26.0223 33.866 24.9129 34.3261C23.8628 34.7615 22.5271 34.4699 21.113 34.1611L21.1129 34.1611L21.1128 34.1611C20.1436 33.9495 19.1413 33.7306 18.15 33.7306C17.1587 33.7306 16.1564 33.9494 15.187 34.1611L15.1864 34.1613L15.1864 34.1613C13.7725 34.47 12.4373 34.7616 11.3871 34.3262C10.278 33.8663 9.53222 32.6905 8.74266 31.4457L8.74196 31.4446C8.5351 31.1184 8.32121 30.7813 8.10042 30.458C7.87409 30.1269 7.42219 30.0421 7.0913 30.2683C6.7602 30.4945 6.67519 30.9463 6.90145 31.2774C7.10831 31.58 7.30624 31.8919 7.51564 32.2223L7.51595 32.2227C8.39181 33.6037 9.29747 35.0317 10.8309 35.6676C11.4124 35.9087 12.0175 35.9991 12.634 35.9991C13.5774 35.9991 14.547 35.7874 15.4968 35.5798C16.3908 35.3846 17.3153 35.1827 18.15 35.1827C18.9847 35.1827 19.9092 35.3846 20.8032 35.5798C22.3738 35.9228 23.9979 36.2775 25.4691 35.6675C27.0026 35.0316 27.9082 33.6036 28.7841 32.2225L28.7844 32.2221C29.28 31.4404 29.7483 30.7021 30.3006 30.1497C30.853 29.5974 31.5913 29.1291 32.373 28.6335C33.7543 27.7575 35.1825 26.8517 35.8184 25.318C36.4284 23.847 36.0738 22.223 35.7308 20.6523C35.5355 19.7583 35.3336 18.8337 35.3336 17.9991C35.3336 17.1645 35.5355 16.24 35.7307 15.3461ZM25.5382 7.7848C25.7545 7.44716 25.6559 6.998 25.3183 6.78186C23.1793 5.41259 20.7006 4.68872 18.1499 4.68872C10.8101 4.68872 4.8385 10.6602 4.8385 18.0001C4.8385 25.34 10.81 31.3115 18.1499 31.3115C25.4897 31.3115 31.4613 25.34 31.4611 18.0002C31.4611 14.9994 30.4865 12.1667 28.6425 9.80811C28.3957 9.49234 27.9394 9.43644 27.6234 9.68331C27.3074 9.93025 27.2516 10.3865 27.4986 10.7025C29.1409 12.8032 30.009 15.3266 30.009 18C30.009 24.5392 24.689 29.8592 18.1498 29.8592C11.6106 29.8592 6.29067 24.5392 6.29067 18C6.29067 11.4607 11.6107 6.14082 18.1499 6.14082C20.4226 6.14082 22.6306 6.78537 24.5352 8.00481C24.8726 8.22095 25.3219 8.12251 25.5382 7.7848ZM12.3413 24.5347C12.1555 24.5347 11.9696 24.4638 11.8278 24.322C11.5443 24.0384 11.5443 23.5786 11.8278 23.2952L23.445 11.678C23.7286 11.3944 24.1883 11.3944 24.4718 11.678C24.7554 11.9616 24.7554 12.4214 24.4718 12.7048L12.8546 24.322C12.713 24.4637 12.5271 24.5347 12.3413 24.5347ZM14.2775 16.7901C15.7454 16.7901 16.9397 15.5958 16.9397 14.1278C16.9397 12.6598 15.7454 11.4656 14.2775 11.4656C12.8096 11.4656 11.6152 12.6598 11.6152 14.1278C11.6152 15.5958 12.8096 16.7901 14.2775 16.7901ZM14.2775 12.9177C14.9447 12.9177 15.4876 13.4605 15.4876 14.1278C15.4876 14.7952 14.9448 15.338 14.2775 15.338C13.6101 15.338 13.0673 14.7952 13.0673 14.1278C13.0674 13.4605 13.6102 12.9177 14.2775 12.9177ZM24.6845 21.8725C24.6845 23.3404 23.4902 24.5347 22.0223 24.5347C20.5544 24.5347 19.36 23.3404 19.36 21.8725C19.36 20.4045 20.5544 19.2102 22.0223 19.2102C23.4902 19.2102 24.6845 20.4044 24.6845 21.8725ZM23.2324 21.8725C23.2324 21.2051 22.6895 20.6623 22.0223 20.6623C21.355 20.6623 20.8121 21.2051 20.8121 21.8725C20.8121 22.5398 21.355 23.0826 22.0223 23.0826C22.6896 23.0826 23.2324 22.5398 23.2324 21.8725Z" fill="#E0286A"/>
</svg>
