<svg width="73" height="73" viewBox="0 0 73 73" fill="none" xmlns="http://www.w3.org/2000/svg">
<g clip-path="url(#clip0_49_142)">
<path d="M36.354 72.8328C56.4317 72.8328 72.7079 56.5566 72.7079 36.4789C72.7079 16.4011 56.4317 0.124908 36.354 0.124908C16.2762 0.124908 0 16.4011 0 36.4789C0 56.5566 16.2762 72.8328 36.354 72.8328Z" fill="#F38562"/>
<path d="M59.7311 8.67919C59.5697 8.45676 59.3513 8.28206 59.0988 8.17344C43.3529 -4.13709 20.6088 -1.352 8.29838 14.394C-4.012 30.14 -1.22691 52.884 14.5191 65.1944C30.265 77.5047 53.0091 74.7197 65.3195 58.9737C77.4356 43.4763 74.9535 21.1389 59.7311 8.67919ZM67.0178 23.8341C63.2399 20.4188 58.8872 17.6993 54.161 15.8014C54.5306 13.7395 55.9792 12.0351 57.9545 11.3377C61.912 14.7363 65.0164 19.0167 67.0178 23.8341ZM51.1547 14.7518C48.8918 14.0114 46.5752 13.4469 44.2253 13.0637C44.2443 10.3135 44.2537 7.39252 44.2568 4.27551C48.1739 5.23025 51.8832 6.89418 55.201 9.18493C53.1859 10.4503 51.7363 12.4443 51.1547 14.7518ZM41.0957 3.66544C41.0957 6.89626 41.0957 9.90569 41.0609 12.7413C38.8764 12.5398 36.6812 12.4764 34.4887 12.5516C34.1434 9.89917 32.8566 7.45905 30.8628 5.67598C30.1597 5.09407 29.3773 4.61514 28.5393 4.25343C31.0964 3.62069 33.7198 3.29603 36.3539 3.2861C37.9416 3.29884 39.5263 3.42569 41.0957 3.66544ZM22.356 6.42519H22.3875C24.6658 6.13371 26.9689 6.72896 28.8206 8.08794C30.1364 9.31104 30.9999 10.9431 31.2705 12.7191C22.5919 13.3767 14.2276 16.2525 6.97971 21.0711C10.374 14.6453 15.7727 9.50278 22.356 6.42519ZM4.28339 28.0638C4.36015 27.9983 4.42994 27.9252 4.49203 27.8457C7.6532 22.8731 18.7808 17.0659 31.6058 15.8614V15.9309C31.6058 22.6612 23.4024 32.0531 16.8113 39.5926C13.0965 43.41 9.85503 47.6607 7.15694 52.2533C3.12668 44.8577 2.0977 36.1945 4.28339 28.0605V28.0638ZM9.41405 55.794C9.45079 55.6812 9.47406 55.5645 9.48354 55.4462C9.48354 52.7908 14.4214 47.1385 19.1979 41.6728C26.5003 33.3177 34.7732 23.8341 34.7732 15.9311C34.7732 15.8331 34.7542 15.754 34.7511 15.656C36.8455 15.5833 38.9423 15.6424 41.0293 15.8331C40.6594 47.9701 38.4751 54.5549 30.24 68.8847C30.2147 68.9465 30.1936 69.0098 30.1767 69.0744C21.8087 67.4744 14.3753 62.72 9.41405 55.794ZM33.5088 69.5263C41.9397 54.6685 43.8649 46.6676 44.1937 16.2282C46.3796 16.5807 48.5346 17.1029 50.6395 17.7899C50.611 18.2135 50.5762 18.6308 50.5762 19.0922C51.024 25.6208 52.7569 31.9968 55.6753 37.854C59.042 45.9215 62.2127 53.5464 58.6785 60.9657C52.5894 66.5602 44.623 69.6669 36.354 69.6717C35.4055 69.6717 34.4571 69.6084 33.5088 69.5263ZM63.3254 55.7623C63.869 49.2975 61.2041 42.893 58.5835 36.6432C55.8496 31.1611 54.2049 25.2006 53.7405 19.0921C53.7405 19.0416 53.7405 19.0067 53.7405 18.9562C59.641 21.4627 64.8527 25.3507 68.9364 30.2923C70.6685 39.193 68.6373 48.4135 63.3254 55.7623Z" fill="#37474F"/>
<path d="M36.354 72.8328C16.2762 72.8328 0 56.5567 0 36.4789C0 16.4011 16.2762 0.124908 36.354 0.124908C56.4318 0.124908 72.7079 16.4011 72.7079 36.4789C72.6854 56.5473 56.4224 72.8103 36.354 72.8328ZM36.354 3.28608C18.0221 3.28608 3.16117 18.147 3.16117 36.4789C3.16117 54.8108 18.0221 69.6717 36.354 69.6717C54.6859 69.6717 69.5468 54.8108 69.5468 36.4789C69.5259 18.1557 54.6773 3.30697 36.354 3.28608Z" fill="#092D4B"/>
<path d="M70.4477 31.1806C69.9755 31.1808 69.5278 30.9698 69.2275 30.6052C60.4411 20.0086 46.9871 14.437 33.2813 15.7192C19.7545 16.5443 7.80818 22.6548 4.49527 27.8457C4.02569 28.5824 3.04768 28.7989 2.31092 28.3293C1.57416 27.8597 1.35767 26.8817 1.82726 26.145C5.5859 20.2556 17.8231 13.5001 33.0918 12.5518C47.7994 11.2402 62.214 17.2317 71.6587 28.5823C72.2139 29.2559 72.1179 30.2521 71.4443 30.8072C71.1611 31.0406 70.8055 31.1682 70.4386 31.168L70.4477 31.1806Z" fill="#092D4B"/>
<path d="M7.90292 57.0269C7.02998 57.0269 6.32227 56.3192 6.32227 55.4462C6.32227 51.6053 10.9534 46.304 16.8176 39.5927C23.4087 32.0531 31.6121 22.6612 31.6121 15.9309C31.8935 13.0317 30.8706 10.1575 28.8208 8.08795C26.9694 6.72838 24.666 6.13298 22.3877 6.4252C21.5314 6.59427 20.6999 6.03711 20.5309 5.18076C20.3618 4.32442 20.9189 3.49297 21.7753 3.32389C21.8064 3.31767 21.8378 3.31248 21.8692 3.30833C25.0646 2.85489 28.3079 3.70857 30.8661 5.67613C33.6468 8.33141 35.0822 12.0988 34.7734 15.9311C34.7734 23.8341 26.5005 33.3177 19.1981 41.6728C14.4246 47.1385 9.48358 52.7908 9.48358 55.4462C9.48358 56.3192 8.77587 57.0269 7.90292 57.0269Z" fill="#092D4B"/>
<path d="M31.6121 71.2524C30.7392 71.2531 30.0309 70.546 30.0303 69.673C30.03 69.3964 30.1024 69.1245 30.2402 68.8846C39.4552 52.8572 41.0959 46.5442 41.0959 3.2861C41.0959 2.41316 41.8036 1.70544 42.6766 1.70544C43.5495 1.70544 44.2572 2.41316 44.2572 3.2861C44.2572 45.5137 42.9928 53.0469 32.9843 70.4588C32.702 70.9501 32.1786 71.2528 31.6121 71.2524Z" fill="#092D4B"/>
<path d="M60.0632 63.3492C59.1903 63.3492 58.4826 62.6416 58.4826 61.7687C58.4826 61.53 58.5367 61.2943 58.6407 61.0795C62.2635 53.6253 59.0644 45.9625 55.6787 37.854C52.7602 31.9968 51.0274 25.6208 50.5796 19.0922C50.5796 8.79936 58.2739 8.02792 58.3531 8.02792C59.2183 7.96909 59.9734 8.60939 60.057 9.47255C60.1298 10.3425 59.4837 11.1067 58.6137 11.1795C58.6133 11.1795 58.6128 11.1796 58.6122 11.1796C58.1317 11.2334 53.7408 11.9067 53.7408 19.0826C54.2114 25.1884 55.8604 31.1454 58.5964 36.6243C62.1022 45.0268 65.7281 53.7107 61.4858 62.4482C61.2244 62.9973 60.6712 63.3476 60.0632 63.3492Z" fill="#092D4B"/>
</g>
<defs>
<clipPath id="clip0_49_142">
<rect width="73" height="73" fill="white"/>
</clipPath>
</defs>
</svg>
