<svg width="71" height="71" viewBox="0 0 71 71" fill="none" xmlns="http://www.w3.org/2000/svg">
<path d="M59.0077 58.5861C59.0077 58.5861 55.755 23.5931 54.3039 17.7888C52.5866 10.9218 48.757 4.93117 41.3331 3.58106C40.4046 3.41243 30.5943 3.41243 29.6658 3.58106C26.3854 4.1779 23.8072 5.68111 21.8025 7.76562C21.8025 7.76562 16.6406 13.3125 15.5912 23.2969C14.8301 30.5366 14.3853 37.833 13.7485 45.0783C13.3513 49.5946 12.7623 54.1197 11.9923 58.5872C11.6373 60.6506 10.8031 66.0023 8.875 67.1693H62.3613C60.4332 66.0023 59.3627 60.6495 59.0077 58.5861Z" fill="#5C4124"/>
<path d="M34.9452 7.76563C42.9915 7.76563 50.1447 12.5093 54.7087 19.8656C54.5634 18.9958 54.4269 18.2814 54.3038 17.7899C52.5865 10.9229 48.7569 4.93228 41.333 3.58217C40.4044 3.41355 30.5942 3.41355 29.6657 3.58217C26.3853 4.17791 23.8071 5.68111 21.8024 7.76563C21.8024 7.76563 18.5853 11.2424 16.7148 17.6213C21.2699 11.5597 27.7498 7.76563 34.9452 7.76563Z" fill="#634627"/>
<path d="M51.8669 27.7344H18.8597C18.8597 27.7344 18.2262 33.8359 22.1878 47.7031C24.4066 55.4687 21.0784 59.9062 16.6409 63.2344C14.745 64.6566 9.45996 67.9093 9.45996 67.9093H62.1253C62.1253 67.9093 52.1409 65.4531 49.9222 62.125C47.7034 58.7969 47.4294 48.8125 51.8669 27.7344Z" fill="#5C3D1D"/>
<path d="M63.2344 68.7812V66.5625L52.1273 65.9091C47.7741 65.6528 44.375 62.0485 44.375 57.6875V43.2656H26.625V57.6875C26.625 62.0485 23.2259 65.6528 18.8727 65.9091L7.76562 66.5625V68.7812H63.2344Z" fill="#FBC188"/>
<path d="M35.5 17.75C32.1719 23.2969 18.8594 27.8464 18.8594 27.8464C20.5723 33.8038 22.0155 41.8989 26.625 46.4495V46.2465V46.4495C28.7772 48.574 31.6161 49.9285 35.5 49.9285C47.7031 49.9285 49.041 36.2655 51.8666 27.7344C51.8666 27.7344 39.4949 11.0915 35.5 17.75Z" fill="#FBC997"/>
<path d="M13.5035 10.9029C15.2364 9.17009 15.2364 6.36005 13.5035 4.6272L12.2033 3.32812L10.9031 4.62831C9.1703 6.36116 9.1703 9.1712 10.9031 10.904L12.2033 12.2031L13.5035 10.9029Z" fill="#FC984A"/>
<path d="M10.9031 13.5033C9.1703 15.2362 9.1703 18.0462 10.9031 19.779L12.2033 21.0781L13.5035 19.7779C15.2364 18.0451 15.2364 15.235 13.5035 13.5022L12.2033 12.2031L10.9031 13.5033Z" fill="#FC984A"/>
<path d="M10.9029 13.5033L12.2031 12.2031L10.9029 10.9029C9.17009 9.17009 6.36005 9.17009 4.6272 10.9029L3.32812 12.2031L4.62831 13.5033C6.36116 15.2362 9.17009 15.2362 10.9029 13.5033Z" fill="#FC984A"/>
<path d="M13.5033 13.5033C15.2362 15.2362 18.0462 15.2362 19.779 13.5033L21.0781 12.2031L19.7779 10.9029C18.0451 9.17009 15.235 9.17009 13.5022 10.9029L12.2031 12.2031L13.5033 13.5033Z" fill="#FC984A"/>
<path d="M61.2067 44.1842C62.9395 42.4513 62.9395 39.6413 61.2067 37.9085L59.9065 36.6094L58.6063 37.9096C56.8734 39.6424 56.8734 42.4525 58.6063 44.1853L59.9065 45.4844L61.2067 44.1842Z" fill="#FC984A"/>
<path d="M58.6063 46.7846C56.8734 48.5174 56.8734 51.3275 58.6063 53.0603L59.9065 54.3594L61.2067 53.0592C62.9395 51.3263 62.9395 48.5163 61.2067 46.7835L59.9065 45.4844L58.6063 46.7846Z" fill="#FC984A"/>
<path d="M58.6061 44.1842C56.8732 42.4513 54.0632 42.4513 52.3303 44.1842L51.0312 45.4844L52.3314 46.7846C54.0643 48.5174 56.8743 48.5174 58.6072 46.7846L59.9062 45.4844L58.6061 44.1842Z" fill="#FC984A"/>
<path d="M61.2064 44.1842L59.9062 45.4844L61.2064 46.7846C62.9393 48.5174 65.7493 48.5174 67.4822 46.7846L68.7812 45.4844L67.4811 44.1842C65.7482 42.4513 62.9393 42.4513 61.2064 44.1842Z" fill="#FC984A"/>
<path d="M29.8598 4.6738C30.8083 4.52403 40.1892 4.52403 41.1355 4.67269C47.2138 5.77874 51.283 10.2828 53.2277 18.0584C54.6666 23.8105 55.1203 29.6236 55.493 35.5688L57.7074 35.4301C57.3424 29.6192 56.862 23.4489 55.3788 17.5204C53.2344 8.94489 48.4463 3.74636 41.5316 2.48944C40.461 2.29419 30.5377 2.29419 29.4671 2.48944C26.1445 3.09294 23.2968 4.60946 21.0015 6.99572L22.6001 8.53442C24.567 6.49206 27.011 5.19299 29.8598 4.6738Z" fill="#092D4B"/>
<path d="M65.4531 57.6875C63.6182 57.6875 62.125 59.1807 62.125 61.0156V62.125H64.3438V61.0156C64.3438 60.4032 64.8408 59.9062 65.4531 59.9062C66.0655 59.9062 66.5625 60.4032 66.5625 61.0156V61.6358C66.5625 62.4256 66.2996 63.2066 65.8248 63.8301C65.7693 63.9011 65.7127 63.9688 65.6473 64.0287C64.8285 64.7775 63.281 65.9279 62.0984 65.2135C60.9491 64.519 60.5342 61.4727 60.2857 59.6511C60.2213 59.1852 60.1636 58.758 60.1015 58.3997L57.9149 58.7747C57.9726 59.113 58.027 59.5135 58.0869 59.9517C58.3121 61.6091 58.6049 63.6615 59.3693 65.2257L52.1917 64.803C48.4309 64.5812 45.4844 61.4549 45.4844 57.6875V46.5649C48.5829 42.8895 50.0239 37.5523 51.2753 32.8652C51.7324 31.1579 52.1628 29.5438 52.6465 28.0827C52.7597 27.7432 52.7009 27.3705 52.4901 27.0821C51.5882 25.8407 43.5962 15.0686 38.0682 15.0686C38.0072 15.0686 37.9462 15.0697 37.8852 15.072C36.9145 15.1152 35.5466 15.5146 34.5482 17.1787C31.4674 22.3129 18.6286 26.7526 18.4999 26.7969C17.9397 26.9889 17.6291 27.5846 17.7922 28.1537C18.0806 29.1555 18.3602 30.2183 18.6486 31.3154C20.0065 36.4663 21.6783 42.793 25.5134 46.8689V57.6875C25.5134 61.4549 22.5669 64.5812 18.805 64.8019L11.6274 65.2246C12.3917 63.6604 12.6846 61.608 12.9098 59.9506C12.9708 59.5124 13.0252 59.1119 13.0817 58.7747C13.8583 54.2629 14.4529 49.6867 14.8501 45.1749C15.0731 42.6388 15.2306 40.0562 15.3815 37.5579C15.6644 32.9118 15.9561 28.106 16.6839 23.4688L14.4907 23.1238C13.7474 27.8653 13.4512 32.7243 13.1672 37.4225C13.0152 39.9064 12.8599 42.4746 12.6391 44.9807C12.2475 49.4326 11.6617 53.9467 10.8952 58.3997C10.833 58.758 10.7754 59.1852 10.711 59.6511C10.4625 61.4727 10.0476 64.519 8.8983 65.2135C8.22934 65.6184 7.36292 65.4742 6.32122 64.7919C5.74102 64.4103 5.26731 63.8234 4.95114 63.0913L4.78362 62.7041C4.55398 62.1672 4.4375 61.5992 4.4375 61.0156C4.4375 60.4032 4.9345 59.9062 5.54688 59.9062C6.15925 59.9062 6.65625 60.4032 6.65625 61.0156V62.125H8.875V61.0156C8.875 59.1807 7.38178 57.6875 5.54688 57.6875C3.71197 57.6875 2.21875 59.1807 2.21875 61.0156C2.21875 61.9053 2.39736 62.7684 2.75014 63.5838L2.91766 63.971C3.40578 65.1026 4.16459 66.0278 5.10978 66.6457C6.14483 67.3246 7.04897 67.5942 7.82997 67.6419L7.83108 67.6685L8.02411 67.6575C8.04297 67.6575 8.06516 67.6619 8.08402 67.6619C8.25375 67.6619 8.41239 67.6452 8.5677 67.6253L18.9381 67.0151C23.8704 66.7267 27.7344 62.6287 27.7344 57.6875V48.7781C29.7856 50.1837 32.3194 51.0379 35.5 51.0379C38.756 51.0379 41.2687 50.1282 43.2656 48.6561V57.6875C43.2656 62.6287 47.1296 66.7267 52.063 67.0162L62.3624 67.622C62.5455 67.6486 62.7307 67.6652 62.9182 67.6652C62.947 67.6652 62.9759 67.6608 63.0047 67.6597L63.17 67.6697L63.1711 67.6497C64.4314 67.5709 65.787 66.9064 67.1449 65.6661C67.3069 65.5175 67.4489 65.3577 67.5865 65.1791C68.3564 64.1662 68.7812 62.9071 68.7812 61.6358V61.0156C68.7812 59.1807 67.288 57.6875 65.4531 57.6875ZM20.7952 30.7485C20.5967 29.9942 20.4025 29.2553 20.2062 28.542C23.43 27.3439 33.4665 23.2958 36.4518 18.3213C36.9788 17.4427 37.5468 17.3085 37.9839 17.2885C41.1889 17.1687 47.1007 23.562 50.3634 27.9352C49.9307 29.3008 49.5425 30.7596 49.1331 32.2939C46.9621 40.419 44.7178 48.8203 35.5 48.8203C25.5611 48.8203 23.0295 39.2197 20.7952 30.7485Z" fill="#092D4B"/>
<path d="M3.84377 14.2876C4.9243 15.3693 6.34541 15.9095 7.76541 15.9095C8.0361 15.9095 8.30568 15.8718 8.57415 15.8319C8.32898 17.5082 8.83152 19.2754 10.1184 20.5623L11.4186 21.8625C11.6349 22.0788 11.9189 22.1875 12.2029 22.1875C12.4869 22.1875 12.7709 22.0788 12.9872 21.8625L14.2874 20.5623C15.5743 19.2754 16.078 17.5082 15.8317 15.8319C16.1001 15.8707 16.3697 15.9095 16.6404 15.9095C18.0604 15.9095 19.4815 15.3693 20.562 14.2876L21.8622 12.9875C22.296 12.5537 22.296 11.8526 21.8622 11.4188L20.562 10.1186C19.2752 8.83174 17.5079 8.32808 15.8317 8.57436C16.0768 6.8981 15.5743 5.13086 14.2874 3.84399L12.9872 2.5438C12.5535 2.11003 11.8523 2.11003 11.4186 2.5438L10.1184 3.84399C8.83152 5.13086 8.32787 6.8981 8.57415 8.57436C6.89788 8.32919 5.13065 8.83174 3.84377 10.1186L2.54359 11.4188C2.10982 11.8526 2.10982 12.5537 2.54359 12.9875L3.84377 14.2876ZM13.6928 16.6406C13.6928 17.5303 13.3467 18.3657 12.7188 18.9936L12.2029 19.5095L11.6871 18.9936C11.0591 18.3657 10.713 17.5303 10.713 16.6406C10.713 15.7509 11.0591 14.9155 11.6871 14.2876L12.2029 13.7718L12.7188 14.2876C13.3467 14.9155 13.6928 15.7509 13.6928 16.6406ZM18.9934 11.6873L19.5093 12.2031L18.9934 12.719C17.7365 13.9759 15.5443 13.9759 14.2874 12.719L13.7716 12.2031L14.2874 11.6873C15.5443 10.4303 17.7365 10.4303 18.9934 11.6873ZM10.713 7.76563C10.713 6.87591 11.0591 6.04055 11.6871 5.41264L12.2029 4.89678L12.7188 5.41264C13.3467 6.04055 13.6928 6.87591 13.6928 7.76563C13.6928 8.65535 13.3467 9.49071 12.7188 10.1186L12.2029 10.6345L11.6871 10.1186C11.0591 9.49071 10.713 8.65535 10.713 7.76563ZM5.41243 11.6873C6.66935 10.4303 8.86148 10.4303 10.1184 11.6873L10.6343 12.2031L10.1184 12.719C8.86148 13.9759 6.66935 13.9759 5.41243 12.719L4.89657 12.2031L5.41243 11.6873Z" fill="#092D4B"/>
<path d="M69.5653 44.7L68.2652 43.3999C66.9783 42.113 65.2111 41.6093 63.5348 41.8556C63.78 40.1793 63.2774 38.4121 61.9905 37.1252L60.6904 35.825C60.2566 35.3913 59.5555 35.3913 59.1217 35.825L57.8215 37.1252C56.5346 38.4121 56.031 40.1793 56.2773 41.8556C54.601 41.6104 52.8338 42.113 51.5469 43.3999L50.2467 44.7C49.8129 45.1338 49.8129 45.8349 50.2467 46.2687L51.5469 47.5689C52.6285 48.6505 54.0485 49.1908 55.4685 49.1908C55.7392 49.1908 56.0088 49.1531 56.2773 49.1131C56.0321 50.7894 56.5346 52.5566 57.8215 53.8435L59.1217 55.1437C59.338 55.36 59.622 55.4687 59.906 55.4687C60.19 55.4687 60.474 55.36 60.6904 55.1437L61.9905 53.8435C63.2774 52.5566 63.7811 50.7894 63.5348 49.1131C63.8033 49.152 64.0728 49.1908 64.3435 49.1908C65.7635 49.1908 67.1846 48.6505 68.2652 47.5689L69.5653 46.2687C69.9991 45.8349 69.9991 45.1338 69.5653 44.7ZM58.4161 41.0469C58.4161 40.1572 58.7623 39.3218 59.3902 38.6939L59.906 38.178L60.4219 38.6939C61.0498 39.3218 61.3959 40.1572 61.3959 41.0469C61.3959 41.9366 61.0498 42.7719 60.4219 43.3999L59.906 43.9157L59.3902 43.3999C58.7623 42.7719 58.4161 41.9366 58.4161 41.0469ZM53.1156 46.0002L52.5997 45.4844L53.1156 44.9685C54.3725 43.7116 56.5646 43.7116 57.8215 44.9685L58.3374 45.4844L57.8215 46.0002C56.5646 47.2572 54.3725 47.2572 53.1156 46.0002ZM61.3959 49.9219C61.3959 50.8116 61.0498 51.6469 60.4219 52.2748L59.906 52.7907L59.3902 52.2748C58.7623 51.6469 58.4161 50.8116 58.4161 49.9219C58.4161 49.0321 58.7623 48.1968 59.3902 47.5689L59.906 47.053L60.4219 47.5689C61.0498 48.1968 61.3959 49.0321 61.3959 49.9219ZM66.6965 46.0002C65.4396 47.2572 63.2475 47.2572 61.9905 46.0002L61.4747 45.4844L61.9905 44.9685C63.2475 43.7116 65.4396 43.7116 66.6965 44.9685L67.2124 45.4844L66.6965 46.0002Z" fill="#092D4B"/>
<path d="M57.6875 2.21875H59.9062V4.4375H57.6875V2.21875Z" fill="#092D4B"/>
<path d="M59.9062 4.4375H62.125V6.65625H59.9062V4.4375Z" fill="#092D4B"/>
<path d="M55.4688 4.4375H57.6875V6.65625H55.4688V4.4375Z" fill="#092D4B"/>
<path d="M57.6875 6.65625H59.9062V8.875H57.6875V6.65625Z" fill="#092D4B"/>
<path d="M4.4375 27.7344H6.65625V29.9531H4.4375V27.7344Z" fill="#092D4B"/>
<path d="M6.65625 29.9531H8.875V32.1719H6.65625V29.9531Z" fill="#092D4B"/>
<path d="M2.21875 29.9531H4.4375V32.1719H2.21875V29.9531Z" fill="#092D4B"/>
<path d="M4.4375 32.1719H6.65625V34.3906H4.4375V32.1719Z" fill="#092D4B"/>
<path d="M64.3438 13.3125H66.5625V15.5312H64.3438V13.3125Z" fill="#092D4B"/>
<path d="M66.5625 15.5312H68.7812V17.75H66.5625V15.5312Z" fill="#092D4B"/>
<path d="M62.125 15.5312H64.3438V17.75H62.125V15.5312Z" fill="#092D4B"/>
<path d="M64.3438 17.75H66.5625V19.9688H64.3438V17.75Z" fill="#092D4B"/>
</svg>
