<svg width="78" height="78" viewBox="0 0 78 78" fill="none" xmlns="http://www.w3.org/2000/svg">
<path d="M9.54083 31.8967L3.65625 37.7812V54.8438C3.65625 55.4902 3.91306 56.1102 4.37018 56.5673C4.8273 57.0244 5.44728 57.2812 6.09375 57.2812H71.9062C72.5527 57.2812 73.1727 57.0244 73.6298 56.5673C74.0869 56.1102 74.3438 55.4902 74.3438 54.8438V37.7812L68.4592 31.8967C68.0065 31.444 67.4691 31.0849 66.8776 30.8399C66.2861 30.5948 65.6521 30.4687 65.0119 30.4688H12.9881C12.3479 30.4687 11.7139 30.5948 11.1224 30.8399C10.531 31.0849 9.99352 31.444 9.54083 31.8967Z" fill="#7FAED5"/>
<path d="M52.1061 10.9688H25.8939C23.7195 10.9688 21.6075 11.6956 19.8936 13.0338C18.1797 14.3719 16.9624 16.2446 16.435 18.3541L13.4062 30.4688H64.5938L61.565 18.3541C61.0376 16.2446 59.8203 14.3719 58.1064 13.0338C56.3925 11.6956 54.2805 10.9688 52.1061 10.9688Z" fill="#7FAED4"/>
<path d="M52.2562 15.8438H25.7438C24.6566 15.8437 23.6006 16.2072 22.7436 16.8762C21.8867 17.5453 21.278 18.4817 21.0143 19.5364L18.2812 30.4688H59.7188L56.9857 19.5364C56.722 18.4817 56.1133 17.5453 55.2564 16.8762C54.3994 16.2072 53.3434 15.8437 52.2562 15.8438Z" fill="#CADFEB"/>
<path d="M6.09375 57.2812H20.7188V64.5938C20.7188 65.2402 20.4619 65.8602 20.0048 66.3173C19.5477 66.7744 18.9277 67.0312 18.2812 67.0312H8.53125C7.88478 67.0312 7.2648 66.7744 6.80768 66.3173C6.35056 65.8602 6.09375 65.2402 6.09375 64.5938V57.2812Z" fill="#738E99"/>
<path d="M3.65625 52.4062H74.3438V54.8438C74.3438 55.4902 74.0869 56.1102 73.6298 56.5673C73.1727 57.0244 72.5527 57.2812 71.9062 57.2812H6.09375C5.44728 57.2812 4.8273 57.0244 4.37018 56.5673C3.91306 56.1102 3.65625 55.4902 3.65625 54.8438V52.4062Z" fill="#7FAED4"/>
<path d="M50.6494 49.9688H27.3506C26.839 49.9687 26.3404 50.1297 25.9254 50.4288C25.5103 50.7279 25.1999 51.1501 25.0382 51.6354L23.1562 57.2812H54.8438L52.9618 51.6354C52.8001 51.1501 52.4897 50.7279 52.0746 50.4288C51.6596 50.1297 51.161 49.9687 50.6494 49.9688Z" fill="#CADFEB"/>
<path d="M28.0312 45.0938H49.9688V49.9688H28.0312V45.0938Z" fill="#CADFEB"/>
<path d="M32.9062 45.0938H45.0938V52.4062H32.9062V45.0938Z" fill="#E9EEF2"/>
<path d="M8.53125 40.2188H20.7188V45.0938C20.7188 45.7402 20.4619 46.3602 20.0048 46.8173C19.5477 47.2744 18.9277 47.5312 18.2812 47.5312H10.9688C10.3223 47.5312 9.7023 47.2744 9.24518 46.8173C8.78806 46.3602 8.53125 45.7402 8.53125 45.0938V40.2188Z" fill="#FFD33A"/>
<path d="M57.2812 40.2188H69.4688V45.0938C69.4688 45.7402 69.2119 46.3602 68.7548 46.8173C68.2977 47.2744 67.6777 47.5312 67.0312 47.5312H59.7188C59.0723 47.5312 58.4523 47.2744 57.9952 46.8173C57.5381 46.3602 57.2812 45.7402 57.2812 45.0938V40.2188Z" fill="#FFD33A"/>
<path d="M57.2812 57.2812H71.9062V64.5938C71.9062 65.2402 71.6494 65.8602 71.1923 66.3173C70.7352 66.7744 70.1152 67.0312 69.4688 67.0312H59.7188C59.0723 67.0312 58.4523 66.7744 57.9952 66.3173C57.5381 65.8602 57.2812 65.2402 57.2812 64.5938V57.2812Z" fill="#738E99"/>
<path d="M20.7188 40.2188H57.2812V45.0938H20.7188V40.2188Z" fill="#7FAED4"/>
<path d="M8.53125 45.0938L3.65625 42.6562V37.7812L8.53125 40.2188V45.0938Z" fill="#7FAED4"/>
<path d="M69.4688 45.0938L74.3438 42.6562V37.7812L69.4688 40.2188V45.0938Z" fill="#7FAED4"/>
<path d="M6.09375 23.1562H8.53125C9.82418 23.1562 11.0642 23.6699 11.9784 24.5841C12.8926 25.4983 13.4062 26.7383 13.4062 28.0312V30.4688H6.09375C5.44728 30.4688 4.8273 30.2119 4.37018 29.7548C3.91306 29.2977 3.65625 28.6777 3.65625 28.0312V25.5938C3.65625 24.9473 3.91306 24.3273 4.37018 23.8702C4.8273 23.4131 5.44728 23.1562 6.09375 23.1562Z" fill="#7FAED4"/>
<path d="M69.4688 23.1562H71.9062C72.5527 23.1562 73.1727 23.4131 73.6298 23.8702C74.0869 24.3273 74.3438 24.9473 74.3438 25.5938V28.0312C74.3438 28.6777 74.0869 29.2977 73.6298 29.7548C73.1727 30.2119 72.5527 30.4688 71.9062 30.4688H64.5938V28.0312C64.5938 26.7383 65.1074 25.4983 66.0216 24.5841C66.9358 23.6699 68.1758 23.1562 69.4688 23.1562Z" fill="#7FAED4"/>
<path d="M71.9062 21.9375H69.4688C68.4647 21.9379 67.4764 22.1865 66.5916 22.661C65.7068 23.1356 64.953 23.8214 64.3972 24.6576L62.7475 18.0584C62.1566 15.6839 60.7877 13.5757 58.859 12.0698C56.9303 10.564 54.553 9.74732 52.1061 9.75001H25.8939C23.447 9.74732 21.0697 10.564 19.141 12.0698C17.2123 13.5757 15.8434 15.6839 15.2525 18.0584L13.6028 24.6576C13.047 23.8214 12.2932 23.1356 11.4084 22.661C10.5236 22.1865 9.53527 21.9379 8.53125 21.9375H6.09375C5.1244 21.9386 4.19507 22.3242 3.50964 23.0096C2.8242 23.6951 2.43863 24.6244 2.4375 25.5938V28.0313C2.43863 29.0006 2.8242 29.9299 3.50964 30.6154C4.19507 31.3008 5.1244 31.6864 6.09375 31.6875H8.02654L2.79444 36.9195C2.68127 37.0326 2.5915 37.167 2.53026 37.3149C2.46901 37.4627 2.43749 37.6212 2.4375 37.7813V54.8438C2.43847 55.5996 2.67327 56.3365 3.10967 56.9536C3.54608 57.5707 4.16272 58.0376 4.875 58.2904V64.5938C4.87609 65.5631 5.26165 66.4925 5.94709 67.1779C6.63254 67.8634 7.56189 68.2489 8.53125 68.25H18.2812C19.2506 68.2489 20.18 67.8634 20.8654 67.1779C21.5509 66.4925 21.9364 65.5631 21.9375 64.5938V58.5H56.0625V64.5938C56.0636 65.5631 56.4491 66.4925 57.1346 67.1779C57.82 67.8634 58.7494 68.2489 59.7188 68.25H69.4688C70.4381 68.2489 71.3675 67.8634 72.0529 67.1779C72.7383 66.4925 73.1239 65.5631 73.125 64.5938V58.2904C73.8373 58.0376 74.4539 57.5707 74.8903 56.9536C75.3267 56.3365 75.5615 55.5996 75.5625 54.8438V37.7813C75.5625 37.6212 75.531 37.4627 75.4697 37.3149C75.4085 37.167 75.3187 37.0326 75.2056 36.9195L69.9735 31.6875H71.9062C72.8756 31.6864 73.8049 31.3008 74.4904 30.6154C75.1758 29.9299 75.5614 29.0006 75.5625 28.0313V25.5938C75.5614 24.6244 75.1758 23.6951 74.4904 23.0096C73.8049 22.3242 72.8756 21.9386 71.9062 21.9375ZM14.625 58.5V65.8125H12.1875V58.5H14.625ZM6.09375 56.0625C5.77063 56.0621 5.46085 55.9336 5.23236 55.7051C5.00388 55.4767 4.87536 55.1669 4.875 54.8438V53.625H23.09L22.2777 56.0625H6.09375ZM7.3125 40.9719V43.1218L4.875 41.9031V39.7532L7.3125 40.9719ZM7.40116 45.8913C7.58337 46.7018 8.03576 47.4263 8.68405 47.9458C9.33234 48.4652 10.138 48.7488 10.9688 48.75H18.2812C19.037 48.749 19.774 48.5142 20.3911 48.0778C21.0082 47.6414 21.4751 47.0248 21.7279 46.3125H26.8125V48.791C26.1558 48.8883 25.538 49.1628 25.0257 49.5851C24.5134 50.0074 24.126 50.5614 23.9052 51.1875H4.875V44.6282L7.40116 45.8913ZM9.75 45.0938V41.4375H19.5V45.0938C19.4996 45.4169 19.3711 45.7267 19.1426 45.9551C18.9142 46.1836 18.6044 46.3121 18.2812 46.3125H10.9688C10.6456 46.3121 10.3358 46.1836 10.1074 45.9551C9.87888 45.7267 9.75036 45.4169 9.75 45.0938ZM21.9375 41.4375H56.0625V43.875H21.9375V41.4375ZM48.75 48.75H46.3125V46.3125H48.75V48.75ZM31.6875 48.75H29.25V46.3125H31.6875V48.75ZM34.125 46.3125H43.875V51.1875H34.125V46.3125ZM26.1937 52.0214C26.2745 51.7786 26.4297 51.5674 26.6373 51.4177C26.8449 51.268 27.0943 51.1875 27.3503 51.1875H31.6875V52.4063C31.6875 52.7295 31.8159 53.0395 32.0445 53.268C32.273 53.4966 32.583 53.625 32.9062 53.625H45.0938C45.417 53.625 45.727 53.4966 45.9555 53.268C46.1841 53.0395 46.3125 52.7295 46.3125 52.4063V51.1875H50.6497C50.9056 51.1873 51.155 51.2677 51.3625 51.4173C51.5701 51.5669 51.7253 51.7781 51.806 52.0208L53.1527 56.0625H24.8473L26.1937 52.0214ZM54.0948 51.1875C53.874 50.5614 53.4866 50.0074 52.9743 49.5851C52.462 49.1628 51.8442 48.8882 51.1875 48.791V46.3125H56.2721C56.5249 47.0248 56.9918 47.6414 57.6089 48.0778C58.226 48.5142 58.963 48.749 59.7188 48.75H67.0312C67.862 48.7488 68.6677 48.4652 69.3159 47.9458C69.9642 47.4263 70.4166 46.7018 70.5988 45.8913L73.125 44.6282V51.1875H54.0948ZM58.5 45.0938V41.4375H68.25V45.0938C68.2496 45.4169 68.1211 45.7267 67.8926 45.9551C67.6642 46.1836 67.3544 46.3121 67.0312 46.3125H59.7188C59.3956 46.3121 59.0858 46.1836 58.8574 45.9551C58.6289 45.7267 58.5004 45.4169 58.5 45.0938ZM73.125 41.9031L70.6875 43.1218V40.9719L73.125 39.7532V41.9031ZM69.1811 39H8.81888L5.71365 37.4475L10.4026 32.7585C10.7413 32.4179 11.1443 32.1478 11.5881 31.964C12.0318 31.7801 12.5077 31.6862 12.9881 31.6875H65.0119C65.4923 31.6862 65.9681 31.7801 66.4119 31.964C66.8557 32.1478 67.2587 32.4179 67.5974 32.7585L72.2871 37.4475L69.1811 39ZM19.8422 29.25L22.1965 19.8321C22.3934 19.0405 22.8497 18.3377 23.4926 17.8357C24.1356 17.3337 24.9281 17.0615 25.7438 17.0625H52.2562C53.0719 17.0615 53.8644 17.3337 54.5074 17.8357C55.1503 18.3377 55.6066 19.0405 55.8035 19.8321L58.1578 29.25H19.8422ZM17.6179 18.6496C18.0774 16.8029 19.142 15.1632 20.642 13.9919C22.1419 12.8207 23.9908 12.1855 25.8939 12.1875H52.1061C54.0093 12.1854 55.8583 12.8205 57.3584 13.9918C58.8585 15.163 59.9232 16.8028 60.3827 18.6496L63.0328 29.25H60.6703L58.168 19.241C57.8399 17.9218 57.0794 16.7505 56.0079 15.9139C54.9364 15.0772 53.6156 14.6235 52.2562 14.625H25.7438C24.3844 14.6235 23.0636 15.0772 21.9921 15.9139C20.9206 16.7505 20.1601 17.9218 19.832 19.241L17.3297 29.25H14.9672L17.6179 18.6496ZM4.875 28.0313V25.5938C4.87536 25.2706 5.00388 24.9609 5.23236 24.7324C5.46085 24.5039 5.77063 24.3754 6.09375 24.375H8.53125C9.5006 24.3761 10.4299 24.7617 11.1154 25.4471C11.8008 26.1326 12.1864 27.0619 12.1875 28.0313V29.25H6.09375C5.77063 29.2496 5.46085 29.1211 5.23236 28.8926C5.00388 28.6642 4.87536 28.3544 4.875 28.0313ZM7.3125 64.5938V58.5H9.75V65.8125H8.53125C8.20813 65.8121 7.89835 65.6836 7.66986 65.4551C7.44138 65.2267 7.31286 64.9169 7.3125 64.5938ZM19.5 64.5938C19.4996 64.9169 19.3711 65.2267 19.1426 65.4551C18.9142 65.6836 18.6044 65.8121 18.2812 65.8125H17.0625V58.5H19.5V64.5938ZM58.5 64.5938V58.5H60.9375V65.8125H59.7188C59.3956 65.8121 59.0858 65.6836 58.8574 65.4551C58.6289 65.2267 58.5004 64.9169 58.5 64.5938ZM65.8125 58.5V65.8125H63.375V58.5H65.8125ZM69.4688 65.8125H68.25V58.5H70.6875V64.5938C70.6871 64.9169 70.5586 65.2267 70.3301 65.4551C70.1017 65.6836 69.7919 65.8121 69.4688 65.8125ZM71.9062 56.0625H55.7223L54.91 53.625H73.125V54.8438C73.1246 55.1669 72.9961 55.4767 72.7676 55.7051C72.5392 55.9336 72.2294 56.0621 71.9062 56.0625ZM73.125 28.0313C73.1246 28.3544 72.9961 28.6642 72.7676 28.8926C72.5392 29.1211 72.2294 29.2496 71.9062 29.25H65.8125V28.0313C65.8136 27.0619 66.1992 26.1326 66.8846 25.4471C67.5701 24.7617 68.4994 24.3761 69.4688 24.375H71.9062C72.2294 24.3754 72.5392 24.5039 72.7676 24.7324C72.9961 24.9609 73.1246 25.2706 73.125 25.5938V28.0313Z" fill="#092D4B"/>
</svg>
