<svg width="92" height="66" viewBox="0 0 92 66" fill="none" xmlns="http://www.w3.org/2000/svg">
<path d="M20.3184 44.3817L21.1608 46.1214C21.1608 46.1214 34.5182 56.9676 45.959 56.9676C57.3998 56.9676 70.8173 46.1214 70.8173 46.1214L71.5985 44.3817H71.5987C70.3145 40.5441 68.7375 35.2752 67.6313 29.7104L65.1867 28.3358H26.3719L24.2854 29.7099C23.1792 35.2748 21.602 40.5439 20.3179 44.3815L20.3184 44.3817Z" fill="#94C0DE"/>
<path d="M31.6629 28.9262L32.5593 28.3359H26.3719L24.2854 29.7101C23.1792 35.275 21.602 40.5441 20.3179 44.3817H20.3181L21.1605 46.1214C21.1605 46.1214 23.2164 47.7906 26.4051 49.8192C28.2742 43.5763 30.1801 36.385 31.6629 28.9262Z" fill="#74A1C2"/>
<path d="M89.7521 16.5131L48.1903 2.46662C46.7429 1.97748 45.1746 1.97748 43.727 2.46662L2.16534 16.5131C1.09237 16.8757 0.997664 18.3564 2.01565 18.8527L42.9041 38.7874C44.8319 39.7272 47.0854 39.7272 49.0132 38.7874L89.9016 18.8527C90.9198 18.3564 90.8251 16.8757 89.7521 16.5131Z" fill="#94C0DE"/>
<path d="M14.5947 18.8527C13.5765 18.3564 13.6714 16.8757 14.7444 16.5131L52.2483 3.83807L48.1905 2.46662C46.743 1.97748 45.1748 1.97748 43.7273 2.46662L2.16534 16.5131C1.09237 16.8757 0.997664 18.3564 2.01565 18.8527L42.9041 38.7874C44.8321 39.7272 47.0854 39.7272 49.0132 38.7874L52.2481 37.2102L14.5947 18.8527Z" fill="#74A1C2"/>
<path d="M82.9021 53.4637H78.1834L77.6223 62.1911C77.5758 62.9142 78.1336 63.5271 78.838 63.5271H82.2474C82.952 63.5271 83.5096 62.9142 83.4631 62.1911L82.9021 53.4637Z" fill="#FFD064"/>
<path d="M80.6929 62.1911L81.2539 53.4637H78.183L77.6219 62.1911C77.5753 62.9142 78.1331 63.5271 78.8377 63.5271H81.9085C81.2041 63.5271 80.6465 62.9142 80.6929 62.1911Z" fill="#F2AB08"/>
<path d="M81.6352 47.1911H79.4508C78.3626 47.1911 77.4722 48.0815 77.4722 49.1698V53.0974C77.4722 53.4547 77.7618 53.7443 78.1191 53.7443H82.967C83.3242 53.7443 83.6139 53.4547 83.6139 53.0974V49.1698C83.6139 48.0815 82.7235 47.1911 81.6352 47.1911Z" fill="#FFE07D"/>
<path d="M80.9463 53.0974V49.1698C80.9463 48.3072 81.5064 47.571 82.2802 47.3018C82.0777 47.2314 81.8611 47.1911 81.6352 47.1911H79.4508C78.3626 47.1911 77.4722 48.0815 77.4722 49.1698V53.0974C77.4722 53.4548 77.7618 53.7443 78.1191 53.7443H81.5932C81.2359 53.7445 80.9463 53.4548 80.9463 53.0974Z" fill="#FFD064"/>
<path d="M46.2365 11.1085C43.6453 10.9514 41.4946 13.0066 41.4946 15.5639V15.5866C41.5004 16.7366 42.4641 17.6534 43.6142 17.6534H48.303C49.4148 17.6534 50.4865 16.7932 50.417 15.3452C50.3094 13.0931 48.487 11.2449 46.2365 11.1085Z" fill="#477DA5"/>
<path d="M45.5383 15.5866C45.5383 15.579 45.5383 15.5715 45.5383 15.5639C45.5383 13.8298 46.5277 12.3276 47.9723 11.5885C47.4437 11.3178 46.8577 11.146 46.237 11.1085C43.6457 10.9514 41.4951 13.0066 41.4951 15.5639V15.5866C41.5009 16.7366 42.4646 17.6534 43.6147 17.6534H47.6579C46.5076 17.6534 45.5441 16.7366 45.5383 15.5866Z" fill="#79A6C9"/>
<path d="M71.5981 44.3817C66.9141 48.2317 59.2973 52.5407 51.0687 55.1923C47.8072 56.2436 44.1922 56.2704 40.8475 55.1923C32.6376 52.5467 25.0236 48.2474 20.3181 44.3815C19.8677 45.7269 19.4535 46.8971 19.1083 47.8414C18.5155 49.4636 19.0262 51.2868 20.384 52.354C27.9069 58.2666 35.8474 61.4971 40.8475 63.1084C42.4987 63.6405 44.2233 63.9066 45.9581 63.9066C47.6929 63.9066 49.4175 63.6405 51.0687 63.1084C56.0688 61.4971 64.0093 58.2664 71.5322 52.354C72.89 51.2868 73.4007 49.4636 72.8079 47.8414C72.4627 46.8973 72.0485 45.7271 71.5981 44.3817Z" fill="#FFE07D"/>
<path d="M26.7087 48.7985C24.2515 47.3385 22.0807 45.8297 20.3181 44.3817C19.8679 45.7271 19.4535 46.8973 19.1083 47.8416C18.5155 49.4638 19.0262 51.287 20.384 52.3542C21.8029 53.4694 23.2367 54.489 24.663 55.4206C25.3279 53.3607 26.0172 51.142 26.7087 48.7985Z" fill="#FFD064"/>
<path d="M90.2247 15.2315L70.8039 8.66799C70.0989 8.43079 69.3339 8.80815 69.0955 9.51329C68.8572 10.2184 69.2357 10.9834 69.9408 11.2217L89.1762 17.7226L80.1218 22.1369C79.7458 21.8833 79.3239 21.6887 78.8664 21.5692L51.7077 14.4713C50.8445 10.0301 45.3762 8.16609 42.0175 11.3268C40.855 12.4208 40.1884 13.9635 40.1884 15.5594V15.5889C40.1979 17.468 41.7532 18.9967 43.6556 18.9967H48.3447C49.5555 18.9967 50.7665 18.3649 51.3945 17.1754L76.7217 23.7948C68.719 27.6964 50.7539 36.4551 48.4638 37.5717C46.8473 38.3597 45.0461 38.3079 43.5361 37.5717L2.82357 17.7226L44.1998 3.73887C45.3604 3.34641 46.6393 3.34641 47.8 3.73887L63.9543 9.19864C64.6596 9.43674 65.4243 9.05883 65.6627 8.35334C65.901 7.6482 65.5226 6.88323 64.8174 6.64495L48.6631 1.18518C46.9455 0.604939 45.0542 0.604939 43.3367 1.18518L1.77503 15.2315C-0.4331 15.9783 -0.632385 19.0366 1.46631 20.0596L22.7961 30.4587C21.6227 36.0374 19.8311 42.0435 17.8839 47.3744C17.0867 49.5545 17.7735 51.9797 19.5925 53.4094C25.748 58.2474 33.0211 61.9848 40.4755 64.3871C43.9786 65.5158 47.8847 65.5593 51.5235 64.3871C58.9803 61.9837 66.2541 58.2449 72.4064 53.4094C74.232 51.9741 74.9094 49.5479 74.115 47.3744C72.2089 42.1617 70.3929 36.1165 69.2029 30.4593L79.2362 25.5677V45.852C77.5214 45.9834 76.1654 47.4175 76.1654 49.1655V53.0929C76.1654 53.6764 76.4187 54.2006 76.8195 54.5658L76.3188 62.135C76.2211 63.6137 77.3968 64.8705 78.8793 64.8705H82.2889C83.7707 64.8705 84.947 63.6143 84.8493 62.135L84.3488 54.5658C84.7495 54.2006 85.0029 53.6766 85.0029 53.0929V49.1653C85.0029 47.4174 83.6467 45.9832 81.9319 45.8518V25.5384C81.9319 25.1242 81.8666 24.7229 81.7502 24.342L90.5335 20.0598C92.6295 19.0378 92.4365 15.9794 90.2247 15.2315ZM48.3447 16.3012H43.6556C43.2393 16.3012 42.8858 15.9688 42.8838 15.5821V15.5594C42.8838 14.6911 43.2321 13.8852 43.8648 13.2896C45.8057 11.463 48.9864 12.7779 49.1123 15.405C49.1424 16.0342 48.7373 16.3012 48.3447 16.3012ZM70.066 43.9098C62.7843 49.6088 52.4506 53.6856 48.8911 54.3641C48.16 54.5036 47.6803 55.2094 47.8198 55.9404C47.9592 56.6718 48.6671 57.1514 49.3961 57.0118C53.1193 56.3018 63.3202 52.3375 70.978 46.6067C71.1663 47.1439 71.3845 47.7554 71.5834 48.2997C71.9787 49.3815 71.64 50.5829 70.7408 51.29C63.4828 56.9942 55.8347 60.1655 50.6967 61.8211C47.6279 62.8103 44.2946 62.7859 41.3023 61.8211C36.1644 60.1653 28.5163 56.9942 21.2583 51.29C20.3592 50.5833 20.02 49.382 20.4158 48.2995C20.4237 48.2779 20.4315 48.256 20.4394 48.2344C20.6352 47.6979 20.8523 47.0889 21.0211 46.6064C28.4979 52.2 38.671 56.2625 42.6017 57.0123C43.3338 57.1514 44.0388 56.6722 44.1782 55.9412C44.3176 55.21 43.838 54.5041 43.107 54.3647C39.7467 53.724 29.3776 49.7335 21.933 43.9097C23.0276 40.5624 24.2959 36.2608 25.2928 31.676L42.3548 39.9942C44.6265 41.1019 47.2846 41.1452 49.6451 39.9942L66.706 31.6763C67.703 36.261 68.9713 40.5626 70.066 43.9098ZM79.0173 62.1749L79.4862 55.0878H81.6817L82.1504 62.1749H79.0173ZM82.3073 49.1651V52.3921H78.8608V49.1651C78.8608 48.8231 79.1496 48.5342 79.4917 48.5342H81.6762C82.0181 48.5344 82.3073 48.8231 82.3073 49.1651Z" fill="#092D4B"/>
</svg>
