<svg width="74" height="74" viewBox="0 0 74 74" fill="none" xmlns="http://www.w3.org/2000/svg">
<g clip-path="url(#clip0_39_376)">
<path d="M51.4445 31.3978C54.1701 31.3978 56.3797 29.1882 56.3797 26.4626C56.3797 23.7369 54.1701 21.5274 51.4445 21.5274C48.7188 21.5274 46.5093 23.7369 46.5093 26.4626C46.5093 29.1882 48.7188 31.3978 51.4445 31.3978Z" fill="#FDBCAD"/>
<path d="M36.9131 17.4244C36.227 23.7632 30.8601 28.698 24.339 28.698C23.8281 28.698 23.3255 28.6642 22.8306 28.6053C23.1237 34.059 25.0963 39.5204 30.6569 43.0442C34.465 45.4573 39.3611 45.4573 43.1693 43.0442C48.7299 39.5204 50.7026 34.059 50.9957 28.6053C50.5006 28.6641 49.998 28.698 49.4873 28.698C42.9661 28.6981 37.5992 23.7632 36.9131 17.4244Z" fill="#FDF6EC"/>
<path d="M56.7172 49.252C61.1856 44.7837 61.1856 37.5391 56.7172 33.0707C52.2489 28.6024 45.0043 28.6024 40.5359 33.0707C36.0676 37.5391 36.0676 44.7837 40.5359 49.252C45.0043 53.7204 52.2489 53.7204 56.7172 49.252Z" fill="#EBAC81"/>
<path d="M54.9674 60.2788C59.1053 60.2788 62.4597 56.9243 62.4597 52.7864C62.4597 48.6486 59.1053 45.2941 54.9674 45.2941C50.8295 45.2941 47.4751 48.6486 47.4751 52.7864C47.4751 56.9243 50.8295 60.2788 54.9674 60.2788Z" fill="#EBAC81"/>
<path d="M61.8291 58.9724C61.0643 57.3498 59.6184 56.0725 57.813 55.4248L45.1104 50.8676C44.4158 50.6185 43.9594 50.0082 43.9594 49.3288V41.6505H30.0412V49.3288C30.0412 50.0082 29.5847 50.6183 28.8901 50.8676L16.1875 55.4248C14.3822 56.0725 12.9362 57.3498 12.1714 58.9724C10.2706 63.0049 9.29053 67.3469 9.29053 71.7345C9.29053 72.3783 9.86415 72.9001 10.5717 72.9001H63.4288C64.1364 72.9001 64.7099 72.3783 64.7099 71.7345C64.7099 67.3469 63.7298 63.0049 61.8291 58.9724Z" fill="#FDF6EC"/>
<path d="M46.0085 51.1899L45.1101 50.8676C44.4155 50.6183 43.9591 50.0082 43.9591 49.3288V41.6505H30.0409V49.3288C30.0409 50.008 29.5844 50.6183 28.8898 50.8676L28.3765 51.0518V57.2754L46.0085 51.1899Z" fill="#FFCEBF"/>
<path d="M61.8289 58.9724C61.0641 57.3498 59.6182 56.0725 57.8128 55.4248L57.3279 55.2509C57.3625 55.318 57.3977 55.3849 57.43 55.4534C59.3308 59.4859 60.3109 63.8278 60.3109 68.2157C60.3109 68.8594 59.7372 69.3812 59.0297 69.3812H9.3855C9.32289 70.1632 9.29004 70.9482 9.29004 71.7348C9.29004 72.3786 9.86366 72.9004 10.5712 72.9004H63.4286C64.1362 72.9004 64.7097 72.3786 64.7097 71.7348C64.7097 67.3469 63.7296 63.0049 61.8289 58.9724Z" fill="#F2E8D1"/>
<path d="M45.1103 50.8676C44.4157 50.6183 43.9592 50.0082 43.9592 49.3288V41.6505H39.5603V46.7163C39.5603 48.3325 38.6964 49.8253 37.2952 50.6308L28.3765 55.7572V57.2754L46.0087 51.19L45.1103 50.8676Z" fill="#FFB09E"/>
<path d="M22.4928 31.3978C25.2185 31.3978 27.428 29.1882 27.428 26.4626C27.428 23.7369 25.2185 21.5274 22.4928 21.5274C19.7672 21.5274 17.5576 23.7369 17.5576 26.4626C17.5576 29.1882 19.7672 31.3978 22.4928 31.3978Z" fill="#FDBCAD"/>
<path d="M46.1582 9.56848C44.3149 8.5095 41.5318 7.95216 39.4173 7.66549C37.7545 7.44012 36.0712 7.44012 34.4085 7.66549C32.2941 7.95201 29.511 8.5095 27.6677 9.56848C26.9864 9.95984 26.457 10.5668 26.1596 11.2939C24.3859 15.6311 17.5378 34.7306 30.6568 43.0443C34.4648 45.4576 39.361 45.4576 43.1691 43.0443C56.2882 34.7307 49.4399 15.6313 47.6663 11.2939C47.3689 10.5668 46.8393 9.95984 46.1582 9.56848Z" fill="#F4D5CC"/>
<path d="M47.6666 11.2939C47.3693 10.5668 46.8396 9.95969 46.1585 9.56848C44.3152 8.5095 41.5321 7.95201 39.4177 7.66549C37.9352 7.4646 36.4368 7.44744 34.951 7.60493C35.1203 7.62311 35.2897 7.64261 35.4586 7.66549C37.5731 7.95201 40.3561 8.5095 42.1995 9.56848C42.8807 9.95984 43.4103 10.5668 43.7076 11.2939C45.4812 15.6311 52.3294 34.7306 39.2104 43.0443C37.887 43.8829 36.4321 44.4269 34.9375 44.6822C37.7421 45.1605 40.6868 44.6175 43.1694 43.0443C56.2885 34.7307 49.4403 15.6313 47.6666 11.2939Z" fill="#FDBCAD"/>
<path d="M61.8676 59.6054C60.562 61.5968 54.8525 62.4413 54.8525 62.4413C54.8525 62.4413 53.3503 56.8687 54.6559 54.8773C55.9615 52.8859 58.6343 52.3298 60.6259 53.6354C62.6173 54.9412 63.1732 57.614 61.8676 59.6054Z" fill="#EBAC81"/>
<path d="M36.9685 16.7537C36.9558 16.9788 36.9371 17.2024 36.9131 17.4244C37.5992 23.7632 42.9661 28.698 49.4872 28.698C49.9981 28.698 50.5008 28.6642 50.9956 28.6053C51.225 24.3389 50.426 20.0792 49.5117 16.7536H36.9685V16.7537Z" fill="#EBAC81"/>
<path d="M49.5118 16.7538H45.5527C46.4566 20.0418 47.2462 24.2428 47.0424 28.4606C47.8336 28.6156 48.6508 28.698 49.4873 28.698C49.9982 28.698 50.5008 28.6642 50.9957 28.6053C51.225 24.339 50.4261 20.0794 49.5118 16.7538Z" fill="#D88A55"/>
<path d="M24.3147 16.7538C23.4004 20.0794 22.6014 24.339 22.8307 28.6054C23.3258 28.6642 23.8284 28.6981 24.3391 28.6981C30.8603 28.6981 36.2271 23.7632 36.9133 17.4246C36.8893 17.2026 36.8708 16.979 36.8579 16.7539H24.3147V16.7538Z" fill="#EBAC81"/>
<path d="M22.7905 12.4151V17.4858C22.7905 18.1795 23.353 18.742 24.0467 18.742H51.0364V12.4151H22.7905Z" fill="#FDF6EC"/>
<path d="M28.4975 2.08306C31.9916 1.41237 35.5601 1.09975 38.0722 1.09975C51.9158 1.09975 60.8828 4.4434 60.8828 13.377C60.8828 16.9752 58.1177 19.6965 53.5194 20.7373C45.731 22.5001 37.5639 21.2736 30.5551 17.4469C26.7244 15.3553 22.5621 13.2579 20.9084 13.0381C19.0287 12.7882 16.8804 11.8359 16.8804 8.78723C16.8802 5.37994 22.582 3.21858 28.4975 2.08306Z" fill="#FDF6EC"/>
<path d="M38.0723 1.09975C37.5334 1.09975 36.9457 1.11426 36.3208 1.14344C48.6491 1.56047 56.4838 5.02656 56.4838 13.377C56.4838 16.9752 53.7187 19.6965 49.1203 20.7373C47.5019 21.1036 45.8673 21.3389 44.2301 21.4505C47.3228 21.6605 50.4503 21.4321 53.5193 20.7373C58.1177 19.6965 60.8827 16.9752 60.8827 13.377C60.8829 4.4434 51.9159 1.09975 38.0723 1.09975Z" fill="#F2E8D1"/>
<path d="M33.7931 67.8823C34.4005 67.8823 34.8928 67.39 34.8928 66.7826C34.8928 66.1752 34.4005 65.6829 33.7931 65.6829C33.1857 65.6829 32.6934 66.1752 32.6934 66.7826C32.6934 67.39 33.1857 67.8823 33.7931 67.8823Z" fill="black"/>
<path d="M42.922 67.8823C43.5294 67.8823 44.0218 67.39 44.0218 66.7826C44.0218 66.1752 43.5294 65.6829 42.922 65.6829C42.3146 65.6829 41.8223 66.1752 41.8223 66.7826C41.8223 67.39 42.3146 67.8823 42.922 67.8823Z" fill="black"/>
<path d="M33.7931 62.0894C34.4005 62.0894 34.8928 61.597 34.8928 60.9896C34.8928 60.3823 34.4005 59.8899 33.7931 59.8899C33.1857 59.8899 32.6934 60.3823 32.6934 60.9896C32.6934 61.597 33.1857 62.0894 33.7931 62.0894Z" fill="black"/>
<path d="M42.922 62.0894C43.5294 62.0894 44.0218 61.597 44.0218 60.9896C44.0218 60.3823 43.5294 59.8899 42.922 59.8899C42.3146 59.8899 41.8223 60.3823 41.8223 60.9896C41.8223 61.597 42.3146 62.0894 42.922 62.0894Z" fill="black"/>
<path d="M63.2528 59.4535C63.2443 59.4337 63.2341 59.4151 63.2245 59.3962C63.8297 58.0042 63.8062 56.4489 63.2308 55.105C63.2498 55.0592 63.2679 55.013 63.2808 54.9638C63.4657 54.2563 63.5594 53.5237 63.5594 52.7866C63.5594 50.0239 62.2472 47.5631 60.2149 45.9903C60.8547 44.4612 61.1796 42.8395 61.1796 41.1607C61.1796 36.9427 59.1002 33.0879 55.6655 30.7703C56.7837 29.6743 57.4793 28.1485 57.4793 26.4627C57.4793 24.415 56.4533 22.6034 54.8892 21.5118C59.3539 20.163 61.9826 17.1824 61.9826 13.3771C61.9826 8.65335 59.6851 5.12875 55.154 2.90141C51.1825 0.949004 45.5951 0 38.0724 0C35.2194 0 31.5625 0.374939 28.2904 1.00296C27.6939 1.11748 27.3032 1.69375 27.4177 2.29025C27.5322 2.88675 28.109 3.27694 28.705 3.163C31.8486 2.55976 35.3503 2.19948 38.0724 2.19948C45.1514 2.19948 50.5721 3.09981 54.1838 4.87523C57.9516 6.72734 59.7831 9.50837 59.7831 13.3771C59.7831 16.4372 57.4116 18.7289 53.2766 19.6648C46.7242 21.1479 39.8467 20.4556 33.6271 17.7305C33.6253 17.7297 33.6237 17.7289 33.622 17.7281C32.762 17.3511 31.9143 16.936 31.082 16.4816C23.3328 12.2508 21.6169 12.0228 21.0531 11.948C18.2985 11.5819 17.98 9.96879 17.98 8.78738C17.98 7.03805 20.5664 5.2987 25.0763 4.01523C25.6604 3.84895 25.9992 3.24072 25.8329 2.65639C25.6666 2.07221 25.0579 1.73349 24.474 1.89977C18.7054 3.54161 15.7804 5.85884 15.7804 8.78738C15.7804 11.7608 17.5965 13.7075 20.7632 14.1283C20.9506 14.1532 21.2423 14.221 21.6901 14.373V17.4857C21.6901 18.222 22.03 18.8798 22.5605 19.3122C22.481 19.688 22.4071 20.0612 22.3385 20.4316C19.0818 20.5137 16.4572 23.1865 16.4572 26.4627C16.4572 29.7021 19.0231 32.3526 22.2291 32.4911C23.1957 37.0198 25.4487 40.6146 28.9407 43.2003V49.329C28.9407 49.5394 28.7708 49.7419 28.518 49.8325L15.8154 54.3897C13.7501 55.1306 12.059 56.6301 11.1758 58.5036C9.19452 62.7068 8.18994 67.1584 8.18994 71.7347C8.18994 72.9837 9.25801 74 10.5708 74H40.2602C40.8675 74 41.3599 73.5076 41.3599 72.9003C41.3599 72.2929 40.8675 71.8005 40.2602 71.8005H29.4757V58.0573L45.9385 52.333L53.3795 55.0026C52.4721 57.5097 53.5443 61.8138 53.7907 62.7275C53.9216 63.2131 54.3618 63.541 54.8515 63.541C54.9051 63.541 54.959 63.5372 55.0133 63.5291C55.8595 63.4041 59.5153 62.7926 61.6409 61.3231C62.9467 64.6727 63.6103 68.1687 63.6121 71.7246C63.6034 71.7441 63.5417 71.8004 63.4288 71.8004H44.6597C44.0524 71.8004 43.56 72.2928 43.56 72.9001C43.56 73.5075 44.0524 73.9998 44.6597 73.9998H63.4288C64.7416 73.9998 65.8097 72.9835 65.8097 71.7344C65.8097 67.5127 64.9495 63.3809 63.2528 59.4535ZM61.36 52.7864C61.36 52.793 61.3594 52.7995 61.3594 52.8061C61.316 52.7759 61.2733 52.7448 61.2289 52.7156C59.1637 51.3616 56.5063 51.6085 54.7237 53.148L48.8204 51.0302C49.5945 48.3228 52.1208 46.3938 54.9674 46.3938C58.4923 46.394 61.36 49.2617 61.36 52.7864ZM58.9803 41.1605C58.9803 42.4446 58.7474 43.6867 58.294 44.8651C57.2702 44.4335 56.1463 44.1945 54.9674 44.1945C51.1915 44.1945 47.8342 46.7207 46.7469 50.2865L45.4817 49.8327C45.2288 49.7419 45.059 49.5394 45.059 49.329V43.0681C48.4513 40.4881 50.6438 36.9191 51.5935 32.494C52.3047 32.4767 52.9853 32.3361 53.6156 32.0922C56.9328 33.9143 58.9803 37.3591 58.9803 41.1605ZM51.9599 30.2624C52.2298 27.9252 52.1885 25.3807 51.8341 22.6468C53.7668 22.8427 55.28 24.4792 55.28 26.4626C55.28 28.4025 53.8319 30.0097 51.9599 30.2624ZM46.4221 22.6286C47.48 22.6286 48.5381 22.5753 49.5935 22.4746C49.848 24.2678 49.9606 25.9749 49.9323 27.5881C49.783 27.5943 49.6347 27.5984 49.4871 27.5984C45.3272 27.5984 41.5873 25.4172 39.5346 21.9167C41.8046 22.3894 44.1123 22.6286 46.4221 22.6286ZM24.6968 19.8417H32.9658C33.6192 20.1226 34.2793 20.3826 34.945 20.6215C33.1324 24.8237 28.963 27.5982 24.3391 27.5982C24.1869 27.5982 24.0336 27.5938 23.8794 27.5872C23.8403 25.3193 24.0855 22.7501 24.6968 19.8417ZM28.6019 17.6422H24.0465C23.9602 17.6422 23.89 17.572 23.89 17.4857V15.2759C25.0389 15.8006 26.5688 16.5576 28.6019 17.6422ZM18.6571 26.4626C18.6571 24.5187 20.111 22.9091 21.9883 22.6613C21.6382 25.3649 21.5952 27.9016 21.864 30.2457C20.0472 29.9446 18.6571 28.3634 18.6571 26.4626ZM24.0138 29.7926C24.1229 29.7954 24.2318 29.7977 24.3391 29.7977C29.799 29.7977 34.7279 26.5485 36.913 21.6136C37.9384 23.9313 39.576 25.9115 41.6752 27.3636C43.977 28.9559 46.6784 29.7977 49.4871 29.7977C49.5899 29.7977 49.6943 29.7954 49.7989 29.7927C49.6864 30.8585 49.5059 31.877 49.2552 32.8437C48.2169 36.8472 45.9712 39.9667 42.5805 42.1154C39.1377 44.2971 34.6884 44.2971 31.2455 42.1154C28.0382 40.0829 24.7226 36.4036 24.0138 29.7926ZM10.5714 71.8005C10.4585 71.8005 10.3968 71.7441 10.39 71.7345C10.39 67.4851 11.3239 63.3489 13.1659 59.4413C13.802 58.0919 15.0385 57.0052 16.5587 56.4599L27.2768 52.6146V57.2753V71.8005H10.5714ZM29.4762 51.8156C30.4805 51.3638 31.1408 50.3909 31.1408 49.3288V44.5797C32.9485 45.4919 34.9305 45.9495 36.9133 45.9495C38.9598 45.9495 41.0056 45.4621 42.8597 44.4904V49.3287C42.8597 49.9657 43.0972 50.5704 43.5038 51.0502L29.4764 55.7324V51.8156H29.4762ZM55.6799 61.1794C55.2323 59.0972 54.965 56.4113 55.5756 55.4802C56.1916 54.5407 57.2194 54.0302 58.2667 54.0302C58.8707 54.0302 59.4812 54.2 60.0228 54.555C61.5039 55.5261 61.9189 57.5212 60.9479 59.0023C60.3373 59.9337 57.7675 60.7597 55.6799 61.1794Z" fill="#092D4B"/>
</g>
<defs>
<clipPath id="clip0_39_376">
<rect width="74" height="74" rx="9" fill="white"/>
</clipPath>
</defs>
</svg>
