<svg width="351" height="337" viewBox="0 0 351 337" fill="none" xmlns="http://www.w3.org/2000/svg">
<path d="M347.712 118.046L346.719 118.164L347.712 118.046ZM115.316 200.74L114.364 201.048L115.316 200.74ZM206.146 136.234L205.55 137.037L206.146 136.234ZM203.996 276.747L203.164 276.193L203.996 276.747ZM65.7866 328.633L73.7467 336.997L77.0108 325.921L65.7866 328.633ZM1.12169 37.5746C1.76139 37.347 2.40018 37.1206 3.03807 36.8954L2.37224 35.0095C1.73278 35.2352 1.09242 35.4622 0.451169 35.6904L1.12169 37.5746ZM6.85458 35.5586C8.12314 35.1179 9.38809 34.682 10.6494 34.2509L10.0026 32.3584C8.73807 32.7906 7.46993 33.2276 6.1982 33.6694L6.85458 35.5586ZM14.4226 32.972C15.6768 32.5505 16.9273 32.1338 18.1742 31.7218L17.5468 29.8228C16.2966 30.2358 15.0428 30.6536 13.7855 31.0762L14.4226 32.972ZM21.9171 30.496C23.2081 30.0769 24.4951 29.6629 25.7782 29.2541L25.1711 27.3485C23.8845 27.7584 22.594 28.1735 21.2996 28.5937L21.9171 30.496ZM29.6159 28.0429C30.8912 27.6443 32.1626 27.2507 33.4302 26.8622L32.8441 24.95C31.573 25.3396 30.2981 25.7343 29.0192 26.134L29.6159 28.0429ZM37.221 25.7119C38.4807 25.3335 39.7365 24.9602 40.9884 24.5918L40.4238 22.6731C39.1683 23.0426 37.9089 23.417 36.6456 23.7965L37.221 25.7119ZM44.8703 23.462C46.1661 23.089 47.4577 22.7214 48.7451 22.3592L48.2034 20.4339C46.9122 20.7972 45.6167 21.1659 44.317 21.54L44.8703 23.462ZM52.5945 21.2887C53.8734 20.9372 55.1481 20.591 56.4185 20.2502L55.9003 18.3185C54.6259 18.6604 53.3473 19.0076 52.0645 19.3602L52.5945 21.2887ZM60.2172 19.2436C61.5267 18.901 62.8317 18.564 64.1322 18.2327L63.6384 16.2946C62.3338 16.627 61.0246 16.965 59.7109 17.3088L60.2172 19.2436ZM68.0371 17.2514C69.3341 16.93 70.6265 16.6142 71.9144 16.3041L71.4462 14.3597C70.154 14.6708 68.8573 14.9876 67.556 15.3101L68.0371 17.2514ZM75.7641 15.3908C77.0483 15.0906 78.328 14.7961 79.6029 14.5073L79.161 12.5567C77.8816 12.8466 76.5976 13.1421 75.309 13.4432L75.7641 15.3908ZM83.559 13.6257C84.8727 13.3379 86.1814 13.0561 87.4851 12.7804L87.0712 10.8237C85.7627 11.1005 84.4493 11.3832 83.131 11.6721L83.559 13.6257ZM91.3813 11.9709C92.6751 11.707 93.9638 11.4491 95.2476 11.1971L94.8624 9.23454C93.5737 9.4875 92.2802 9.74638 90.9816 10.0112L91.3813 11.9709ZM99.1678 10.443C100.496 10.1926 101.819 9.94872 103.137 9.71114L102.782 7.74288C101.459 7.98139 100.131 8.22626 98.7975 8.47754L99.1678 10.443ZM107.074 9.0174C108.38 8.79246 109.682 8.57383 110.978 8.36146L110.654 6.38778C109.353 6.60103 108.046 6.82054 106.734 7.04638L107.074 9.0174ZM114.867 7.74031C116.208 7.53179 117.543 7.33004 118.872 7.135L118.582 5.1562C117.247 5.35207 115.906 5.55467 114.56 5.76407L114.867 7.74031ZM122.842 6.56999C124.159 6.38834 125.47 6.21336 126.776 6.04499L126.52 4.06142C125.209 4.23054 123.892 4.4063 122.569 4.58874L122.842 6.56999ZM130.675 5.55969C132.019 5.39851 133.356 5.24442 134.687 5.09736L134.467 3.10946C133.13 3.25721 131.787 3.41201 130.437 3.57392L130.675 5.55969ZM138.68 4.6753C140.005 4.54168 141.323 4.4151 142.635 4.2955L142.453 2.30376C141.135 2.42394 139.81 2.55114 138.479 2.6854L138.68 4.6753ZM146.551 3.95763C147.898 3.84805 149.238 3.74593 150.571 3.6512L150.429 1.65623C149.089 1.75145 147.743 1.85409 146.389 1.96421L146.551 3.95763ZM154.576 3.38752C155.904 3.30707 157.226 3.23404 158.54 3.16837L158.44 1.17087C157.119 1.23689 155.79 1.3103 154.455 1.39118L154.576 3.38752ZM162.461 2.9934C163.817 2.94022 165.164 2.89498 166.505 2.85759L166.449 0.858373C165.101 0.895971 163.746 0.941468 162.383 0.994933L162.461 2.9934ZM170.508 2.76885C171.835 2.74709 173.154 2.73314 174.466 2.72693L174.456 0.726948C173.137 0.733203 171.81 0.747234 170.475 0.769114L170.508 2.76885ZM178.422 2.73171C179.775 2.74147 181.12 2.75957 182.456 2.78593L182.496 0.786316C181.151 0.759791 179.798 0.741581 178.436 0.731765L178.422 2.73171ZM186.441 2.8897C187.761 2.9325 189.073 2.98348 190.376 3.04255L190.467 1.0446C189.155 0.985135 187.834 0.933827 186.506 0.890754L186.441 2.8897ZM194.38 3.25085C195.722 3.3298 197.056 3.41747 198.38 3.51377L198.526 1.51904C197.192 1.42206 195.849 1.33379 194.497 1.2543L194.38 3.25085ZM202.327 3.82846C203.65 3.94335 204.964 4.06699 206.269 4.19927L206.471 2.20948C205.156 2.07621 203.833 1.95167 202.5 1.83596L202.327 3.82846ZM210.271 4.63549C211.596 4.79001 212.911 4.95359 214.215 5.12614L214.478 3.1434C213.162 2.9695 211.838 2.80465 210.503 2.64897L210.271 4.63549ZM218.105 5.6712C219.445 5.86965 220.775 6.07774 222.093 6.29533L222.419 4.322C221.089 4.10261 219.749 3.89283 218.398 3.69278L218.105 5.6712ZM226.018 6.97648C227.316 7.21295 228.603 7.45881 229.879 7.71393L230.271 5.75271C228.984 5.49535 227.685 5.24737 226.377 5.00888L226.018 6.97648ZM233.817 8.53729C235.123 8.82286 236.419 9.11834 237.703 9.42359L238.165 7.47783C236.869 7.16974 235.562 6.87155 234.244 6.5834L233.817 8.53729ZM241.52 10.3685C242.826 10.7047 244.12 11.0512 245.401 11.4079L245.937 9.48121C244.643 9.12099 243.337 8.7711 242.019 8.43169L241.52 10.3685ZM249.226 12.5137C250.489 12.8925 251.739 13.2814 252.977 13.6802L253.59 11.7766C252.339 11.3736 251.076 10.9807 249.801 10.5981L249.226 12.5137ZM256.794 14.9548C258.053 15.3905 259.299 15.8368 260.532 16.2935L261.227 14.418C259.98 13.9563 258.72 13.5051 257.447 13.0647L256.794 14.9548ZM264.219 17.7055C265.47 18.2008 266.706 18.707 267.929 19.2241L268.708 17.3822C267.471 16.859 266.22 16.3468 264.955 15.8459L264.219 17.7055ZM271.553 20.8077C272.769 21.3561 273.97 21.9155 275.156 22.4857L276.023 20.6831C274.822 20.1058 273.606 19.5396 272.376 18.9846L271.553 20.8077ZM278.728 24.258C279.903 24.8599 281.063 25.4727 282.208 26.0962L283.165 24.3398C282.005 23.7081 280.83 23.0874 279.639 22.4778L278.728 24.258ZM285.698 28.0575C286.848 28.7241 287.982 29.402 289.099 30.0909L290.149 28.3884C289.016 27.69 287.867 27.0028 286.701 26.3272L285.698 28.0575ZM292.444 32.2168C293.561 32.9491 294.661 33.6928 295.744 34.4477L296.888 32.807C295.789 32.0411 294.673 31.2867 293.54 30.544L292.444 32.2168ZM298.942 36.7458C300.018 37.5433 301.077 38.3523 302.117 39.1726L303.355 37.602C302.299 36.7693 301.225 35.9482 300.133 35.1388L298.942 36.7458ZM305.186 41.6685C306.205 42.5236 307.206 43.39 308.188 44.2674L309.52 42.7759C308.523 41.8846 307.506 41.0046 306.471 40.1363L305.186 41.6685ZM311.106 46.9577C312.065 47.8708 313.005 48.7948 313.926 49.7296L315.35 48.326C314.414 47.3759 313.459 46.4368 312.484 45.5091L311.106 46.9577ZM316.67 52.6079C317.566 53.5784 318.441 54.5596 319.298 55.5512L320.811 54.2442C319.941 53.2358 319.05 52.2382 318.14 51.2517L316.67 52.6079ZM321.849 58.608C322.679 59.6375 323.488 60.6775 324.278 61.7277L325.877 60.5257C325.073 59.4574 324.25 58.3996 323.405 57.3526L321.849 58.608ZM326.61 64.941C327.368 66.0255 328.106 67.1201 328.824 68.2245L330.501 67.1349C329.771 66.0113 329.02 64.8977 328.248 63.7944L326.61 64.941ZM330.925 71.5847C331.608 72.719 332.269 73.863 332.909 75.0163L334.658 74.0454C334.006 72.8719 333.333 71.7079 332.639 70.5538L330.925 71.5847ZM334.771 78.5115C335.373 79.6899 335.953 80.8774 336.513 82.0736L338.324 81.2265C337.755 80.0093 337.165 78.801 336.552 77.6019L334.771 78.5115ZM338.128 85.6898C338.646 86.906 339.143 88.1306 339.618 89.3633L341.484 88.6434C341.001 87.3893 340.495 86.1433 339.968 84.9059L338.128 85.6898ZM340.981 93.085C341.414 94.3324 341.825 95.5875 342.216 96.8499L344.126 96.2592C343.73 94.9752 343.311 93.6985 342.871 92.4296L340.981 93.085ZM343.323 100.659C343.67 101.931 343.995 103.211 344.3 104.497L346.246 104.036C345.936 102.728 345.605 101.427 345.253 100.133L343.323 100.659ZM345.15 108.373C345.412 109.665 345.652 110.964 345.872 112.268L347.844 111.936C347.621 110.61 347.376 109.29 347.111 107.976L345.15 108.373ZM346.467 116.19C346.556 116.847 346.64 117.505 346.719 118.164L348.705 117.927C348.625 117.258 348.54 116.589 348.449 115.922L346.467 116.19ZM346.719 118.164C346.8 118.849 346.878 119.53 346.952 120.209L348.941 119.992C348.866 119.307 348.787 118.618 348.705 117.927L346.719 118.164ZM347.354 124.246C347.473 125.579 347.578 126.901 347.669 128.211L349.664 128.073C349.573 126.749 349.467 125.414 349.346 124.067L347.354 124.246ZM347.898 132.105C347.963 133.436 348.012 134.755 348.047 136.061L350.046 136.008C350.011 134.687 349.961 133.354 349.896 132.009L347.898 132.105ZM348.108 140.109C348.112 141.445 348.1 142.768 348.073 144.077L350.072 144.118C350.1 142.793 350.112 141.455 350.108 140.103L348.108 140.109ZM347.945 147.963C347.884 149.31 347.806 150.642 347.711 151.96L349.706 152.103C349.802 150.767 349.881 149.418 349.943 148.054L347.945 147.963ZM347.369 155.96C347.238 157.278 347.09 158.581 346.925 159.869L348.908 160.123C349.076 158.816 349.226 157.495 349.359 156.158L347.369 155.96ZM346.373 163.731C346.161 165.075 345.93 166.402 345.681 167.712L347.645 168.086C347.899 166.755 348.133 165.407 348.348 164.043L346.373 163.731ZM344.879 171.591C344.593 172.867 344.29 174.127 343.969 175.369L345.906 175.869C346.232 174.605 346.54 173.325 346.83 172.028L344.879 171.591ZM342.897 179.244C342.518 180.524 342.119 181.787 341.703 183.031L343.599 183.666C344.023 182.4 344.429 181.115 344.814 179.811L342.897 179.244ZM340.396 186.707C339.924 187.963 339.431 189.2 338.92 190.417L340.764 191.192C341.285 189.951 341.787 188.691 342.268 187.411L340.396 186.707ZM337.312 194.044C336.757 195.233 336.183 196.402 335.59 197.552L337.368 198.469C337.973 197.295 338.558 196.103 339.124 194.89L337.312 194.044ZM333.691 201.059C333.036 202.213 332.36 203.346 331.666 204.458L333.363 205.517C334.072 204.381 334.761 203.225 335.43 202.047L333.691 201.059ZM329.525 207.738C328.773 208.841 328.001 209.921 327.211 210.981L328.813 212.177C329.621 211.095 330.409 209.991 331.177 208.865L329.525 207.738ZM324.783 214.096C323.952 215.118 323.102 216.12 322.234 217.1L323.731 218.425C324.617 217.424 325.485 216.402 326.335 215.358L324.783 214.096ZM319.543 220.014C318.628 220.964 317.696 221.892 316.748 222.799L318.13 224.245C319.098 223.319 320.05 222.371 320.984 221.401L319.543 220.014ZM313.835 225.473C312.843 226.347 311.836 227.199 310.812 228.03L312.073 229.582C313.117 228.735 314.145 227.865 315.157 226.974L313.835 225.473ZM307.697 230.459C306.64 231.25 305.568 232.02 304.482 232.769L305.618 234.415C306.725 233.651 307.817 232.867 308.895 232.06L307.697 230.459ZM301.181 234.954C300.068 235.662 298.941 236.349 297.801 237.015L298.811 238.742C299.972 238.063 301.12 237.363 302.254 236.642L301.181 234.954ZM294.35 238.951C293.187 239.576 292.012 240.182 290.826 240.767L291.711 242.561C292.917 241.965 294.113 241.349 295.297 240.713L294.35 238.951ZM287.245 242.459C286.043 243.002 284.831 243.526 283.608 244.031L284.372 245.879C285.614 245.366 286.847 244.834 288.069 244.281L287.245 242.459ZM279.913 245.488C278.68 245.952 277.438 246.397 276.187 246.823L276.833 248.716C278.103 248.283 279.364 247.831 280.617 247.36L279.913 245.488ZM272.413 248.047C271.149 248.436 269.878 248.807 268.6 249.16L269.133 251.088C270.429 250.73 271.719 250.354 273.002 249.959L272.413 248.047ZM264.766 250.16C263.482 250.476 262.191 250.774 260.896 251.055L261.319 253.01C262.633 252.725 263.941 252.423 265.243 252.103L264.766 250.16ZM257.004 251.844C255.706 252.089 254.402 252.317 253.095 252.529L253.415 254.503C254.739 254.289 256.059 254.058 257.375 253.809L257.004 251.844ZM249.163 253.113C247.853 253.291 246.539 253.452 245.223 253.597L245.442 255.585C246.774 255.438 248.105 255.275 249.432 255.095L249.163 253.113ZM241.269 253.984C239.95 254.096 238.628 254.193 237.305 254.274L237.428 256.271C238.766 256.189 240.104 256.091 241.44 255.976L241.269 253.984ZM233.336 254.47C232.012 254.52 230.688 254.554 229.364 254.573L229.393 256.573C230.732 256.554 232.072 256.519 233.411 256.469L233.336 254.47ZM225.39 254.584C224.063 254.573 222.737 254.546 221.413 254.504L221.35 256.503C222.689 256.546 224.031 256.573 225.373 256.584L225.39 254.584ZM217.446 254.335C216.12 254.263 214.797 254.176 213.476 254.075L213.324 256.069C214.659 256.172 215.997 256.259 217.338 256.332L217.446 254.335ZM209.514 253.727C208.196 253.596 206.883 253.451 205.574 253.291L205.332 255.277C206.656 255.438 207.984 255.585 209.316 255.717L209.514 253.727ZM201.621 252.765C200.307 252.574 198.998 252.37 197.695 252.151L197.364 254.124C198.682 254.345 200.006 254.552 201.335 254.744L201.621 252.765ZM193.793 251.451C192.483 251.2 191.179 250.935 189.883 250.656L189.462 252.611C190.773 252.893 192.092 253.161 193.418 253.415L193.793 251.451ZM186.019 249.776C184.724 249.466 183.438 249.141 182.161 248.802L181.648 250.735C182.94 251.078 184.242 251.407 185.552 251.721L186.019 249.776ZM178.326 247.734C177.058 247.365 175.801 246.981 174.555 246.584L173.947 248.489C175.209 248.892 176.483 249.28 177.766 249.655L178.326 247.734ZM170.756 245.318C169.502 244.882 168.261 244.432 167.034 243.968L166.327 245.839C167.571 246.31 168.829 246.766 170.1 247.207L170.756 245.318ZM163.34 242.514C162.103 242.008 160.882 241.486 159.678 240.951L158.866 242.779C160.088 243.322 161.327 243.851 162.581 244.365L163.34 242.514ZM156.111 239.303C154.898 238.72 153.703 238.122 152.529 237.509L151.604 239.283C152.799 239.905 154.012 240.513 155.245 241.105L156.111 239.303ZM149.066 235.63C147.9 234.972 146.756 234.299 145.636 233.612L144.59 235.317C145.732 236.017 146.896 236.702 148.082 237.372L149.066 235.63ZM142.305 231.48C141.199 230.741 140.119 229.988 139.066 229.22L137.888 230.836C138.963 231.62 140.066 232.39 141.195 233.143L142.305 231.48ZM135.915 226.813C134.881 225.986 133.879 225.144 132.909 224.288L131.585 225.787C132.58 226.665 133.607 227.528 134.665 228.375L135.915 226.813ZM130.003 221.585C129.062 220.66 128.157 219.721 127.291 218.767L125.811 220.112C126.703 221.095 127.634 222.062 128.602 223.012L130.003 221.585ZM124.723 215.754C123.901 214.726 123.124 213.682 122.392 212.623L120.747 213.761C121.506 214.858 122.311 215.939 123.16 217.002L124.723 215.754ZM120.275 209.303C119.613 208.17 119.002 207.022 118.444 205.86L116.641 206.726C117.223 207.938 117.859 209.134 118.549 210.312L120.275 209.303ZM116.907 202.263C116.679 201.656 116.466 201.046 116.267 200.432L114.364 201.048C114.573 201.691 114.796 202.33 115.035 202.966L116.907 202.263ZM116.267 200.432C116.054 199.775 115.85 199.122 115.653 198.474L113.739 199.055C113.939 199.715 114.148 200.379 114.364 201.048L116.267 200.432ZM114.567 194.64C114.219 193.315 113.906 192.01 113.626 190.724L111.672 191.15C111.958 192.463 112.278 193.796 112.632 195.148L114.567 194.64ZM112.87 186.837C112.639 185.489 112.447 184.165 112.291 182.863L110.305 183.101C110.465 184.436 110.662 185.794 110.898 187.174L112.87 186.837ZM111.923 178.886C111.837 177.541 111.79 176.222 111.783 174.93L109.783 174.941C109.791 176.273 109.838 177.631 109.928 179.015L111.923 178.886ZM111.889 170.95C111.97 169.596 112.095 168.274 112.263 166.982L110.28 166.724C110.106 168.062 109.976 169.432 109.893 170.831L111.889 170.95ZM112.922 163.073C113.196 161.759 113.516 160.481 113.88 159.237L111.961 158.674C111.581 159.97 111.248 161.3 110.964 162.666L112.922 163.073ZM115.15 155.498C115.633 154.253 116.163 153.047 116.739 151.88L114.945 150.996C114.343 152.216 113.789 153.476 113.285 154.775L115.15 155.498ZM118.646 148.413C119.338 147.279 120.076 146.187 120.857 145.137L119.251 143.944C118.435 145.043 117.663 146.185 116.939 147.371L118.646 148.413ZM123.354 142.074C124.235 141.089 125.156 140.146 126.116 139.245L124.747 137.787C123.745 138.727 122.783 139.712 121.863 140.742L123.354 142.074ZM129.113 136.664C130.148 135.847 131.218 135.072 132.319 134.339L131.211 132.674C130.066 133.436 128.952 134.243 127.874 135.095L129.113 136.664ZM135.703 132.274C136.855 131.631 138.034 131.029 139.238 130.469L138.395 128.655C137.147 129.236 135.924 129.86 134.728 130.528L135.703 132.274ZM142.898 128.921C144.132 128.448 145.386 128.017 146.659 127.625L146.07 125.713C144.756 126.118 143.459 126.564 142.183 127.053L142.898 128.921ZM150.499 126.576C151.786 126.268 153.087 125.999 154.399 125.769L154.053 123.799C152.702 124.036 151.361 124.314 150.033 124.631L150.499 126.576ZM158.341 125.198C159.658 125.047 160.982 124.933 162.311 124.857L162.198 122.861C160.83 122.938 159.468 123.055 158.112 123.211L158.341 125.198ZM166.297 124.743C167.625 124.743 168.955 124.78 170.284 124.853L170.395 122.856C169.029 122.781 167.662 122.743 166.296 122.743L166.297 124.743ZM174.258 125.185C175.58 125.333 176.898 125.517 178.208 125.738L178.541 123.766C177.193 123.539 175.839 123.349 174.48 123.198L174.258 125.185ZM182.119 126.512C183.417 126.807 184.704 127.139 185.978 127.507L186.533 125.586C185.222 125.206 183.897 124.865 182.563 124.561L182.119 126.512ZM189.771 128.726C191.025 129.171 192.264 129.653 193.482 130.171L194.265 128.331C193.008 127.796 191.732 127.299 190.439 126.841L189.771 128.726ZM197.094 131.845C198.282 132.442 199.447 133.077 200.586 133.749L201.601 132.026C200.423 131.331 199.219 130.675 197.993 130.058L197.094 131.845ZM203.936 135.884C204.482 136.259 205.02 136.643 205.55 137.037L206.742 135.431C206.192 135.023 205.635 134.625 205.07 134.236L203.936 135.884ZM205.55 137.037C205.99 137.364 206.481 137.764 207.014 138.24L208.345 136.747C207.774 136.238 207.237 135.799 206.742 135.431L205.55 137.037ZM209.79 141.01C210.609 141.908 211.471 142.921 212.358 144.047L213.929 142.809C213.013 141.647 212.12 140.597 211.268 139.662L209.79 141.01ZM214.704 147.216C215.429 148.257 216.161 149.366 216.89 150.543L218.59 149.489C217.842 148.282 217.091 147.143 216.346 146.073L214.704 147.216ZM218.907 153.987C219.527 155.111 220.14 156.284 220.741 157.505L222.536 156.622C221.921 155.372 221.293 154.171 220.657 153.02L218.907 153.987ZM222.411 161.112C222.929 162.301 223.432 163.529 223.916 164.795L225.784 164.081C225.289 162.786 224.775 161.53 224.245 160.314L222.411 161.112ZM225.254 168.545C225.664 169.782 226.055 171.051 226.424 172.353L228.349 171.807C227.972 170.477 227.572 169.18 227.152 167.915L225.254 168.545ZM227.428 176.21C227.73 177.484 228.009 178.784 228.264 180.112L230.229 179.735C229.968 178.379 229.682 177.05 229.374 175.749L227.428 176.21ZM228.931 184.03C229.123 185.321 229.291 186.636 229.434 187.974L231.422 187.762C231.277 186.397 231.105 185.055 230.91 183.737L228.931 184.03ZM229.773 191.939C229.858 193.247 229.919 194.575 229.952 195.924L231.952 195.874C231.917 194.498 231.856 193.144 231.769 191.809L229.773 191.939ZM229.973 199.924C229.954 201.231 229.909 202.556 229.838 203.899L231.836 204.004C231.908 202.636 231.953 201.285 231.972 199.953L229.973 199.924ZM229.554 207.866C229.436 209.174 229.293 210.498 229.122 211.838L231.106 212.09C231.28 210.727 231.426 209.378 231.546 208.046L229.554 207.866ZM228.547 215.799C228.337 217.087 228.102 218.39 227.841 219.706L229.803 220.095C230.068 218.756 230.307 217.432 230.521 216.121L228.547 215.799ZM226.999 223.615C226.7 224.897 226.377 226.191 226.029 227.497L227.962 228.013C228.315 226.686 228.643 225.371 228.947 224.069L226.999 223.615ZM224.946 231.323C224.566 232.59 224.163 233.868 223.734 235.157L225.632 235.787C226.067 234.48 226.476 233.183 226.862 231.897L224.946 231.323ZM222.428 238.909C221.977 240.147 221.503 241.395 221.006 242.653L222.866 243.388C223.37 242.114 223.85 240.849 224.307 239.593L222.428 238.909ZM219.487 246.352C218.972 247.561 218.435 248.778 217.876 250.004L219.696 250.834C220.262 249.593 220.805 248.36 221.327 247.136L219.487 246.352ZM216.165 253.638C215.592 254.817 214.998 256.004 214.384 257.199L216.162 258.114C216.784 256.906 217.384 255.705 217.964 254.512L216.165 253.638ZM212.501 260.757C211.875 261.909 211.23 263.068 210.564 264.233L212.3 265.225C212.973 264.048 213.626 262.876 214.259 261.712L212.501 260.757ZM208.532 267.706C207.856 268.834 207.162 269.968 206.449 271.107L208.144 272.168C208.865 271.018 209.565 269.873 210.248 268.734L208.532 267.706ZM204.287 274.489C203.917 275.056 203.543 275.624 203.164 276.193L204.828 277.302C205.211 276.727 205.589 276.154 205.962 275.582L204.287 274.489ZM203.164 276.193C202.791 276.752 202.418 277.305 202.043 277.853L203.693 278.983C204.073 278.428 204.451 277.867 204.828 277.302L203.164 276.193ZM199.774 281.078C199.002 282.146 198.224 283.192 197.441 284.218L199.031 285.432C199.824 284.392 200.613 283.332 201.395 282.25L199.774 281.078ZM194.997 287.328C194.172 288.35 193.34 289.35 192.504 290.328L194.024 291.628C194.872 290.636 195.716 289.622 196.553 288.586L194.997 287.328ZM189.886 293.299C189.004 294.272 188.116 295.221 187.224 296.148L188.665 297.535C189.571 296.594 190.472 295.63 191.367 294.643L189.886 293.299ZM184.436 298.956C183.495 299.875 182.55 300.769 181.601 301.64L182.953 303.114C183.918 302.229 184.878 301.32 185.833 300.387L184.436 298.956ZM178.649 304.263C177.65 305.122 176.647 305.955 175.641 306.765L176.895 308.323C177.918 307.5 178.937 306.652 179.952 305.779L178.649 304.263ZM172.534 309.181C171.479 309.975 170.42 310.742 169.358 311.485L170.505 313.124C171.585 312.368 172.662 311.587 173.736 310.78L172.534 309.181ZM166.11 313.677C164.999 314.399 163.887 315.095 162.773 315.766L163.805 317.479C164.939 316.797 166.07 316.089 167.2 315.354L166.11 313.677ZM159.397 317.721C158.237 318.366 157.076 318.985 155.915 319.579L156.825 321.36C158.007 320.756 159.188 320.126 160.369 319.469L159.397 317.721ZM152.395 321.302C151.201 321.861 150.007 322.395 148.816 322.903L149.601 324.743C150.813 324.225 152.028 323.683 153.243 323.114L152.395 321.302ZM145.169 324.384C143.941 324.859 142.716 325.308 141.494 325.732L142.15 327.621C143.394 327.189 144.64 326.733 145.89 326.25L145.169 324.384ZM137.76 326.958C136.496 327.349 135.237 327.716 133.984 328.058L134.511 329.987C135.785 329.639 137.066 329.267 138.352 328.869L137.76 326.958ZM130.189 329.027C128.902 329.333 127.623 329.614 126.353 329.873L126.751 331.833C128.043 331.57 129.343 331.284 130.651 330.973L130.189 329.027ZM122.482 330.595C121.177 330.817 119.883 331.015 118.602 331.192L118.875 333.173C120.177 332.994 121.491 332.792 122.817 332.567L122.482 330.595ZM114.717 331.665C113.393 331.805 112.083 331.923 110.79 332.02L110.94 334.015C112.253 333.916 113.583 333.796 114.928 333.654L114.717 331.665ZM106.859 332.256C105.528 332.315 104.217 332.354 102.929 332.373L102.96 334.373C104.267 334.353 105.597 334.314 106.948 334.254L106.859 332.256ZM99.0039 332.374C97.6678 332.355 96.3601 332.317 95.0832 332.262L94.9968 334.26C96.2925 334.316 97.6195 334.355 98.9754 334.374L99.0039 332.374ZM91.1671 332.036C89.8196 331.939 88.5136 331.824 87.2521 331.697L87.0508 333.686C88.3308 333.816 89.656 333.932 91.0232 334.031L91.1671 332.036ZM83.3425 331.243C81.9708 331.064 80.6664 330.872 79.4346 330.673L79.1159 332.647C80.3668 332.849 81.691 333.044 83.0832 333.227L83.3425 331.243ZM75.548 329.983C74.1371 329.71 72.8656 329.437 71.7464 329.18L71.2989 331.13C72.4393 331.391 73.7331 331.669 75.1673 331.947L75.548 329.983Z" fill="#3C3C3C"/>
</svg>
