<svg width="78" height="78" viewBox="0 0 78 78" fill="none" xmlns="http://www.w3.org/2000/svg">
<path d="M3.65625 18.2812H6.70312C7.51121 18.2812 8.28619 18.6023 8.85759 19.1737C9.42899 19.7451 9.75 20.52 9.75 21.3281V63.375H3.65625V18.2812Z" fill="#F37E67"/>
<path d="M9.75 53.625H71.2969C72.105 53.625 72.8799 53.946 73.4513 54.5174C74.0227 55.0888 74.3438 55.8638 74.3438 56.6719V63.375H9.75V53.625Z" fill="#F17860"/>
<path d="M9.75 41.4375H67.6406C68.4487 41.4375 69.2237 41.7585 69.7951 42.3299C70.3665 42.9013 70.6875 43.6763 70.6875 44.4844V50.5781C70.6875 51.3862 70.3665 52.1612 69.7951 52.7326C69.2237 53.304 68.4487 53.625 67.6406 53.625H9.75V41.4375Z" fill="#EBC569"/>
<path d="M16.0485 41.4375H9.75V24.9844C9.75 24.1763 10.071 23.4013 10.6424 22.8299C11.2138 22.2585 11.9888 21.9375 12.7969 21.9375H14.3727C15.1154 21.9375 15.8324 22.2087 16.3892 22.7002C16.9459 23.1916 17.304 23.8695 17.3961 24.6064L19.0719 38.0127C19.1255 38.4414 19.0873 38.8766 18.9599 39.2894C18.8324 39.7022 18.6187 40.0832 18.3327 40.4071C18.0468 40.7309 17.6953 40.9903 17.3015 41.168C16.9076 41.3456 16.4805 41.4375 16.0485 41.4375Z" fill="#A7DDE8"/>
<path d="M13.4062 63.375H3.65625V70.6875H6.57668C7.85564 70.6875 9.10219 70.2851 10.1397 69.5372C11.1773 68.7894 11.9532 67.7341 12.3577 66.5207L13.4062 63.375Z" fill="#994635"/>
<path d="M64.5938 63.375H74.3438V70.6875H71.4233C70.1444 70.6875 68.8978 70.2851 67.8603 69.5372C66.8227 68.7894 66.0468 67.7341 65.6423 66.5207L64.5938 63.375Z" fill="#994635"/>
<path d="M31.6875 39H63.0703C63.4744 39 63.8618 39.1605 64.1475 39.4462C64.4332 39.7319 64.5938 40.1194 64.5938 40.5234V48.75H31.6875V39Z" fill="#A7DDE8"/>
<path d="M24.375 39H31.6875V48.75H24.375V39Z" fill="#E4F7FB"/>
<path d="M48.5265 25.3365L46.9729 28.1772L44.1323 29.7308L46.9729 31.2844L48.5265 34.125L50.0801 31.2844L52.9209 29.7308L50.0801 28.1772L48.5265 25.3365Z" fill="#EBC569"/>
<path d="M33.6442 12.1875L32.0906 15.0281L29.25 16.5817L32.0906 18.1353L33.6442 20.9761L35.1978 18.1353L38.0386 16.5817L35.1978 15.0281L33.6442 12.1875Z" fill="#EBC569"/>
<path d="M56.5433 7.3125L54.9897 10.1531L52.1489 11.7067L54.9897 13.2603L56.5433 16.1011L58.0969 13.2603L60.9375 11.7067L58.0969 10.1531L56.5433 7.3125Z" fill="#EBC569"/>
<path d="M71.4922 52.4108C71.7655 51.8386 71.907 51.2123 71.9062 50.5781V44.4844C71.905 43.3535 71.4551 42.2692 70.6555 41.4695C69.8558 40.6699 68.7715 40.22 67.6406 40.2188H65.7956C65.7198 39.5487 65.4002 38.93 64.8976 38.4805C64.395 38.031 63.7446 37.7821 63.0703 37.7813H24.375C24.0518 37.7813 23.7418 37.9097 23.5132 38.1382C23.2847 38.3668 23.1562 38.6768 23.1562 39V40.2188H19.9023C20.2503 39.4851 20.3817 38.6673 20.2812 37.8615L18.6054 24.4553C18.4751 23.4242 17.9734 22.476 17.1943 21.7882C16.4152 21.1004 15.4121 20.7202 14.3729 20.7188H12.7969C12.1627 20.718 11.5364 20.8595 10.9642 21.1328C10.9127 20.0369 10.4414 19.0029 9.64809 18.2451C8.85476 17.4872 7.80023 17.0638 6.70312 17.0625H3.65625C3.33302 17.0625 3.02302 17.1909 2.79446 17.4195C2.5659 17.648 2.4375 17.958 2.4375 18.2813V24.375H4.875V19.5H6.70312C7.18781 19.5005 7.6525 19.6933 7.99523 20.036C8.33795 20.3788 8.53073 20.8434 8.53125 21.3281V62.1563H4.875V26.8125H2.4375V70.6875C2.4375 71.0107 2.5659 71.3207 2.79446 71.5493C3.02302 71.7779 3.33302 71.9063 3.65625 71.9063H6.57668C8.11179 71.9077 9.60833 71.4254 10.8537 70.5278C12.099 69.6302 13.0299 68.363 13.514 66.9062L14.2847 64.5938H56.0625V62.1563H10.9688V54.8438H71.2969C71.7816 54.8443 72.2462 55.0371 72.589 55.3798C72.9317 55.7225 73.1245 56.1872 73.125 56.6719V62.1563H58.5V64.5938H63.7153L64.486 66.9063C64.9702 68.3631 65.901 69.6302 67.1464 70.5278C68.3917 71.4254 69.8882 71.9077 71.4233 71.9063H74.3438C74.667 71.9063 74.977 71.7779 75.2055 71.5493C75.4341 71.3207 75.5625 71.0107 75.5625 70.6875V56.6719C75.5612 55.5748 75.1378 54.5202 74.3799 53.7269C73.6221 52.9336 72.5881 52.4623 71.4922 52.4108ZM11.7152 64.5938L11.2014 66.1353C10.8787 67.1065 10.2582 67.9513 9.42797 68.5497C8.59775 69.1481 7.60008 69.4697 6.57668 69.4688H4.875V64.5938H11.7152ZM63.375 40.5234V47.5313H32.9062V40.2188H63.0703C63.1511 40.2188 63.2286 40.2509 63.2858 40.308C63.3429 40.3651 63.375 40.4426 63.375 40.5234ZM25.5938 40.2188H30.4688V47.5313H25.5938V40.2188ZM12.7969 23.1563H14.3729C14.8182 23.1569 15.2481 23.3199 15.582 23.6147C15.9159 23.9095 16.1308 24.3158 16.1867 24.7577L17.8625 38.1639C17.8946 38.4211 17.8717 38.6822 17.7952 38.9299C17.7188 39.1775 17.5905 39.4061 17.419 39.6004C17.2475 39.7947 17.0366 39.9504 16.8003 40.057C16.5641 40.1636 16.3078 40.2187 16.0487 40.2188H10.9688V24.9844C10.9693 24.4997 11.162 24.035 11.5048 23.6923C11.8475 23.3495 12.3122 23.1568 12.7969 23.1563ZM10.9688 52.4063V42.6563H23.1562V48.75C23.1562 49.0732 23.2847 49.3832 23.5132 49.6118C23.7418 49.8404 24.0518 49.9688 24.375 49.9688H64.5938C64.917 49.9688 65.227 49.8404 65.4555 49.6118C65.6841 49.3832 65.8125 49.0732 65.8125 48.75V42.6563H67.6406C68.1253 42.6568 68.59 42.8496 68.9327 43.1923C69.2755 43.535 69.4682 43.9997 69.4688 44.4844V50.5781C69.4682 51.0628 69.2755 51.5275 68.9327 51.8702C68.59 52.213 68.1253 52.4057 67.6406 52.4063H10.9688ZM73.125 69.4688H71.4233C70.3999 69.4697 69.4023 69.1482 68.5721 68.5498C67.7419 67.9514 67.1213 67.1066 66.7986 66.1355L66.2848 64.5938H73.125V69.4688Z" fill="#092D4B"/>
<path d="M43.5474 30.8L46.0748 32.1823L47.4573 34.7099C47.5623 34.9017 47.7169 35.0618 47.9051 35.1733C48.0932 35.2849 48.3079 35.3437 48.5266 35.3437C48.7452 35.3437 48.9599 35.2849 49.148 35.1733C49.3362 35.0618 49.4908 34.9017 49.5958 34.7099L50.9781 32.1823L53.5057 30.8C53.6975 30.695 53.8576 30.5404 53.9692 30.3522C54.0807 30.1641 54.1395 29.9494 54.1395 29.7307C54.1395 29.512 54.0807 29.2974 53.9692 29.1093C53.8576 28.9211 53.6975 28.7665 53.5057 28.6615L50.9781 27.2792L49.5958 24.7518C49.4908 24.5599 49.3362 24.3998 49.148 24.2883C48.9599 24.1768 48.7452 24.1179 48.5266 24.1179C48.3079 24.1179 48.0932 24.1768 47.9051 24.2883C47.7169 24.3998 47.5623 24.5599 47.4573 24.7518L46.0748 27.2792L43.5474 28.6615C43.3556 28.7665 43.1955 28.9211 43.0839 29.1093C42.9724 29.2974 42.9136 29.512 42.9136 29.7307C42.9136 29.9494 42.9724 30.1641 43.0839 30.3522C43.1955 30.5404 43.3556 30.695 43.5474 30.8ZM47.5577 29.2461C47.7622 29.1342 47.9303 28.9661 48.0422 28.7616L48.5265 27.8759L49.0109 28.7616C49.1228 28.9661 49.2909 29.1342 49.4954 29.2461L50.3808 29.7302L49.4954 30.2147C49.2908 30.3264 49.1227 30.4946 49.0109 30.6991L48.5265 31.5847L48.0422 30.6991C47.9303 30.4946 47.7622 30.3265 47.5577 30.2147L46.6721 29.7302L47.5577 29.2461Z" fill="#092D4B"/>
<path d="M28.6651 17.651L31.1926 19.0334L32.575 21.5608C32.68 21.7526 32.8346 21.9127 33.0227 22.0242C33.2109 22.1358 33.4255 22.1946 33.6442 22.1946C33.8629 22.1946 34.0776 22.1358 34.2657 22.0242C34.4538 21.9127 34.6085 21.7526 34.7134 21.5608L36.0958 19.0334L38.6232 17.651C38.8151 17.5461 38.9751 17.3914 39.0867 17.2033C39.1982 17.0152 39.257 16.8005 39.257 16.5818C39.257 16.3631 39.1982 16.1484 39.0867 15.9603C38.9751 15.7722 38.8151 15.6175 38.6232 15.5126L36.0958 14.1302L34.7134 11.6027C34.6085 11.4108 34.4538 11.2507 34.2657 11.1392C34.0776 11.0277 33.8629 10.9688 33.6442 10.9688C33.4255 10.9688 33.2109 11.0277 33.0227 11.1392C32.8346 11.2507 32.68 11.4108 32.575 11.6027L31.1926 14.1302L28.6651 15.5126C28.4732 15.6175 28.3131 15.7722 28.2016 15.9603C28.0901 16.1484 28.0312 16.3631 28.0312 16.5818C28.0312 16.8005 28.0901 17.0152 28.2016 17.2033C28.3131 17.3914 28.4732 17.5461 28.6651 17.651ZM32.6754 16.0971C32.8799 15.9853 33.0481 15.8172 33.1598 15.6127L33.6443 14.7272L34.1284 15.6127C34.2403 15.8171 34.4084 15.9853 34.6129 16.0971L35.4985 16.5816L34.6129 17.0657C34.4084 17.1775 34.2403 17.3457 34.1284 17.5502L33.6443 18.4357L33.1598 17.5502C33.048 17.3457 32.8799 17.1775 32.6754 17.0657L31.79 16.5816L32.6754 16.0971Z" fill="#092D4B"/>
<path d="M51.564 12.776L54.0914 14.1584L55.4738 16.6858C55.5787 16.8776 55.7334 17.0377 55.9215 17.1492C56.1096 17.2608 56.3243 17.3196 56.543 17.3196C56.7617 17.3196 56.9764 17.2608 57.1645 17.1492C57.3526 17.0377 57.5073 16.8776 57.6122 16.6858L58.9946 14.1584L61.5221 12.776C61.714 12.6711 61.8741 12.5164 61.9856 12.3283C62.0971 12.1402 62.156 11.9255 62.156 11.7068C62.156 11.4881 62.0971 11.2734 61.9856 11.0853C61.8741 10.8972 61.714 10.7425 61.5221 10.6376L58.9946 9.25519L57.6122 6.72766C57.5073 6.53579 57.3526 6.3757 57.1645 6.26418C56.9764 6.15266 56.7617 6.09381 56.543 6.09381C56.3243 6.09381 56.1096 6.15266 55.9215 6.26418C55.7334 6.3757 55.5787 6.53579 55.4738 6.72766L54.0914 9.25519L51.564 10.6376C51.3722 10.7425 51.2121 10.8972 51.1005 11.0853C50.989 11.2734 50.9302 11.4881 50.9302 11.7068C50.9302 11.9255 50.989 12.1402 51.1005 12.3283C51.2121 12.5164 51.3722 12.6711 51.564 12.776ZM55.5743 11.2221C55.7788 11.1103 55.9469 10.9421 56.0588 10.7377L56.5429 9.85223L57.0274 10.7377C57.1391 10.9422 57.3073 11.1103 57.5118 11.2221L58.3973 11.7066L57.5118 12.1907C57.3074 12.3025 57.1392 12.4707 57.0274 12.6752L56.5429 13.5607L56.0588 12.675C55.9469 12.4705 55.7788 12.3024 55.5743 12.1906L54.6888 11.7064L55.5743 11.2221Z" fill="#092D4B"/>
</svg>
