<svg width="72" height="72" viewBox="0 0 72 72" fill="none" xmlns="http://www.w3.org/2000/svg">
<path d="M69.75 28.125H2.25L35.8978 2.25L69.75 28.125Z" fill="#F87959"/>
<path d="M63 63.3023V63V28.125H9V66.375H48.6759" fill="#D8D7DA"/>
<path d="M68.625 69.75H3.375V66.375H68.625V69.75Z" fill="#A0815C"/>
<path d="M13.5 34.875H31.5V66.375H13.5V34.875Z" fill="#AAD0ED"/>
<path d="M36 34.875H58.5V55.125H36V34.875Z" fill="#AAD0ED"/>
<path d="M54 16.0861V10.125H60.75V21.2456" fill="#D8D7DA"/>
<path d="M52.875 5.625H61.875V10.125H52.875V5.625Z" fill="#F87959"/>
<path d="M48.6759 66.375C48.427 65.9442 48.3278 65.443 48.394 64.9499C48.4602 64.4568 48.688 63.9995 49.0418 63.6496C49.3955 63.2997 49.8553 63.0769 50.3491 63.0161C50.8429 62.9553 51.343 63.06 51.771 63.3136C51.7569 63.2097 51.7498 63.1049 51.75 63C51.7499 62.5924 51.8605 62.1923 52.0701 61.8427C52.2797 61.4931 52.5803 61.2069 52.9399 61.0149C53.2995 60.8228 53.7045 60.732 54.1116 60.7523C54.5188 60.7725 54.9128 60.9029 55.2515 61.1297C55.4057 60.6896 55.6929 60.3082 56.0733 60.0384C56.4537 59.7686 56.9086 59.6237 57.375 59.6237C57.8413 59.6237 58.2962 59.7686 58.6766 60.0384C59.057 60.3082 59.3442 60.6896 59.4984 61.1297C59.8372 60.9029 60.2312 60.7725 60.6383 60.7523C61.0455 60.732 61.4505 60.8228 61.81 61.0149C62.1696 61.2069 62.4702 61.4931 62.6798 61.8427C62.8894 62.1923 63.0001 62.5924 63 63C63.0001 63.1049 62.993 63.2097 62.9789 63.3136C63.3205 63.1114 63.7096 63.0031 64.1067 62.9999C64.5037 62.9967 64.8945 63.0986 65.2394 63.2952C65.5844 63.4919 65.8711 63.7763 66.0705 64.1197C66.27 64.463 66.375 64.853 66.375 65.25C66.375 65.6592 66.1303 66.0431 65.8026 66.375" fill="#B0D559"/>
<path d="M36 34.875H58.5V39.375H36V34.875Z" fill="#709ED6"/>
<path d="M70.4336 27.2306L61.8752 20.6901V11.25C62.1735 11.25 62.4597 11.1315 62.6706 10.9205C62.8816 10.7095 63.0002 10.4234 63.0002 10.125V5.62499C63.0002 5.32662 62.8816 5.04048 62.6706 4.8295C62.4597 4.61852 62.1735 4.49999 61.8752 4.49999H52.8752C52.5768 4.49999 52.2906 4.61852 52.0797 4.8295C51.8687 5.04048 51.7502 5.32662 51.7502 5.62499V10.125C51.7502 10.4234 51.8687 10.7095 52.0797 10.9205C52.2906 11.1315 52.5768 11.25 52.8752 11.25V13.8108L36.5809 1.35562C36.3843 1.20561 36.1437 1.12459 35.8963 1.12509C35.649 1.1256 35.4087 1.20761 35.2126 1.35843L1.56389 27.2334C1.3777 27.3767 1.24105 27.5747 1.17309 27.7996C1.10513 28.0245 1.10929 28.265 1.18498 28.4874C1.26067 28.7098 1.40409 28.903 1.59512 29.0397C1.78615 29.1765 2.01521 29.25 2.25014 29.25H7.87514V65.25H3.37514C3.07678 65.25 2.79063 65.3685 2.57965 65.5795C2.36867 65.7905 2.25014 66.0766 2.25014 66.375V69.75C2.25014 70.0484 2.36867 70.3345 2.57965 70.5455C2.79063 70.7565 3.07678 70.875 3.37514 70.875H68.6252C68.9235 70.875 69.2097 70.7565 69.4206 70.5455C69.6316 70.3345 69.7502 70.0484 69.7502 69.75V66.375C69.7502 66.0766 69.6316 65.7905 69.4206 65.5795C69.2097 65.3685 68.9235 65.25 68.6252 65.25H67.5002C67.499 64.3553 67.143 63.4975 66.5103 62.8648C65.8776 62.2321 65.0199 61.8762 64.1252 61.875V29.25H69.7502C69.9856 29.2502 70.2151 29.1766 70.4065 29.0394C70.5978 28.9023 70.7413 28.7086 70.8168 28.4856C70.8923 28.2627 70.8959 28.0216 70.8271 27.7965C70.7584 27.5713 70.6207 27.3734 70.4336 27.2306ZM54.0002 6.74999H60.7502V8.99999H54.0002V6.74999ZM59.6252 11.25V18.9703L55.1252 15.5306V11.25H59.6252ZM67.5002 67.5V68.625H4.50014V67.5H67.5002ZM31.5001 33.75H13.5001C13.2018 33.75 12.9156 33.8685 12.7046 34.0795C12.4937 34.2905 12.3751 34.5766 12.3751 34.875V65.25H10.1251V29.25H61.8752V59.8205C61.263 59.6019 60.6006 59.5658 59.9683 59.7164C59.6518 59.3357 59.2554 59.0294 58.8073 58.8192C58.3591 58.609 57.8702 58.5 57.3752 58.5C56.8801 58.5 56.3912 58.609 55.943 58.8192C55.4949 59.0294 55.0985 59.3357 54.782 59.7164C53.9704 59.5236 53.1162 59.6381 52.384 60.0377C51.6518 60.4373 51.0934 61.0938 50.8164 61.8806C50.7531 61.8764 50.6884 61.875 50.6252 61.875C49.7304 61.8762 48.8727 62.2321 48.24 62.8648C47.6073 63.4975 47.2513 64.3553 47.2502 65.25H32.6251V34.875C32.6251 34.5766 32.5066 34.2905 32.2956 34.0795C32.0847 33.8685 31.7985 33.75 31.5001 33.75ZM30.3751 36V65.25H14.6251V36H30.3751ZM65.2502 65.2387C65.2501 65.2427 65.2492 65.2465 65.2473 65.25H49.5002C49.5006 64.9518 49.6192 64.6658 49.8301 64.455C50.041 64.2441 50.3269 64.1254 50.6252 64.125C50.8262 64.1235 51.0238 64.1775 51.1961 64.2811C51.3782 64.3892 51.5871 64.4438 51.7989 64.4386C52.0106 64.4333 52.2166 64.3685 52.3931 64.2514C52.5697 64.1343 52.7096 63.9699 52.7969 63.7769C52.8841 63.5839 52.9151 63.3702 52.8864 63.1603C52.8783 63.1073 52.8745 63.0536 52.8752 63C52.8755 62.7963 52.9311 62.5965 53.0359 62.4219C53.1407 62.2473 53.2909 62.1044 53.4705 62.0083C53.6501 61.9122 53.8524 61.8666 54.0559 61.8763C54.2593 61.886 54.4563 61.9507 54.6259 62.0634C54.7685 62.1592 54.931 62.2211 55.1012 62.2442C55.2713 62.2674 55.4445 62.2513 55.6074 62.1971C55.7703 62.1429 55.9187 62.0521 56.0411 61.9317C56.1635 61.8113 56.2566 61.6644 56.3134 61.5023C56.3905 61.2823 56.5341 61.0916 56.7243 60.9567C56.9145 60.8218 57.142 60.7493 57.3752 60.7493C57.6083 60.7493 57.8358 60.8218 58.026 60.9567C58.2162 61.0916 58.3598 61.2823 58.4369 61.5023C58.4937 61.6644 58.5868 61.8113 58.7092 61.9317C58.8316 62.0521 58.98 62.1429 59.1429 62.1971C59.3058 62.2513 59.479 62.2674 59.6492 62.2442C59.8193 62.2211 59.9819 62.1592 60.1244 62.0634C60.294 61.9507 60.491 61.886 60.6945 61.8763C60.8979 61.8666 61.1002 61.9122 61.2798 62.0083C61.4594 62.1044 61.6096 62.2473 61.7144 62.4219C61.8192 62.5965 61.8748 62.7963 61.8752 63C61.8758 63.0536 61.872 63.1073 61.8639 63.1603C61.8352 63.3702 61.8662 63.5839 61.9535 63.7769C62.0407 63.9699 62.1806 64.1343 62.3572 64.2514C62.5337 64.3685 62.7397 64.4333 62.9514 64.4386C63.1632 64.4438 63.3721 64.3892 63.5542 64.2811C63.7265 64.1775 63.9241 64.1235 64.1252 64.125C64.4216 64.1248 64.7062 64.2417 64.9169 64.4503C65.1276 64.6589 65.2474 64.9423 65.2502 65.2387ZM5.55905 27L35.9003 3.66749L66.4258 27H5.55905Z" fill="#092D4B"/>
<path d="M28.125 54C28.4234 54 28.7095 53.8815 28.9205 53.6705C29.1315 53.4595 29.25 53.1734 29.25 52.875V48.375C29.25 48.0766 29.1315 47.7905 28.9205 47.5795C28.7095 47.3685 28.4234 47.25 28.125 47.25C27.8266 47.25 27.5405 47.3685 27.3295 47.5795C27.1185 47.7905 27 48.0766 27 48.375V52.875C27 53.1734 27.1185 53.4595 27.3295 53.6705C27.5405 53.8815 27.8266 54 28.125 54Z" fill="black"/>
<path d="M36 56.25H58.5C58.7984 56.25 59.0845 56.1315 59.2955 55.9205C59.5065 55.7095 59.625 55.4234 59.625 55.125V34.875C59.625 34.5766 59.5065 34.2905 59.2955 34.0795C59.0845 33.8685 58.7984 33.75 58.5 33.75H36C35.7016 33.75 35.4155 33.8685 35.2045 34.0795C34.9935 34.2905 34.875 34.5766 34.875 34.875V55.125C34.875 55.4234 34.9935 55.7095 35.2045 55.9205C35.4155 56.1315 35.7016 56.25 36 56.25ZM37.125 54V40.5H57.375V54H37.125ZM37.125 36H57.375V38.25H37.125V36Z" fill="#092D4B"/>
</svg>
