<svg width="75" height="75" viewBox="0 0 75 75" fill="none" xmlns="http://www.w3.org/2000/svg">
<path d="M44.9199 22.2284C43.6681 22.2284 42.6496 21.2099 42.6496 19.9581V11.7444C42.6496 10.7691 41.856 9.97575 40.8808 9.97575H28.3764C27.4011 9.97575 26.6076 10.7691 26.6076 11.7444V19.9581C26.6076 21.2099 25.5891 22.2284 24.3373 22.2284C23.0854 22.2284 22.0669 21.2099 22.0669 19.9581V11.7444C22.0669 8.2654 24.8973 5.43503 28.3764 5.43503H40.8808C44.3599 5.43503 47.1903 8.2654 47.1903 11.7444V19.9581C47.1903 21.2101 46.1718 22.2284 44.9199 22.2284Z" fill="#8BB5D6"/>
<path d="M61.644 63.5884H7.61367C4.01558 63.5884 1.09863 60.6717 1.09863 57.0734V23.1841C1.09863 19.586 4.01543 16.6691 7.61367 16.6691H61.644C65.2421 16.6691 68.159 19.5859 68.159 23.1841V57.0734C68.1589 60.6715 65.2421 63.5884 61.644 63.5884Z" fill="#DDB7A0"/>
<path d="M61.6441 16.6692H52.3682C55.9663 16.6692 58.8832 19.586 58.8832 23.1843V57.0736C58.8832 60.6717 55.9664 63.5886 52.3682 63.5886H61.6441C65.2422 63.5886 68.1592 60.6718 68.1592 57.0736V23.1841C68.159 19.586 65.2422 16.6692 61.6441 16.6692Z" fill="#D6A889"/>
<path d="M61.644 16.6701H7.61367C4.01558 16.6701 1.09863 19.5869 1.09863 23.1851V27.7162C1.09863 34.2362 6.38408 39.5216 12.9041 39.5216H56.3533C62.8733 39.5216 68.1587 34.2362 68.1587 27.7162V23.185C68.1589 19.5869 65.2421 16.6701 61.644 16.6701Z" fill="#CC9675"/>
<path d="M61.6441 16.6692H52.3682C55.9663 16.6692 58.8832 19.586 58.8832 23.1843V39.2463C64.1871 38.0879 68.1592 33.3667 68.1592 27.7153V23.1841C68.159 19.586 65.2422 16.6692 61.6441 16.6692Z" fill="#C4845C"/>
<path d="M16.0846 47.6278C14.4031 47.6278 13.04 46.2648 13.04 44.5833V37.5078C13.04 35.8264 14.4031 34.4633 16.0846 34.4633C17.7659 34.4633 19.1291 35.8263 19.1291 37.5078V44.5833C19.129 46.2648 17.7659 47.6278 16.0846 47.6278Z" fill="#F4FBFF"/>
<path d="M13.04 42.3049V44.5833C13.04 46.2646 14.4031 47.6278 16.0846 47.6278C17.7659 47.6278 19.1291 46.2648 19.1291 44.5833V42.3049H13.04Z" fill="#E4F6FF"/>
<path d="M45.3237 49.0051L48.4481 52.1294L41.9038 58.6736L38.7795 55.5493L45.3237 49.0051Z" fill="#F4FBFF"/>
<path d="M33.7874 68.5537L42.7462 59.5948C43.2596 59.0814 43.2596 58.2491 42.7462 57.7358L39.7267 54.7163C39.2133 54.2029 38.381 54.2029 37.8677 54.7163L28.9088 63.6751C27.5616 65.0224 27.5616 67.2064 28.9088 68.5537C30.2561 69.9007 32.4401 69.9007 33.7874 68.5537Z" fill="#8BB5D6"/>
<path d="M42.7462 57.7358L39.7268 54.7163C39.2135 54.2029 38.3812 54.2029 37.8677 54.7163L35.8921 56.6919L40.7706 61.5705L42.7462 59.5948C43.2595 59.0814 43.2595 58.2491 42.7462 57.7358Z" fill="#4480AE"/>
<path d="M56.7908 57.7786C66.2386 57.7786 73.8976 50.1196 73.8976 40.6718C73.8976 31.224 66.2386 23.5651 56.7908 23.5651C47.343 23.5651 39.6841 31.224 39.6841 40.6718C39.6841 50.1196 47.343 57.7786 56.7908 57.7786Z" fill="#E4F6FF"/>
<path d="M56.7906 52.7681C63.4711 52.7681 68.8868 47.3524 68.8868 40.6718C68.8868 33.9913 63.4711 28.5756 56.7906 28.5756C50.11 28.5756 44.6943 33.9913 44.6943 40.6718C44.6943 47.3524 50.11 52.7681 56.7906 52.7681Z" fill="#E8F1FD"/>
<path d="M65.3442 32.1185C61.7777 28.552 56.5392 27.68 52.1528 29.4987C53.5764 30.0889 54.9107 30.9609 56.0682 32.1185C60.792 36.8423 60.792 44.5012 56.0682 49.2252C54.9107 50.3827 53.5764 51.2547 52.1528 51.8449C56.539 53.6635 61.7777 52.7915 65.3442 49.2252C70.068 44.5012 70.068 36.8423 65.3442 32.1185Z" fill="#C5DBF9"/>
<path d="M69.6637 27.7988C69.5301 27.6652 69.3943 27.5348 69.2574 27.4059V23.1841C69.2574 18.986 65.8419 15.5706 61.6438 15.5706H48.289V11.7444C48.289 7.65954 44.9657 4.3364 40.881 4.3364H28.3767C24.2918 4.3364 20.9687 7.65954 20.9687 11.7444V15.5706H7.61353C3.41543 15.5706 0 18.986 0 23.1841V57.0734C0 61.2715 3.41543 64.6869 7.61353 64.6869H23.5094C24.1162 64.6869 24.6081 64.195 24.6081 63.5883C24.6081 62.9816 24.1162 62.4897 23.5094 62.4897H7.61353C4.62686 62.4897 2.19712 60.0599 2.19712 57.0733V34.9102C4.34839 38.1012 7.88716 40.2828 11.9411 40.5832V44.5831C11.9411 46.8675 13.7997 48.7261 16.0841 48.7261C18.3687 48.7261 20.2273 46.8675 20.2273 44.5831V40.6191H38.586C38.586 40.6367 38.5854 40.6541 38.5854 40.6717C38.5854 44.4128 39.7074 47.981 41.7901 50.994L39.4578 53.3263C38.6433 53.0959 37.7307 53.2994 37.091 53.9394L28.1322 62.8982C26.3588 64.6715 26.3588 67.557 28.1322 69.3303C29.9096 71.1078 32.7867 71.1081 34.5643 69.3303L43.5231 60.3715C44.163 59.7317 44.3666 58.8192 44.1362 58.0047L46.4706 55.6704C52.6438 59.9221 60.8728 59.9356 67.0604 55.7048V57.0734C67.0604 60.0601 64.6307 62.4898 61.644 62.4898H44.2909C43.6841 62.4898 43.1922 62.9817 43.1922 63.5884C43.1922 64.1952 43.6841 64.6871 44.2909 64.6871H61.6438C65.8419 64.6871 69.2574 61.2716 69.2574 57.0736V53.9378C69.3942 53.8091 69.53 53.6788 69.6637 53.545C76.7783 46.4304 76.7792 34.9143 69.6637 27.7988ZM23.1656 11.7444C23.1656 8.87111 25.5032 6.53351 28.3765 6.53351H40.8809C43.7541 6.53351 46.0918 8.87111 46.0918 11.7444V15.5706H43.7481V11.7444C43.7481 10.1634 42.4619 8.87712 40.8809 8.87712H28.3765C26.7955 8.87712 25.5092 10.1634 25.5092 11.7444V15.5706H23.1656V11.7444ZM27.7063 15.5706V11.7444C27.7063 11.375 28.0069 11.0744 28.3765 11.0744H40.8809C41.2504 11.0744 41.551 11.375 41.551 11.7444V15.5706H27.7063ZM18.0302 41.2064H14.1384V37.5079C14.1384 36.4349 15.0113 35.562 16.0843 35.562C17.1573 35.562 18.0302 36.4349 18.0302 37.5079V41.2064ZM16.0843 46.5292C15.0113 46.5292 14.1384 45.6563 14.1384 44.5833V43.4035H18.0302V44.5833C18.0302 45.6563 17.1573 46.5292 16.0843 46.5292ZM20.2273 38.4221V37.5079C20.2273 35.2235 18.3687 33.3649 16.0841 33.3649C13.7997 33.3649 11.9411 35.2235 11.9411 37.5079V38.3767C6.48706 37.8881 2.19712 33.2943 2.19712 27.7153V23.1841C2.19712 20.1974 4.62686 17.7677 7.61353 17.7677H61.6438C64.6305 17.7677 67.0603 20.1974 67.0603 23.1841V25.6349C60.1132 20.8688 50.3275 21.3886 43.9176 27.7986C41.015 30.7011 39.2134 34.4111 38.7223 38.422L20.2273 38.4221ZM33.0105 67.7769C32.0918 68.6956 30.6045 68.6958 29.6856 67.7769C29.2415 67.3327 28.997 66.7424 28.997 66.1144C28.997 65.4864 29.2415 64.896 29.6856 64.452L35.892 58.2456L39.2169 61.5705L33.0105 67.7769ZM41.9694 58.818L40.7706 60.0169L37.4457 56.692L38.6445 55.4931C38.6867 55.4511 38.7419 55.43 38.7971 55.43C38.8523 55.43 38.9076 55.4511 38.9496 55.493L41.9694 58.5126C42.0535 58.5968 42.0535 58.7338 41.9694 58.818ZM42.7988 56.2348L41.2276 54.6636L43.1563 52.7348C43.4013 53.0109 43.6544 53.2817 43.9176 53.5447C44.1814 53.8086 44.4521 54.0614 44.7278 54.3056L42.7988 56.2348ZM45.4712 51.9913C42.4477 48.9678 40.7826 44.9477 40.7826 40.6718C40.7826 36.396 42.4477 32.3758 45.4712 29.3524C51.727 23.0965 61.8535 23.0956 68.1101 29.3524C74.366 35.6082 74.3669 45.7346 68.1101 51.9913C61.8541 58.2473 51.7279 58.2481 45.4712 51.9913Z" fill="#092D4B"/>
<path d="M68.843 42.1803C68.2502 42.0514 67.6649 42.4273 67.5361 43.0204C67.089 45.0762 66.0625 46.9532 64.5672 48.4484C60.2692 52.7463 53.3125 52.7467 49.014 48.4484C44.726 44.1604 44.726 37.1833 49.014 32.8953C53.312 28.5973 60.2687 28.5969 64.5672 32.8953C66.0609 34.389 67.0871 36.264 67.5349 38.3175C67.6641 38.9104 68.2496 39.2867 68.8423 39.1569C69.4351 39.0277 69.8109 38.4424 69.6817 37.8495C69.1441 35.3839 67.9127 33.1336 66.1209 31.3417C60.9642 26.185 52.6178 26.1844 47.4606 31.3417C42.3159 36.4863 42.3159 44.8573 47.4606 50.002C52.6051 55.1465 60.9759 55.1468 66.1209 50.002C67.9146 48.2083 69.1464 45.9555 69.6831 43.4873C69.8119 42.8944 69.4359 42.3094 68.843 42.1803Z" fill="#092D4B"/>
</svg>
