<svg width="28" height="28" viewBox="0 0 28 28" fill="none" xmlns="http://www.w3.org/2000/svg">
<ellipse cx="14.0064" cy="13.9647" rx="13.9937" ry="13.9647" fill="#E0286A"/>
<g clip-path="url(#clip0_59_161)">
<path d="M16.8125 8.70312C16.1613 8.70312 15.5643 8.90947 15.0381 9.31644C14.5336 9.7066 14.1977 10.2035 14 10.5649C13.8023 10.2035 13.4664 9.7066 12.9619 9.31644C12.4357 8.90947 11.8387 8.70312 11.1875 8.70312C9.37034 8.70312 8 10.1895 8 12.1605C8 14.2899 9.7096 15.7468 12.2977 17.9523C12.7372 18.3269 13.2354 18.7514 13.7532 19.2042C13.8214 19.264 13.9091 19.2969 14 19.2969C14.0909 19.2969 14.1786 19.264 14.2468 19.2042C14.7647 18.7514 15.2628 18.3268 15.7026 17.9521C18.2904 15.7468 20 14.2899 20 12.1605C20 10.1895 18.6297 8.70312 16.8125 8.70312Z" fill="white"/>
</g>
<defs>
<clipPath id="clip0_59_161">
<rect width="12" height="12" fill="white" transform="translate(8 8)"/>
</clipPath>
</defs>
</svg>
