<svg width="10" height="15" viewBox="0 0 10 15" fill="none" xmlns="http://www.w3.org/2000/svg">
<path d="M5 0C7.75695 0 10 2.23839 10 4.98961C10 5.81553 9.79308 6.63443 9.39971 7.36077L5.27343 14.808C5.2185 14.9073 5.11382 14.9688 5 14.9688C4.88618 14.9688 4.7815 14.9073 4.72657 14.808L0.598768 7.35831C0.206923 6.63443 -1.63519e-07 5.8155 -1.63519e-07 4.98958C-1.63519e-07 2.23839 2.24305 0 5 0ZM5 7.48441C6.37847 7.48441 7.49999 6.36522 7.49999 4.98961C7.49999 3.614 6.37847 2.49482 5 2.49482C3.62153 2.49482 2.50001 3.614 2.50001 4.98961C2.50001 6.36522 3.62153 7.48441 5 7.48441Z" fill="#282F3A"/>
</svg>
