<svg width="13" height="20" viewBox="0 0 13 20" fill="none" xmlns="http://www.w3.org/2000/svg">
<path d="M6.5 0.0706482C10.084 0.0706482 13 3.04908 13 6.70988C13 7.80886 12.731 8.89849 12.2196 9.86496L6.85545 19.7744C6.78404 19.9065 6.64796 19.9883 6.5 19.9883C6.35204 19.9883 6.21596 19.9065 6.14454 19.7744L0.778399 9.8617C0.269 8.89849 0 7.80882 0 6.70984C0 3.04908 2.91597 0.0706482 6.5 0.0706482ZM6.5 10.0295C8.29202 10.0295 9.74998 8.54029 9.74998 6.70988C9.74998 4.87948 8.29202 3.39029 6.5 3.39029C4.70798 3.39029 3.25002 4.87948 3.25002 6.70988C3.25002 8.54029 4.70798 10.0295 6.5 10.0295Z" fill="#E0286A"/>
</svg>
