<svg width="123" height="34" viewBox="0 0 123 34" fill="none" xmlns="http://www.w3.org/2000/svg">
<path d="M8.485 27.06H18.565V33H0.79V1.41H8.485V27.06ZM37.1753 33.315C34.2053 33.315 31.4753 32.625 28.9853 31.245C26.5253 29.865 24.5603 27.945 23.0903 25.485C21.6503 22.995 20.9303 20.205 20.9303 17.115C20.9303 14.025 21.6503 11.25 23.0903 8.79C24.5603 6.33 26.5253 4.41 28.9853 3.03C31.4753 1.65 34.2053 0.959999 37.1753 0.959999C40.1453 0.959999 42.8603 1.65 45.3203 3.03C47.8103 4.41 49.7603 6.33 51.1703 8.79C52.6103 11.25 53.3303 14.025 53.3303 17.115C53.3303 20.205 52.6103 22.995 51.1703 25.485C49.7303 27.945 47.7803 29.865 45.3203 31.245C42.8603 32.625 40.1453 33.315 37.1753 33.315ZM37.1753 26.295C39.6953 26.295 41.7053 25.455 43.2053 23.775C44.7353 22.095 45.5003 19.875 45.5003 17.115C45.5003 14.325 44.7353 12.105 43.2053 10.455C41.7053 8.775 39.6953 7.935 37.1753 7.935C34.6253 7.935 32.5853 8.76 31.0553 10.41C29.5553 12.06 28.8053 14.295 28.8053 17.115C28.8053 19.905 29.5553 22.14 31.0553 23.82C32.5853 25.47 34.6253 26.295 37.1753 26.295ZM78.5813 11.4C78.0113 10.35 77.1863 9.555 76.1063 9.015C75.0563 8.445 73.8113 8.16 72.3713 8.16C69.8813 8.16 67.8863 8.985 66.3863 10.635C64.8863 12.255 64.1363 14.43 64.1363 17.16C64.1363 20.07 64.9163 22.35 66.4763 24C68.0663 25.62 70.2413 26.43 73.0013 26.43C74.8913 26.43 76.4813 25.95 77.7713 24.99C79.0913 24.03 80.0513 22.65 80.6513 20.85H70.8863V15.18H87.6263V22.335C87.0563 24.255 86.0813 26.04 84.7013 27.69C83.3513 29.34 81.6263 30.675 79.5263 31.695C77.4263 32.715 75.0563 33.225 72.4163 33.225C69.2963 33.225 66.5063 32.55 64.0463 31.2C61.6163 29.82 59.7113 27.915 58.3313 25.485C56.9813 23.055 56.3063 20.28 56.3063 17.16C56.3063 14.04 56.9813 11.265 58.3313 8.835C59.7113 6.375 61.6163 4.47 64.0463 3.12C66.4763 1.74 69.2513 1.05 72.3713 1.05C76.1513 1.05 79.3313 1.965 81.9113 3.795C84.5213 5.625 86.2463 8.16 87.0863 11.4H78.5813ZM106.829 33.315C103.859 33.315 101.129 32.625 98.6386 31.245C96.1786 29.865 94.2136 27.945 92.7436 25.485C91.3036 22.995 90.5836 20.205 90.5836 17.115C90.5836 14.025 91.3036 11.25 92.7436 8.79C94.2136 6.33 96.1786 4.41 98.6386 3.03C101.129 1.65 103.859 0.959999 106.829 0.959999C109.799 0.959999 112.514 1.65 114.974 3.03C117.464 4.41 119.414 6.33 120.824 8.79C122.264 11.25 122.984 14.025 122.984 17.115C122.984 20.205 122.264 22.995 120.824 25.485C119.384 27.945 117.434 29.865 114.974 31.245C112.514 32.625 109.799 33.315 106.829 33.315ZM106.829 26.295C109.349 26.295 111.359 25.455 112.859 23.775C114.389 22.095 115.154 19.875 115.154 17.115C115.154 14.325 114.389 12.105 112.859 10.455C111.359 8.775 109.349 7.935 106.829 7.935C104.279 7.935 102.239 8.76 100.709 10.41C99.2086 12.06 98.4586 14.295 98.4586 17.115C98.4586 19.905 99.2086 22.14 100.709 23.82C102.239 25.47 104.279 26.295 106.829 26.295Z" fill="white"/>
</svg>
