<svg width="71" height="65" viewBox="0 0 71 65" fill="none" xmlns="http://www.w3.org/2000/svg">
<path d="M64.4824 17.6621V17.7397C63.9082 17.3531 63.2166 17.1274 62.4724 17.1272H4.64551C2.65432 17.1272 1.04004 18.7415 1.04004 20.7327V59.6571C1.04004 61.6482 2.65432 63.2625 4.64551 63.2625H14.6992L17.2415 62.1884H55.1486L56.3008 63.2625H62.4724C63.2166 63.2624 63.9082 63.0366 64.4824 62.65L67.4407 60.9277V19.5409L64.4824 17.6621Z" fill="#E5EEF9"/>
<path d="M47.0155 1.73743C45.8143 1.73743 22.7727 1.73743 21.5761 1.73743C19.9247 1.73743 18.5859 3.09059 18.5859 4.75978V6.44839H18.5861V23.922H23.247V8.25112C23.247 7.25546 24.0455 6.44839 25.0306 6.44839H45.9696C46.9546 6.44839 47.7532 7.25546 47.7532 8.25112V23.922H49.3633H50.1531V3.00905L47.0155 1.73743Z" fill="#5A5A5A"/>
<path d="M66.3545 17.1272H62.4717C64.4629 17.1272 66.0771 18.7415 66.0771 20.7327V59.6571C66.0771 61.6482 64.4629 63.2625 62.4717 63.2625H66.3545C68.3457 63.2625 69.96 61.6482 69.96 59.6571V20.7327C69.96 18.7414 68.3457 17.1272 66.3545 17.1272Z" fill="#D5E3F4"/>
<path d="M52.414 4.75978C52.414 3.09059 51.0753 1.73743 49.4238 1.73743H46.373C48.0245 1.73743 49.3632 3.09059 49.3632 4.75978V23.922H52.414V4.75978Z" fill="#444444"/>
<path d="M14.6992 17.1272H56.3008V63.2625H14.6992V17.1272Z" fill="#EE6161"/>
<path d="M35.5002 54.8479C43.5929 54.8479 50.1533 48.2875 50.1533 40.1949C50.1533 32.1022 43.5929 25.5418 35.5002 25.5418C27.4076 25.5418 20.8472 32.1022 20.8472 40.1949C20.8472 48.2875 27.4076 54.8479 35.5002 54.8479Z" fill="#E5EEF9"/>
<path d="M44.1394 37.0839H38.6109V31.5554C38.6109 31.1725 38.3004 30.862 37.9175 30.862H33.0823C32.6994 30.862 32.3889 31.1725 32.3889 31.5554V37.0839H26.8604C26.4775 37.0839 26.167 37.3944 26.167 37.7773V42.6125C26.167 42.9954 26.4775 43.3059 26.8604 43.3059H32.3889V48.8344C32.3889 49.2173 32.6994 49.5278 33.0823 49.5278H37.9175C38.3004 49.5278 38.6109 49.2173 38.6109 48.8344V43.3059H44.1394C44.5223 43.3059 44.8328 42.9954 44.8328 42.6125V37.7773C44.8328 37.3943 44.5224 37.0839 44.1394 37.0839Z" fill="#F6AB31"/>
<path d="M16.2767 14.594L15.0474 13.9863C14.8726 13.8682 14.6619 13.7991 14.435 13.7991H11.9033C11.2981 13.7991 10.8076 14.2897 10.8076 14.8948V22.8265C10.8076 23.4317 11.2981 23.9222 11.9033 23.9222H14.4346C14.6363 23.9222 14.8247 23.8667 14.987 23.7716L16.2767 23.0876V14.594Z" fill="#FEC165"/>
<path d="M17.4854 13.7991H14.4346C15.0397 13.7991 15.5302 14.2897 15.5302 14.8948V22.8265C15.5302 23.4317 15.0397 23.9222 14.4346 23.9222H17.4854C18.0905 23.9222 18.581 23.4317 18.581 22.8265V14.8948C18.581 14.2896 18.0905 13.7991 17.4854 13.7991Z" fill="#FDB441"/>
<path d="M57.8831 14.594L56.6538 13.9863C56.4791 13.8682 56.2683 13.7991 56.0414 13.7991H53.5097C52.9045 13.7991 52.4141 14.2897 52.4141 14.8948V22.8265C52.4141 23.4317 52.9045 23.9222 53.5097 23.9222H56.041C56.2428 23.9222 56.4311 23.8667 56.5935 23.7716L57.8831 23.0876V14.594Z" fill="#FEC165"/>
<path d="M59.0918 13.7991H56.041C56.6462 13.7991 57.1367 14.2897 57.1367 14.8948V22.8265C57.1367 23.4317 56.6462 23.9222 56.041 23.9222H59.0918C59.697 23.9222 60.1874 23.4317 60.1874 22.8265V14.8948C60.1874 14.2896 59.697 13.7991 59.0918 13.7991Z" fill="#FDB441"/>
<path d="M35.5002 24.5018C26.8471 24.5018 19.8071 31.5416 19.8071 40.1949C19.8071 48.8481 26.8471 55.8878 35.5002 55.8878C44.1533 55.8878 51.1933 48.848 51.1933 40.1949C51.1933 31.5418 44.1533 24.5018 35.5002 24.5018ZM35.5002 53.8077C27.994 53.8077 21.8872 47.7011 21.8872 40.1947C21.8872 32.6884 27.9939 26.5817 35.5002 26.5817C43.0065 26.5817 49.1132 32.6884 49.1132 40.1947C49.1132 47.7011 43.0064 53.8077 35.5002 53.8077Z" fill="#092D4B"/>
<path d="M39.6509 36.0439V31.5554C39.6509 30.5995 38.8734 29.822 37.9175 29.822H33.0823C32.1264 29.822 31.3489 30.5995 31.3489 31.5554V36.0439H26.8604C25.9045 36.0439 25.127 36.8214 25.127 37.7773V42.6125C25.127 43.5684 25.9045 44.3459 26.8604 44.3459H31.3489V48.8344C31.3489 49.7903 32.1264 50.5678 33.0823 50.5678H37.9175C38.8734 50.5678 39.6509 49.7903 39.6509 48.8344V44.3459H44.1394C45.0953 44.3459 45.8728 43.5684 45.8728 42.6125V37.7773C45.8728 36.8214 45.0953 36.0439 44.1394 36.0439H39.6509ZM43.7927 42.2658H38.6109C38.0365 42.2658 37.5708 42.7315 37.5708 43.3059V48.4877H33.429V43.3059C33.429 42.7315 32.9633 42.2658 32.3889 42.2658H27.207V38.124H32.3889C32.9633 38.124 33.429 37.6583 33.429 37.0839V31.902H37.5708V37.0839C37.5708 37.6583 38.0365 38.124 38.6109 38.124H43.7927V42.2658Z" fill="#092D4B"/>
<path d="M69.96 47.8809C70.5343 47.8809 71 47.4153 71 46.8409V20.7327C71 18.1712 68.916 16.0872 66.3545 16.0872H61.2275V14.8948C61.2275 13.7172 60.2694 12.7591 59.0918 12.7591H53.5097C53.4909 12.7591 53.4727 12.7614 53.454 12.7619L53.4541 4.7598C53.4541 2.51983 51.6461 0.697404 49.4239 0.697404H29.6017C29.0274 0.697404 28.5617 1.16306 28.5617 1.73744C28.5617 2.31182 29.0274 2.77748 29.6017 2.77748H49.4238C50.499 2.77748 51.3739 3.66678 51.3739 4.7598L51.3738 16.0872H48.7931V8.25114C48.7931 6.68359 47.5265 5.40836 45.9694 5.40836H25.0304C23.4734 5.40836 22.2068 6.68359 22.2068 8.25114V16.0871H19.626V14.8946C19.626 14.8942 19.626 14.8939 19.626 14.8935L19.6261 4.75966C19.6261 3.66665 20.501 2.77734 21.5762 2.77734H24.7482C25.3226 2.77734 25.7883 2.31168 25.7883 1.7373C25.7883 1.16293 25.3226 0.697266 24.7482 0.697266H21.5762C19.3539 0.697266 17.546 2.51969 17.546 4.75966L17.5459 12.7617C17.5272 12.7613 17.509 12.7589 17.4903 12.7589H11.9082C10.7306 12.7589 9.77248 13.717 9.77248 14.8946V16.0871H4.64551C2.08396 16.0871 0 18.171 0 20.7326V59.6569C0 62.2185 2.08396 64.3024 4.64551 64.3024H66.3545C68.916 64.3024 71 62.2185 71 59.6569V51.6943C71 51.1199 70.5343 50.6542 69.96 50.6542C69.3856 50.6542 68.9199 51.1199 68.9199 51.6943V59.6569C68.9199 61.0715 67.7691 62.2224 66.3545 62.2224H57.3408V24.9622H59.0918C59.9049 24.9622 60.6128 24.5054 60.9735 23.8352C61.1385 23.5324 61.2325 23.1853 61.2325 22.8167V18.1673H66.3545C67.7691 18.1673 68.9199 19.3181 68.9199 20.7327V46.8409C68.9199 47.4153 69.3856 47.8809 69.96 47.8809ZM53.5097 14.8392H59.0918C59.1225 14.8392 59.1474 14.8641 59.1474 14.8948V22.8265C59.1474 22.8329 59.1458 22.8387 59.1438 22.8444C59.1341 22.8608 59.1171 22.8721 59.0968 22.8721C57.0755 22.8721 55.5331 22.8721 53.5147 22.8721C53.4841 22.8721 53.4591 22.8472 53.4591 22.8165L53.5097 14.8392ZM24.2869 8.25114C24.2869 7.83055 24.6204 7.48844 25.0304 7.48844H45.9694C46.3795 7.48844 46.713 7.83055 46.713 8.25114V16.0871C45.0962 16.0871 24.9209 16.0871 24.2869 16.0871V8.25114ZM11.8526 14.8948C11.8526 14.8641 11.8775 14.8392 11.9082 14.8392H17.4903C17.5778 14.8392 17.5409 14.3918 17.5409 22.8265C17.5409 22.8572 17.5159 22.8821 17.4853 22.8821C15.4675 22.8821 13.9229 22.8821 11.9082 22.8821C11.8775 22.8821 11.8526 22.8572 11.8526 22.8265V14.8948ZM2.08008 59.6571V20.7327C2.08008 19.3181 3.23092 18.1673 4.64551 18.1673H9.76749V22.8265C9.76749 24.0041 10.7256 24.9622 11.9032 24.9622H11.9082H13.6592V62.2225H4.64551C3.23092 62.2225 2.08008 61.0717 2.08008 59.6571ZM55.2607 62.2225H15.7393V24.9622H17.4853H17.4903C18.6679 24.9622 19.626 24.0041 19.626 22.8265V18.1673H51.3739V22.8265C51.3739 24.0041 52.332 24.9622 53.5096 24.9622H55.2607V62.2225Z" fill="#092D4B"/>
</svg>
