<svg width="66" height="66" viewBox="0 0 66 66" fill="none" xmlns="http://www.w3.org/2000/svg">
<g clip-path="url(#clip0_50_160)">
<path d="M7.70007 9.90024H1.1001V18.7002H7.70007V9.90024Z" fill="#FCE3C3"/>
<path d="M16.5002 5.50026L12.1002 1.10028L7.7002 5.50026V9.90025H16.5002V5.50026Z" fill="#FCE3C3"/>
<path d="M7.7002 9.90024V18.7002H16.5002V9.90024H7.7002ZM12.1002 13.2002V15.4002V13.2002Z" fill="#FCE3C3"/>
<path d="M16.5002 18.7002H7.7002V64.9H16.5002V18.7002Z" fill="#FCE3C3"/>
<path d="M16.5 9.90024V18.7002H29.6999H49.4999H60.4998L64.8998 14.3002L60.4998 9.90024H16.5Z" fill="#FCE3C3"/>
<path d="M29.6997 51.7001H37.3997V45.1001H41.7997V51.7001H49.4996V40.7001L47.2996 38.7443V31.9001H42.8997V34.8338L39.5997 31.9001L29.6997 40.7001V51.7001Z" fill="#EB7452"/>
<path d="M26.4 27.5002C23.9701 27.5002 22 29.4702 22 31.9001V51.7C22 54.1299 23.9701 56.1 26.4 56.1H52.7999C55.2298 56.1 57.1999 54.1299 57.1999 51.7V31.9001C57.1999 29.4702 55.2298 27.5002 52.7999 27.5002H49.4999H29.7H26.4ZM42.8999 34.8338V31.9001H47.2999V38.7443L49.4999 40.7001V51.7H41.7999H37.3999H29.7V40.7001L39.5999 31.9001L42.8999 34.8338Z" fill="#95C6D8"/>
<path d="M41.7999 45.1001H37.3999V51.7001H41.7999V45.1001Z" fill="#FCE3C3"/>
<path d="M1.1 19.8002H6.59997V64.9C6.59997 65.5072 7.09167 66 7.69997 66H16.4999C17.1082 66 17.5999 65.5072 17.5999 64.9V19.8002H28.5999V26.4002H26.3999C23.3672 26.4002 20.8999 28.8675 20.8999 31.9001V51.7001C20.8999 54.7327 23.3672 57.2 26.3999 57.2H52.7998C55.8325 57.2 58.2998 54.7327 58.2998 51.7001V31.9001C58.2998 28.8675 55.8325 26.4002 52.7998 26.4002H50.5998V19.8002H60.4997C60.7923 19.8002 61.0717 19.6847 61.2774 19.4779L65.6774 15.0779C66.1075 14.6478 66.1075 13.9526 65.6774 13.5225L61.2774 9.12254C61.0717 8.91574 60.7923 8.80024 60.4997 8.80024H17.5999V5.50025C17.5999 5.20875 17.4844 4.92825 17.2776 4.72256L12.8776 0.322574C12.4475 -0.107525 11.7524 -0.107525 11.3223 0.322574L6.92227 4.72256C6.71547 4.92825 6.59997 5.20875 6.59997 5.50025V8.80024H1.1C0.491698 8.80024 0 9.29304 0 9.90023V18.7002C0 19.3074 0.491698 19.8002 1.1 19.8002ZM15.3999 63.8H8.79996V19.8002H15.3999V63.8ZM8.79996 17.6002V11.0002H15.3999V17.6002H8.79996ZM56.0998 31.9001V51.7001C56.0998 53.5195 54.6192 55 52.7998 55H26.3999C24.5805 55 23.0999 53.5195 23.0999 51.7001V31.9001C23.0999 30.0807 24.5805 28.6002 26.3999 28.6002H52.7998C54.6192 28.6002 56.0998 30.0807 56.0998 31.9001ZM48.3998 26.4002H30.7999V19.8002H48.3998V26.4002ZM60.0443 11.0002L63.3443 14.3002L60.0443 17.6002H17.5999V11.0002H60.0443ZM8.79996 5.95565L12.0999 2.65566L15.3999 5.95565V8.80024H8.79996V5.95565ZM2.19999 11.0002H6.59997V17.6002H2.19999V11.0002Z" fill="#092D4B"/>
<path d="M13.2 13.2002H11V15.4002H13.2V13.2002Z" fill="#092D4B"/>
<path d="M29.6996 52.8001H37.3996H41.7996H49.4995C50.1078 52.8001 50.5995 52.3073 50.5995 51.7001V40.7001C50.5995 40.3855 50.4653 40.0863 50.2299 39.8773L48.3995 38.2504V31.9001C48.3995 31.2929 47.9078 30.8001 47.2995 30.8001H42.8995C42.2913 30.8001 41.7996 31.2929 41.7996 31.9001V32.3841L40.33 31.0773C39.9131 30.7066 39.2861 30.7066 38.8692 31.0773L28.9692 39.8773C28.7338 40.0863 28.5996 40.3855 28.5996 40.7001V51.7001C28.5996 52.3073 29.0913 52.8001 29.6996 52.8001ZM38.4996 50.6001V46.2001H40.6996V50.6001H38.4996ZM30.7996 41.194L39.5996 33.3719L42.1691 35.6555C42.4925 35.9437 42.9545 36.0141 43.3505 35.837C43.7454 35.6588 43.9995 35.2661 43.9995 34.8338V33.0001H46.1995V38.7443C46.1995 39.0589 46.3337 39.3581 46.5691 39.5671L48.3995 41.194V50.6001H42.8995V45.1001C42.8995 44.4929 42.4078 44.0001 41.7996 44.0001H37.3996C36.7913 44.0001 36.2996 44.4929 36.2996 45.1001V50.6001H30.7996V41.194Z" fill="#092D4B"/>
<path d="M40.7 59.4H38.5V61.6H40.7V59.4Z" fill="#092D4B"/>
<path d="M36.3001 59.4H34.1001V61.6H36.3001V59.4Z" fill="#092D4B"/>
<path d="M45.0999 59.4H42.8999V61.6H45.0999V59.4Z" fill="#092D4B"/>
</g>
<defs>
<clipPath id="clip0_50_160">
<rect width="66" height="66" fill="white"/>
</clipPath>
</defs>
</svg>
