<svg width="74" height="74" viewBox="0 0 74 74" fill="none" xmlns="http://www.w3.org/2000/svg">
<path d="M42.7812 68.2188H3.46875L5.78125 21.9688H40.4688L42.7812 68.2188Z" fill="#F87959"/>
<path d="M52.0312 68.2188H42.7812L40.4688 21.9688H49.7188L52.0312 68.2188Z" fill="#F87959"/>
<path d="M70.5312 68.2188H61.2812L61.1367 66.35V66.3485L58.9688 38.1562H68.2188L70.3506 65.8614V65.8629L70.5312 68.2188Z" fill="#EBC569"/>
<path d="M18.5 42.7812H11.5625V33.5312L15.0312 31.2188L18.5 33.5312V42.7812Z" fill="#EBC569"/>
<path d="M61.2812 68.2188H31.2188L33.5312 38.1562H58.9688L61.2812 68.2188Z" fill="#EBC569"/>
<path d="M69.3717 38.0675C69.3493 37.7771 69.2181 37.5057 69.0044 37.3078C68.7906 37.1099 68.5101 37 68.2188 37H51.628L50.8736 21.9109C50.8587 21.6147 50.7306 21.3354 50.5156 21.131C50.3007 20.9265 50.0154 20.8125 49.7188 20.8125H41.625V15.0313C41.6256 13.3663 41.2265 11.7255 40.4613 10.2468C39.6962 8.76809 38.5872 7.49465 37.2277 6.53348C35.8682 5.57231 34.2979 4.9515 32.6486 4.72323C30.9994 4.49495 29.3195 4.66587 27.75 5.22163C26.1805 4.66587 24.5006 4.49495 22.8514 4.72323C21.2021 4.9515 19.6318 5.57231 18.2723 6.53348C16.9128 7.49465 15.8038 8.76809 15.0387 10.2468C14.2735 11.7255 13.8744 13.3663 13.875 15.0313V20.8125H5.78125C5.4846 20.8125 5.1993 20.9265 4.98436 21.131C4.76942 21.3354 4.64128 21.6147 4.62645 21.9109L2.31395 68.1609C2.30611 68.3174 2.33017 68.4739 2.38467 68.6208C2.43917 68.7678 2.52296 68.9021 2.63097 69.0156C2.73897 69.1292 2.86893 69.2196 3.01295 69.2814C3.15697 69.3431 3.31204 69.375 3.46875 69.375H70.5312C70.6906 69.375 70.8482 69.3421 70.9942 69.2783C71.1402 69.2145 71.2714 69.1213 71.3797 69.0044C71.488 68.8875 71.5709 68.7495 71.6233 68.599C71.6757 68.4485 71.6964 68.2889 71.6842 68.13L69.3717 38.0675ZM65.9062 63.3657L68.3708 67.0625H63.4423L65.9062 63.3657ZM69.0391 63.896L67.0281 60.8796L64.8714 39.3125H67.1481L69.0391 63.896ZM62.5473 39.3125L64.7153 60.9844L62.1773 64.7905L60.2174 39.3125H62.5473ZM49.3126 37H47.1364L46.3201 23.125H48.6181L49.3126 37ZM44.0036 23.125L44.8199 37H42.3773L41.6835 23.125H44.0036ZM31.2188 6.9375C33.3646 6.93995 35.4218 7.79347 36.9392 9.31081C38.4565 10.8282 39.3101 12.8854 39.3125 15.0313V20.8125H34.6875V15.0313C34.6875 13.481 34.3406 11.9504 33.6722 10.5516C33.0038 9.15282 32.0308 7.92136 30.8246 6.94748C30.9553 6.94126 31.0865 6.9375 31.2188 6.9375ZM27.75 7.72C29.1329 8.37726 30.3012 9.41285 31.1198 10.7068C31.9383 12.0008 32.3735 13.5001 32.375 15.0313V20.8125H23.125V15.0313C23.1265 13.5001 23.5617 12.0008 24.3802 10.7068C25.1988 9.41285 26.3671 8.37726 27.75 7.72ZM16.1875 15.0313C16.1899 12.8854 17.0435 10.8282 18.5608 9.31081C20.0782 7.79347 22.1354 6.93995 24.2812 6.9375C24.4135 6.9375 24.5447 6.94126 24.6754 6.94748C23.4692 7.92134 22.4962 9.1528 21.8278 10.5516C21.1594 11.9503 20.8125 13.481 20.8125 15.0313V20.8125H16.1875V15.0313ZM30.1481 67.0625H4.68426L6.88113 23.125H13.875V30.6L10.9211 32.5692C10.7627 32.6748 10.6329 32.8179 10.5431 32.9857C10.4532 33.1535 10.4063 33.3409 10.4063 33.5312V42.7812C10.4063 43.0879 10.5281 43.382 10.7449 43.5988C10.9617 43.8157 11.2558 43.9375 11.5625 43.9375H18.5C18.8067 43.9375 19.1008 43.8157 19.3176 43.5988C19.5344 43.382 19.6563 43.0879 19.6563 42.7812V33.5312C19.6562 33.3409 19.6093 33.1535 19.5194 32.9857C19.4296 32.8179 19.2998 32.6748 19.1414 32.5692L16.1875 30.6V23.125H32.375V26.5938C32.375 26.9004 32.4968 27.1945 32.7137 27.4113C32.9305 27.6282 33.2246 27.75 33.5312 27.75C33.8379 27.75 34.132 27.6282 34.3488 27.4113C34.5657 27.1945 34.6875 26.9004 34.6875 26.5938V23.125H39.3689L40.0626 37H33.5312C33.2399 37 32.9594 37.1099 32.7456 37.3078C32.5319 37.5057 32.4007 37.7771 32.3783 38.0675L30.1481 67.0625ZM15.0313 32.6084L17.3438 34.15V41.625H12.7188V34.15L15.0313 32.6084ZM34.6019 39.3125H57.8981L60.0326 67.0625H32.4674L34.6019 39.3125Z" fill="#092D4B"/>
<path d="M52.0312 43.9375C51.7246 43.9375 51.4305 44.0593 51.2137 44.2762C50.9968 44.493 50.875 44.7871 50.875 45.0938V54.3438C50.874 55.2634 50.5082 56.1451 49.8579 56.7954C49.2076 57.4457 48.3259 57.8115 47.4062 57.8125H45.0938C44.1741 57.8115 43.2924 57.4457 42.6421 56.7954C41.9918 56.1451 41.626 55.2634 41.625 54.3438V45.0938C41.625 44.7871 41.5032 44.493 41.2863 44.2762C41.0695 44.0593 40.7754 43.9375 40.4688 43.9375C40.1621 43.9375 39.868 44.0593 39.6512 44.2762C39.4343 44.493 39.3125 44.7871 39.3125 45.0938V54.3438C39.3142 55.8765 39.9239 57.346 41.0077 58.4298C42.0915 59.5136 43.561 60.1233 45.0938 60.125H47.4062C48.939 60.1233 50.4085 59.5136 51.4923 58.4298C52.5761 57.346 53.1858 55.8765 53.1875 54.3438V45.0938C53.1875 44.7871 53.0657 44.493 52.8488 44.2762C52.632 44.0593 52.3379 43.9375 52.0312 43.9375Z" fill="#092D4B"/>
</svg>
