<svg width="72" height="13" viewBox="0 0 72 13" fill="none" xmlns="http://www.w3.org/2000/svg">
<path fill-rule="evenodd" clip-rule="evenodd" d="M12.7679 4.68463L8.12862 4.38026L6.38143 0L4.63424 4.38026L0 4.68463L3.55443 7.69644L2.38806 12.2652L6.38143 9.74621L10.3748 12.2652L9.20846 7.69644L12.7679 4.68463ZM27.5085 4.68463L22.8691 4.38026L21.1219 0L19.3748 4.38026L14.7405 4.68463L18.2949 7.69644L17.1286 12.2652L21.1219 9.74621L25.1153 12.2652L23.949 7.69644L27.5085 4.68463ZM37.6096 4.38026L42.249 4.68463L38.6895 7.69644L39.8559 12.2652L35.8625 9.74621L31.8691 12.2652L33.0355 7.69644L29.481 4.68463L34.1153 4.38026L35.8625 0L37.6096 4.38026ZM56.9895 4.68463L52.3502 4.38026L50.603 0L48.8558 4.38026L44.2215 4.68463L47.776 7.69644L46.6096 12.2652L50.603 9.74621L54.5964 12.2652L53.43 7.69644L56.9895 4.68463ZM67.0907 4.38026L71.73 4.68463L68.1705 7.69644L69.3369 12.2652L65.3435 9.74621L61.3501 12.2652L62.5165 7.69644L58.9621 4.68463L63.5963 4.38026L65.3435 0L67.0907 4.38026Z" fill="#FAC850"/>
</svg>
