<svg width="66" height="66" viewBox="0 0 66 66" fill="none" xmlns="http://www.w3.org/2000/svg">
<g clip-path="url(#clip0_39_322)">
<path d="M16.2124 65.0327C21.9958 65.0327 26.6842 63.1221 26.6842 60.7654C26.6842 58.4086 21.9958 56.498 16.2124 56.498C10.4291 56.498 5.74072 58.4086 5.74072 60.7654C5.74072 63.1221 10.4291 65.0327 16.2124 65.0327Z" fill="#F2D771"/>
<path d="M25.7705 59.0228C24.1349 60.5109 20.4717 61.5482 16.2117 61.5482C11.9517 61.5482 8.28846 60.5109 6.65289 59.0228C6.06804 59.5549 5.74023 60.144 5.74023 60.7648C5.74023 63.1218 10.4284 65.0323 16.2118 65.0323C21.9951 65.0323 26.6834 63.1218 26.6834 60.7648C26.6832 60.144 26.3551 59.5548 25.7705 59.0228Z" fill="#E8B139"/>
<path d="M16.212 20.8068C7.80936 20.8068 0.997559 27.6185 0.997559 36.0212C0.997559 48.8169 16.212 60.5902 16.212 60.5902C16.212 60.5902 31.4265 48.8169 31.4265 36.0212C31.4265 27.6185 24.6148 20.8068 16.212 20.8068ZM16.212 42.0894C12.8607 42.0894 10.1439 39.3726 10.1439 36.0212C10.1439 32.6699 12.8607 29.953 16.212 29.953C19.5633 29.953 22.2803 32.6698 22.2803 36.0212C22.2803 39.3726 19.5634 42.0894 16.212 42.0894Z" fill="#F87959"/>
<path d="M16.2123 20.8068C15.623 20.8068 15.042 20.8413 14.4702 20.9067C22.0522 21.7711 27.9426 28.2078 27.9426 36.0212C27.9426 46.122 18.4637 55.5838 14.4702 59.1223C15.5358 60.0664 16.2123 60.5904 16.2123 60.5904C16.2123 60.5904 31.4267 48.8171 31.4267 36.0215C31.4267 27.6185 24.615 20.8068 16.2123 20.8068Z" fill="#D65860"/>
<path d="M53.308 34.958C57.753 34.958 61.3563 33.4896 61.3563 31.6783C61.3563 29.8669 57.753 28.3985 53.308 28.3985C48.8631 28.3985 45.2598 29.8669 45.2598 31.6783C45.2598 33.4896 48.8631 34.958 53.308 34.958Z" fill="#F2D771"/>
<path d="M60.1264 29.9363C58.7025 30.8598 56.1822 31.4741 53.3084 31.4741C50.4346 31.4741 47.9142 30.8598 46.4904 29.9363C45.7121 30.4411 45.2603 31.0381 45.2603 31.6784C45.2603 33.4899 48.8635 34.9581 53.3084 34.9581C57.7532 34.9581 61.3566 33.4896 61.3566 31.6784C61.3566 31.0381 60.9047 30.4413 60.1264 29.9363Z" fill="#E8B139"/>
<path d="M53.309 0.967834C46.8509 0.967834 41.6157 6.20311 41.6157 12.6612C41.6157 22.4956 53.309 31.5442 53.309 31.5442C53.309 31.5442 65.0023 22.4956 65.0023 12.6612C65.0023 6.20311 59.767 0.967834 53.309 0.967834ZM53.309 17.325C50.7331 17.325 48.6451 15.237 48.6451 12.6612C48.6451 10.0854 50.7331 7.99736 53.309 7.99736C55.8848 7.99736 57.9729 10.0854 57.9729 12.6612C57.9729 15.237 55.8848 17.325 53.309 17.325Z" fill="#F87959"/>
<path d="M53.3084 0.967834C52.7164 0.967834 52.1349 1.01218 51.5664 1.09713C57.1981 1.93837 61.5176 6.79518 61.5176 12.6611C61.5176 20.1018 54.8248 27.0916 51.5664 30.0538C52.6145 31.0068 53.3084 31.5441 53.3084 31.5441C53.3084 31.5441 65.0017 22.4955 65.0017 12.6611C65.0017 6.20311 59.7665 0.967834 53.3084 0.967834Z" fill="#D65860"/>
<path d="M16.2121 19.839C7.28915 19.839 0.0297852 27.0983 0.0297852 36.0212C0.0297852 41.5613 2.66515 47.5178 7.86279 53.7254C8.63507 54.6477 9.40464 55.5024 10.1431 56.2821C6.78719 57.1981 4.77238 58.8439 4.77238 60.7647C4.77238 64.1651 10.6662 66 16.2117 66C21.7571 66 27.651 64.165 27.651 60.7647C27.651 58.8454 25.6367 57.1993 22.2829 56.2829C23.6228 54.8684 25.0645 53.2042 26.4324 51.348C26.7497 50.9177 26.6577 50.3118 26.2275 49.9947C25.7974 49.678 25.1913 49.7695 24.8742 50.1998C23.2226 52.4411 21.435 54.4108 19.8751 55.9753C19.6963 56.0666 19.5467 56.2115 19.453 56.3941C18.0557 57.7674 16.8798 58.7861 16.2127 59.3428C15.5528 58.7915 14.3949 57.7866 13.0154 56.4313C12.9164 56.2143 12.7425 56.0442 12.5304 55.9493C8.14664 51.54 1.96557 43.9222 1.96557 36.0215C1.96557 28.1659 8.35663 21.7749 16.2122 21.7749C24.0678 21.7749 30.4588 28.1659 30.4588 36.0215C30.4588 39.4521 29.2899 43.1569 26.9845 47.033C26.7114 47.4925 26.8622 48.0864 27.3216 48.3595C27.781 48.6327 28.375 48.4819 28.6482 48.0224C31.134 43.8428 32.3945 39.8052 32.3945 36.0215C32.3943 27.0983 25.135 19.839 16.2121 19.839ZM16.2121 61.558C16.421 61.558 16.63 61.4906 16.8044 61.3556C16.9232 61.2637 18.5404 60.0025 20.6961 57.8947C23.9602 58.5604 25.7154 59.8421 25.7154 60.7647C25.7154 61.4537 24.7711 62.2666 23.2509 62.886C21.3864 63.6459 18.8865 64.0645 16.2117 64.0645C10.4102 64.0645 6.70791 62.11 6.70791 60.7647C6.70791 59.8408 8.46362 58.5598 11.7296 57.8941C13.8974 60.0144 15.517 61.276 15.6197 61.3556C15.7941 61.4907 16.0032 61.558 16.2121 61.558Z" fill="#092D4B"/>
<path d="M10.6458 33.414C10.1322 33.267 9.59612 33.5635 9.44852 34.0772C9.26792 34.7066 9.17627 35.3606 9.17627 36.0214C9.17627 39.9009 12.3325 43.0573 16.2122 43.0573C20.0919 43.0573 23.2482 39.9011 23.2482 36.0214C23.2482 32.1417 20.0919 28.9853 16.2122 28.9853C14.6815 28.9853 13.2259 29.4685 12.0028 30.3829C11.5748 30.7029 11.4872 31.3094 11.8071 31.7375C12.1273 32.1655 12.7337 32.253 13.1618 31.9332C14.0475 31.271 15.1024 30.9209 16.2121 30.9209C19.0246 30.9209 21.3124 33.2089 21.3124 36.0214C21.3124 38.8337 19.0245 41.1217 16.2121 41.1217C13.3998 41.1217 11.1118 38.8337 11.1118 36.0214C11.1118 35.5414 11.1782 35.0669 11.309 34.6114C11.4565 34.0974 11.1596 33.5614 10.6458 33.414Z" fill="#092D4B"/>
<path d="M62.3244 31.6784C62.3244 30.1449 60.883 28.8677 58.3891 28.1172C58.8815 27.5888 59.3887 27.0196 59.8975 26.4119C63.9268 21.5994 65.9699 16.9731 65.9699 12.6611C65.9697 5.67988 60.29 0 53.3087 0C48.2087 0 43.6296 3.03523 41.643 7.73259C41.4347 8.22488 41.665 8.79284 42.1572 9.0009C42.6494 9.20895 43.2175 8.97885 43.4255 8.48669C45.1088 4.50709 48.9881 1.93553 53.3087 1.93553C59.2228 1.93553 64.0342 6.7471 64.0342 12.6612C64.0342 20.6591 55.6375 28.3213 53.3083 30.2924C52.795 29.8585 51.987 29.1486 51.0396 28.22C50.9452 28.0325 50.7924 27.8842 50.6092 27.7922C47.2676 24.4277 42.5831 18.644 42.5831 12.6612C42.5831 12.1266 42.15 11.6934 41.6153 11.6934C41.0807 11.6934 40.6475 12.1265 40.6475 12.6612C40.6475 16.9731 42.6906 21.5996 46.72 26.412C47.2285 27.0193 47.7354 27.5884 48.2276 28.1166C45.7327 28.8662 44.2924 30.1421 44.2924 31.6785C44.2924 32.9742 45.3435 34.1163 47.2524 34.894C48.8856 35.5595 51.0364 35.9261 53.3085 35.9261C55.5805 35.9261 57.7313 35.5595 59.3647 34.894C61.2731 34.1161 62.3244 32.974 62.3244 31.6784ZM53.3084 33.9903C48.7272 33.9903 46.2281 32.463 46.2281 31.6783C46.2281 31.167 47.3649 30.2314 49.7925 29.7153C51.4259 31.3046 52.6382 32.2489 52.7165 32.3096C52.8909 32.4446 53.0998 32.512 53.3088 32.512C53.5177 32.512 53.7266 32.4446 53.9011 32.3096C53.9794 32.2492 55.1915 31.3047 56.8248 29.7155C57.9064 29.9461 58.8433 30.284 59.4989 30.6832C60.0561 31.0228 60.3889 31.3948 60.3889 31.6784C60.3887 32.463 57.8896 33.9903 53.3084 33.9903Z" fill="#092D4B"/>
<path d="M58.9402 12.6612C58.9402 9.55598 56.4139 7.02954 53.3086 7.02954C50.2033 7.02954 47.6768 9.55585 47.6768 12.6612C47.6768 15.7664 50.2031 18.2927 53.3086 18.2927C56.414 18.2927 58.9402 15.7666 58.9402 12.6612ZM49.6125 12.6612C49.6125 10.6232 51.2705 8.96507 53.3087 8.96507C55.3467 8.96507 57.0048 10.6231 57.0048 12.6612C57.0048 14.6991 55.3468 16.3572 53.3087 16.3572C51.2705 16.3572 49.6125 14.6992 49.6125 12.6612Z" fill="#092D4B"/>
<path d="M40.7548 32.6462C41.2892 32.6462 41.7226 32.2131 41.7226 31.6784C41.7226 31.1437 41.2892 30.7106 40.7548 30.7106H40.3129C39.9911 30.7106 39.6678 30.7318 39.3515 30.774C38.8218 30.8445 38.4494 31.331 38.5198 31.8611C38.5846 32.3476 39.0002 32.7014 39.4779 32.7014C39.5205 32.7014 39.5635 32.6987 39.6068 32.6929C39.8387 32.6621 40.0763 32.6465 40.313 32.6465H40.7548V32.6462Z" fill="#092D4B"/>
<path d="M37.5548 59.7477C37.5532 59.7477 37.5518 59.7477 37.5503 59.7477L36.272 59.7534C35.7376 59.7559 35.3063 60.1912 35.3086 60.7257C35.3111 61.2587 35.7439 61.6891 36.2763 61.6891C36.2778 61.6891 36.2794 61.6891 36.2808 61.6891L37.559 61.6833C38.0935 61.6809 38.5248 61.2455 38.5225 60.7111C38.5202 60.1779 38.0872 59.7477 37.5548 59.7477Z" fill="#092D4B"/>
<path d="M41.9033 45.1824C42.4379 45.1824 42.8711 44.7491 42.8711 44.2145C42.8711 43.68 42.4379 43.2467 41.9033 43.2467H40.6251C40.0905 43.2467 39.6572 43.6798 39.6572 44.2145C39.6572 44.7491 40.0905 45.1824 40.6251 45.1824H41.9033Z" fill="#092D4B"/>
<path d="M34.6538 35.0804C34.8246 35.2031 35.0219 35.2621 35.2176 35.2621C35.5186 35.2621 35.8154 35.122 36.0045 34.8588C36.2146 34.5663 36.4554 34.294 36.72 34.0499C37.1129 33.6875 37.1376 33.0752 36.7752 32.6823C36.4128 32.2897 35.8008 32.2649 35.4076 32.6271C35.0468 32.9598 34.7186 33.3307 34.4322 33.7295C34.1205 34.164 34.2197 34.7687 34.6538 35.0804Z" fill="#092D4B"/>
<path d="M42.668 59.7242C42.6664 59.7242 42.665 59.7242 42.6634 59.7242L41.3853 59.73C40.8509 59.7324 40.4196 60.1677 40.4219 60.7022C40.4243 61.2352 40.8571 61.6656 41.3896 61.6656C41.3911 61.6656 41.3925 61.6656 41.3941 61.6656L42.6722 61.6598C43.2066 61.6575 43.638 61.2221 43.6356 60.6876C43.6333 60.1546 43.2003 59.7242 42.668 59.7242Z" fill="#092D4B"/>
<path d="M32.442 59.7707C32.4405 59.7707 32.4391 59.7707 32.4375 59.7707L31.1593 59.7765C30.6248 59.7788 30.1935 60.2143 30.1958 60.7487C30.1983 61.2818 30.631 61.7122 31.1635 61.7122C31.1651 61.7122 31.1665 61.7122 31.168 61.7122L32.4463 61.7064C32.9807 61.7039 33.412 61.2686 33.4097 60.7342C33.4074 60.201 32.9747 59.7707 32.442 59.7707Z" fill="#092D4B"/>
<path d="M36.9727 44.2197C37.2939 44.2197 37.6081 44.06 37.7923 43.768C38.0774 43.3159 37.9421 42.7183 37.49 42.4331C37.186 42.2412 36.8999 42.0172 36.6401 41.7675C36.2548 41.3969 35.642 41.4092 35.2718 41.7941C34.9012 42.1792 34.9132 42.7919 35.2983 43.1624C35.6526 43.5031 36.0425 43.8085 36.4575 44.0702C36.6176 44.1715 36.7961 44.2197 36.9727 44.2197Z" fill="#092D4B"/>
<path d="M35.1103 38.9668C35.0453 38.6331 35.0123 38.29 35.0123 37.9466L35.0126 37.8928C35.0189 37.3584 34.5907 36.9201 34.0561 36.9139C34.0524 36.9138 34.0485 36.9138 34.0446 36.9138C33.5153 36.9138 33.0832 37.3397 33.077 37.8704L33.0767 37.9467C33.0767 38.4141 33.1216 38.8819 33.2103 39.3371C33.3003 39.7992 33.7053 40.1198 34.1594 40.1198C34.2206 40.1198 34.283 40.114 34.3455 40.1018C34.8702 39.9996 35.2125 39.4914 35.1103 38.9668Z" fill="#092D4B"/>
<path d="M47.0166 45.1824C47.5512 45.1824 47.9844 44.7491 47.9844 44.2145C47.9844 43.68 47.5512 43.2467 47.0166 43.2467H45.7383C45.2038 43.2467 44.7705 43.6798 44.7705 44.2145C44.7705 44.7491 45.2038 45.1824 45.7383 45.1824H47.0166Z" fill="#092D4B"/>
<path d="M61.9547 46.9447C62.2406 46.9447 62.5239 46.8183 62.715 46.5765C63.0461 46.157 62.9746 45.5483 62.5551 45.2172C62.1822 44.9229 61.7836 44.6554 61.3702 44.4229C60.905 44.1604 60.3143 44.3253 60.052 44.791C59.7897 45.2566 59.9544 45.847 60.4203 46.1092C60.7464 46.293 61.0612 46.5041 61.3556 46.7365C61.5333 46.8768 61.7446 46.9447 61.9547 46.9447Z" fill="#092D4B"/>
<path d="M57.8713 59.5914C57.5543 59.6352 57.2297 59.6583 56.906 59.6596L56.7249 59.6605C56.1903 59.6632 55.7592 60.0987 55.7617 60.633C55.7644 61.1659 56.1972 61.5962 56.7294 61.5962C56.7311 61.5962 56.7326 61.5962 56.7342 61.5962L56.9149 61.5953C57.3237 61.5935 57.7346 61.5645 58.1362 61.5089C58.6656 61.4357 59.0356 60.947 58.9625 60.4177C58.889 59.8883 58.3997 59.5177 57.8713 59.5914Z" fill="#092D4B"/>
<path d="M61.8653 57.6628C61.5939 57.9216 61.2998 58.1611 60.9916 58.3748C60.5524 58.6793 60.4433 59.2823 60.7476 59.7217C60.9357 59.9928 61.2372 60.1382 61.5439 60.1382C61.7341 60.1382 61.9262 60.0823 62.0944 59.9658C62.4845 59.6952 62.8566 59.392 63.2004 59.0645C63.5874 58.6958 63.6021 58.0831 63.2334 57.6962C62.8648 57.3089 62.2521 57.294 61.8653 57.6628Z" fill="#092D4B"/>
<path d="M65.1172 52.9956C64.5928 52.8968 64.0861 53.2422 63.9871 53.7675C63.9176 54.1358 63.8189 54.5014 63.6932 54.854C63.5137 55.3573 63.7762 55.911 64.2798 56.0906C64.3872 56.1288 64.497 56.147 64.6048 56.147C65.0023 56.147 65.3751 55.9 65.5164 55.504C65.6759 55.0567 65.8013 54.593 65.8893 54.1258C65.9881 53.6006 65.6425 53.0945 65.1172 52.9956Z" fill="#092D4B"/>
<path d="M63.905 48.0783C63.4207 48.3044 63.2112 48.8802 63.4372 49.3646C63.5957 49.7043 63.7285 50.059 63.8318 50.4186C63.9536 50.8431 64.3408 51.1197 64.7614 51.1197C64.85 51.1197 64.9397 51.1074 65.0289 51.0819C65.5427 50.9345 65.8396 50.3983 65.6921 49.8846C65.5609 49.4277 65.3926 48.9775 65.1912 48.5461C64.9652 48.0618 64.3899 47.8524 63.905 48.0783Z" fill="#092D4B"/>
<path d="M52.1294 45.1824C52.664 45.1824 53.0972 44.7491 53.0972 44.2145C53.0972 43.68 52.664 43.2467 52.1294 43.2467H50.8511C50.3166 43.2467 49.8833 43.6798 49.8833 44.2145C49.8833 44.7491 50.3166 45.1824 50.8511 45.1824H52.1294Z" fill="#092D4B"/>
<path d="M47.7813 59.701C47.7798 59.701 47.7784 59.701 47.7768 59.701L46.4986 59.7068C45.9642 59.7092 45.5328 60.1446 45.5352 60.679C45.5376 61.212 45.9704 61.6424 46.5029 61.6424C46.5044 61.6424 46.5058 61.6424 46.5074 61.6424L47.7856 61.6366C48.32 61.6342 48.7514 61.1989 48.749 60.6644C48.7467 60.1314 48.3139 59.701 47.7813 59.701Z" fill="#092D4B"/>
<path d="M56.8732 45.1824C56.9826 45.1824 57.0914 45.1848 57.1996 45.1896C57.2142 45.1904 57.2287 45.1906 57.2432 45.1906C57.7579 45.1906 58.1864 44.785 58.2092 44.2657C58.2329 43.7317 57.8192 43.2796 57.2853 43.2561C57.1483 43.2499 57.0097 43.247 56.8733 43.247H55.9644C55.4298 43.247 54.9966 43.6801 54.9966 44.2148C54.9966 44.7494 55.4298 45.1826 55.9644 45.1826L56.8732 45.1824Z" fill="#092D4B"/>
<path d="M52.8948 59.6779C52.8932 59.6779 52.8918 59.6779 52.8903 59.6779L51.6119 59.6837C51.0774 59.686 50.6461 60.1215 50.6484 60.6559C50.6508 61.189 51.0836 61.6194 51.6161 61.6194C51.6177 61.6194 51.6191 61.6194 51.6207 61.6194L52.8989 61.6136C53.4333 61.6113 53.8647 61.1758 53.8623 60.6414C53.86 60.1082 53.4272 59.6779 52.8948 59.6779Z" fill="#092D4B"/>
</g>
<defs>
<clipPath id="clip0_39_322">
<rect width="66" height="66" fill="white"/>
</clipPath>
</defs>
</svg>
