<svg width="17" height="13" viewBox="0 0 17 13" fill="none" xmlns="http://www.w3.org/2000/svg">
<path fill-rule="evenodd" clip-rule="evenodd" d="M0 1.08333C0 0.485025 0.485025 0 1.08333 0H15.9167C16.515 0 17 0.485025 17 1.08333C17 1.68164 16.515 2.16667 15.9167 2.16667H1.08333C0.485025 2.16667 0 1.68164 0 1.08333ZM0 6.5C0 5.90169 0.485025 5.41667 1.08333 5.41667H15.9167C16.515 5.41667 17 5.90169 17 6.5C17 7.09831 16.515 7.58333 15.9167 7.58333H1.08333C0.485025 7.58333 0 7.09831 0 6.5ZM1.08333 10.8333C0.485025 10.8333 0 11.3184 0 11.9167C0 12.515 0.485025 13 1.08333 13H15.9167C16.515 13 17 12.515 17 11.9167C17 11.3184 16.515 10.8333 15.9167 10.8333H1.08333Z" fill="#E0286A"/>
</svg>
